<svg width="107" height="25" viewBox="0 0 107 25" fill="none" xmlns="http://www.w3.org/2000/svg">
<path d="M23.1744 4.07703H31.4157C32.7497 4.07703 33.8312 5.19456 33.8312 6.57311V16.2637C33.8312 17.6423 32.7497 18.7598 31.4157 18.7598H19.6221L23.1744 4.07703Z" fill="#FAF9F6"/>
<path d="M21.0339 6.85864H14.395C13.0723 6.85864 12 7.97618 12 9.35472V19.0454C12 20.4239 13.0723 21.5414 14.395 21.5414H22.566L22.8937 20.1755H17.8395L21.0339 6.85864Z" fill="#FAF9F6"/>
<path d="M43.7276 18.7538L40.0942 6.86294H42.1468L44.7185 15.9463L47.5025 6.86294H49.4371L52.2211 15.9463L54.7692 6.86294H56.8689L53.212 18.7538H51.2538L48.4698 9.7177L45.6858 18.7538H43.7276ZM65.9202 11.0153C65.9202 9.3874 64.7641 8.3493 63.0182 8.3493C61.3903 8.3493 60.2343 9.31662 60.0691 10.9209L58.2052 10.5671C58.5591 8.20774 60.5174 6.67419 63.0182 6.67419C65.8966 6.67419 67.902 8.3729 67.902 11.1333V18.7538H65.9202V16.7248C65.236 18.0932 63.6788 18.9426 61.9565 18.9426C59.5736 18.9426 57.9457 17.4798 57.9457 15.4272C57.9457 13.1387 59.8096 11.8883 63.6081 11.5108L65.9202 11.2513V11.0153ZM59.9511 15.4036C59.9511 16.5125 60.8949 17.2911 62.2633 17.2911C64.5754 17.2911 65.9202 15.7575 65.9202 13.3746V12.8084L63.6081 13.0679C61.2016 13.3274 59.9511 14.1532 59.9511 15.4036ZM81.4021 10.8974L79.3967 11.2748C79.3023 9.50536 78.1934 8.49086 76.4003 8.49086C74.2062 8.49086 72.7906 10.4727 72.7906 13.6577V18.7538H70.7852V6.86294H72.7906V9.19865C73.6635 7.49995 75.1263 6.67419 76.8722 6.67419C79.5146 6.67419 81.3077 8.32571 81.4021 10.8974ZM83.5397 23.0478V6.86294H85.5451V8.58523C86.1822 7.49995 87.7393 6.67419 89.4616 6.67419C93.1185 6.67419 95.1475 9.31662 95.1475 12.8084C95.1475 16.3002 93.0713 18.9426 89.4144 18.9426C87.9044 18.9426 86.3473 18.1876 85.5451 17.1023V23.0478H83.5397ZM89.2257 17.1495C91.585 17.1495 93.1185 15.4272 93.1185 12.8084C93.1185 10.1896 91.585 8.46727 89.2257 8.46727C86.9135 8.46727 85.38 10.1896 85.38 12.8084C85.38 15.4272 86.9135 17.1495 89.2257 17.1495Z" fill="#FAF9F6"/>
</svg>
