<svg width="449" height="19" viewBox="0 0 449 19" fill="none" xmlns="http://www.w3.org/2000/svg">
<line x1="312.314" x2="312.314" y2="18.5003" stroke="#8F7E77" stroke-width="1.46055"/>
<circle cx="325.702" cy="9.25005" r="3.83394" stroke="#8F7E77" stroke-width="1.09541"/>
<line x1="329.11" y1="9.25021" x2="343.716" y2="9.25021" stroke="#8F7E77" stroke-width="0.973698"/>
<line x1="392.4" y1="9.25021" x2="407.006" y2="9.25021" stroke="#8F7E77" stroke-width="0.973698"/>
<line x1="349.558" y1="9.25021" x2="354.426" y2="9.25021" stroke="#8F7E77" stroke-width="0.973698"/>
<line x1="412.848" y1="9.25021" x2="417.717" y2="9.25021" stroke="#8F7E77" stroke-width="0.973698"/>
<line x1="360.268" y1="9.25021" x2="374.874" y2="9.25021" stroke="#8F7E77" stroke-width="0.973698"/>
<line x1="423.559" y1="9.25021" x2="438.164" y2="9.25021" stroke="#8F7E77" stroke-width="0.973698"/>
<line x1="376.821" y1="9.25021" x2="385.585" y2="9.25021" stroke="#8F7E77" stroke-width="0.973698"/>
<line x1="440.112" y1="9.25021" x2="448.875" y2="9.25021" stroke="#8F7E77" stroke-width="0.973698"/>
<line x1="136.561" y1="18.5002" x2="136.561" y2="-2.67029e-05" stroke="#8F7E77" stroke-width="1.46055"/>
<circle cx="123.173" cy="9.24995" r="3.83394" transform="rotate(-180 123.173 9.24995)" stroke="#8F7E77" stroke-width="1.09541"/>
<line x1="119.765" y1="9.25003" x2="105.159" y2="9.25003" stroke="#8F7E77" stroke-width="0.973698"/>
<line x1="56.4744" y1="9.25003" x2="41.8689" y2="9.25003" stroke="#8F7E77" stroke-width="0.973698"/>
<line x1="99.3171" y1="9.25003" x2="94.4486" y2="9.25003" stroke="#8F7E77" stroke-width="0.973698"/>
<line x1="36.0269" y1="9.25003" x2="31.1584" y2="9.25003" stroke="#8F7E77" stroke-width="0.973698"/>
<line x1="88.6064" y1="9.25003" x2="74.001" y2="9.25003" stroke="#8F7E77" stroke-width="0.973698"/>
<line x1="25.3162" y1="9.25003" x2="10.7107" y2="9.25003" stroke="#8F7E77" stroke-width="0.973698"/>
<line x1="72.0537" y1="9.25003" x2="63.2904" y2="9.25003" stroke="#8F7E77" stroke-width="0.973698"/>
<line x1="8.76343" y1="9.25003" x2="0.000141144" y2="9.25003" stroke="#8F7E77" stroke-width="0.973698"/>
<path d="M160.541 15C160.448 15 160.37 14.9688 160.308 14.9065L158.781 13.3798C158.719 13.3174 158.687 13.2396 158.687 13.1461V5.9485C158.687 5.85502 158.719 5.77713 158.781 5.71481L160.308 4.18805C160.37 4.12574 160.448 4.09458 160.541 4.09458H164.623C164.717 4.09458 164.794 4.12574 164.857 4.18805L166.384 5.71481C166.446 5.77713 166.477 5.85502 166.477 5.9485V13.1461C166.477 13.2396 166.446 13.3174 166.384 13.3798L164.857 14.9065C164.794 14.9688 164.717 15 164.623 15H160.541ZM161.18 13.4421H161.803V10.3262H163.361V13.4421H163.984L164.919 12.5073V6.58725L163.984 5.65249H161.18L160.245 6.58725V12.5073L161.18 13.4421ZM171.752 15C171.659 15 171.581 14.9688 171.519 14.9065L169.992 13.3798C169.93 13.3174 169.898 13.2396 169.898 13.1461V4.09458H171.456V12.5073L172.391 13.4421H175.195L176.13 12.5073V4.09458H177.688V13.1461C177.688 13.2396 177.657 13.3174 177.594 13.3798L176.068 14.9065C176.005 14.9688 175.928 15 175.834 15H171.752ZM181.109 13.4421H184.225V5.65249H181.109V4.09458H188.899V5.65249H185.783V13.4421H188.899V15H181.109V13.4421ZM192.32 12.4139C192.32 12.3204 192.351 12.2425 192.414 12.1802L198.552 6.04197V5.65249H192.32V4.09458H200.11V6.68072C200.11 6.7742 200.079 6.85209 200.016 6.91441L193.878 13.0526V13.4421H200.11V15H192.32V12.4139ZM214.742 4.09458H220.678C220.771 4.09458 220.849 4.12574 220.911 4.18805L222.438 5.71481C222.5 5.77713 222.532 5.85502 222.532 5.9485V8.9397C222.532 9.03318 222.5 9.11107 222.438 9.17339L220.927 10.6846C220.854 10.7573 220.771 10.7936 220.678 10.7936H219.805L222.438 13.4265C222.5 13.4888 222.532 13.5667 222.532 13.6602V15H220.974V14.1743L218.247 11.4479V10.7936H216.3V15H214.742V4.09458ZM220.039 9.23571L220.974 8.28538V6.58725L220.039 5.65249H216.3V9.23571H220.039ZM225.953 4.09458H233.743V5.65249H227.511V8.76833H232.185V10.3262H227.511V13.4421H233.743V15H225.953V4.09458ZM239.018 15C238.924 15 238.846 14.9688 238.784 14.9065L237.257 13.3798C237.195 13.3174 237.164 13.2396 237.164 13.1461V11.1052H238.722V12.5073L239.657 13.4421H242.461L243.396 12.5073V11.261L242.461 10.3262H239.018C238.924 10.3262 238.846 10.2951 238.784 10.2328L237.257 8.70601C237.195 8.6437 237.164 8.5658 237.164 8.47233V5.9485C237.164 5.85502 237.195 5.77713 237.257 5.71481L238.784 4.18805C238.846 4.12574 238.924 4.09458 239.018 4.09458H243.1C243.193 4.09458 243.271 4.12574 243.333 4.18805L244.86 5.71481C244.922 5.77713 244.953 5.85502 244.953 5.9485V7.98937H243.396V6.58725L242.461 5.65249H239.657L238.722 6.58725V7.83358L239.657 8.76833H243.1C243.193 8.76833 243.271 8.79949 243.333 8.8618L244.86 10.3886C244.922 10.4509 244.953 10.5288 244.953 10.6223V13.1461C244.953 13.2396 244.922 13.3174 244.86 13.3798L243.333 14.9065C243.271 14.9688 243.193 15 243.1 15H239.018ZM250.229 15C250.135 15 250.057 14.9688 249.995 14.9065L248.468 13.3798C248.406 13.3174 248.375 13.2396 248.375 13.1461V4.09458H249.933V12.5073L250.867 13.4421H253.672L254.606 12.5073V4.09458H256.164V13.1461C256.164 13.2396 256.133 13.3174 256.071 13.3798L254.544 14.9065C254.482 14.9688 254.404 15 254.31 15H250.229ZM259.586 4.09458H261.144V13.4421H267.375V15H259.586V4.09458ZM273.912 5.65249H270.797V4.09458H278.586V5.65249H275.47V15H273.912V5.65249ZM283.861 15C283.768 15 283.69 14.9688 283.628 14.9065L282.101 13.3798C282.039 13.3174 282.008 13.2396 282.008 13.1461V11.1052H283.565V12.5073L284.5 13.4421H287.304L288.239 12.5073V11.261L287.304 10.3262H283.861C283.768 10.3262 283.69 10.2951 283.628 10.2328L282.101 8.70601C282.039 8.6437 282.008 8.5658 282.008 8.47233V5.9485C282.008 5.85502 282.039 5.77713 282.101 5.71481L283.628 4.18805C283.69 4.12574 283.768 4.09458 283.861 4.09458H287.943C288.037 4.09458 288.115 4.12574 288.177 4.18805L289.704 5.71481C289.766 5.77713 289.797 5.85502 289.797 5.9485V7.98937H288.239V6.58725L287.304 5.65249H284.5L283.565 6.58725V7.83358L284.5 8.76833H287.943C288.037 8.76833 288.115 8.79949 288.177 8.8618L289.704 10.3886C289.766 10.4509 289.797 10.5288 289.797 10.6223V13.1461C289.797 13.2396 289.766 13.3174 289.704 13.3798L288.177 14.9065C288.115 14.9688 288.037 15 287.943 15H283.861Z" fill="#8F7E77"/>
</svg>
