<svg width="822" height="821" viewBox="0 0 822 821" fill="none" xmlns="http://www.w3.org/2000/svg">
<path opacity="0.74" d="M741.126 110.32L741.3 110.418L741.466 110.122H741.126V110.32ZM386.083 727.007L385.912 727.102L386.083 727.402L386.255 727.102L386.083 727.007ZM29.5341 110.32V110.122H29.191L29.3626 110.419L29.5341 110.32ZM-46.6575 68.1062V67.9086H-47L-46.8286 68.205L-46.6575 68.1062ZM821.66 68.1062L821.826 68.205L822 67.9086H821.66V68.1062ZM388.418 820.605L388.247 820.708L388.418 821L388.589 820.708L388.418 820.605ZM262.116 110.32V110.122H261.774L261.945 110.419L262.116 110.32ZM630.62 110.32L630.791 110.418L630.962 110.122H630.62V110.32ZM446.758 429.674L446.587 429.773L446.758 430.069L446.929 429.772L446.758 429.674ZM741.126 110.122H628.902V110.518H741.126V110.122ZM386.255 727.102L741.3 110.418L740.96 110.221L385.912 726.904L386.255 727.102ZM29.3626 110.419L385.912 727.102L386.254 726.904L29.7049 110.221L29.3626 110.419ZM415.954 110.122H29.5341V110.518H415.954V110.122ZM628.902 110.122H415.954V110.518H628.902V110.122ZM702.135 315.881C702.135 490.119 560.857 631.37 386.582 631.37V631.765C561.075 631.765 702.53 490.337 702.53 315.881H702.135ZM386.582 631.37C356.678 631.37 327.745 627.205 300.331 619.435L300.222 619.815C327.671 627.6 356.64 631.765 386.582 631.765V631.37ZM282.246 613.714C268.095 608.759 254.405 602.824 241.256 595.991L241.074 596.342C254.239 603.183 267.947 609.125 282.115 614.087L282.246 613.714ZM223.02 585.732C220.457 584.176 217.918 582.584 215.403 580.958L215.188 581.289C217.706 582.918 220.249 584.512 222.815 586.07L223.02 585.732ZM200.014 570.345C190.228 563.161 180.873 555.427 171.992 547.188L171.723 547.477C180.615 555.727 189.982 563.471 199.78 570.663L200.014 570.345ZM160.328 535.795C152.449 527.695 145.002 519.172 138.024 510.265L137.712 510.509C144.699 519.427 152.156 527.96 160.045 536.071L160.328 535.795ZM127.883 496.58C123.459 490.259 119.259 483.769 115.298 477.12L114.958 477.323C118.925 483.979 123.129 490.478 127.559 496.806L127.883 496.58ZM107.556 463.356C103.482 455.668 99.7174 447.791 96.2769 439.742L95.914 439.898C99.3577 447.957 103.128 455.843 107.206 463.541L107.556 463.356ZM92.3581 430.135C89.8259 423.621 87.5033 417.003 85.3996 410.287L85.0225 410.405C87.1286 417.129 89.4536 423.756 91.9897 430.278L92.3581 430.135ZM82.5481 400.645C81.3923 396.493 80.3195 392.306 79.3321 388.087L78.9471 388.177C79.9361 392.401 81.0104 396.593 82.167 400.751L82.5481 400.645ZM77.2276 378.419C74.9429 367.059 73.2685 355.478 72.24 343.711L71.8463 343.746C72.8756 355.527 74.5524 367.122 76.8403 378.496L77.2276 378.419ZM71.5404 333.997C71.2012 328.002 71.0289 321.962 71.0289 315.881H70.6336C70.6336 321.969 70.8059 328.016 71.1459 334.019L71.5404 333.997ZM71.0289 315.881C71.0289 314.27 71.0407 312.663 71.0652 311.057L70.67 311.052C70.6454 312.659 70.6336 314.269 70.6336 315.881H71.0289ZM71.3593 301.309C71.4289 299.778 71.5095 298.248 71.6012 296.722L71.2067 296.698C71.115 298.226 71.0344 299.758 70.9648 301.291L71.3593 301.309ZM73.561 275.721C93.2925 120.446 225.915 0.395194 386.582 0.395194V0C225.713 0 92.9249 120.201 73.1689 275.672L73.561 275.721ZM386.582 0.395194C554.55 0.395194 691.867 131.604 701.585 297.099L701.979 297.076C692.248 131.374 554.76 0 386.582 0V0.395194ZM701.738 299.922C702.001 305.208 702.135 310.529 702.135 315.881H702.53C702.53 310.523 702.397 305.196 702.133 299.903L701.738 299.922ZM-46.6575 68.3038H-35.5692V67.9086H-46.6575V68.3038ZM-31.8769 68.3038H-20.8148V67.9086H-31.8769V68.3038ZM1.33947 68.3038H30.886V67.9086H1.33947V68.3038ZM53.0398 68.3038H67.7971V67.9086H53.0398V68.3038ZM82.5663 68.3038H101.058V67.9086H82.5663V68.3038ZM126.905 68.3038H149.058V67.9086H126.905V68.3038ZM171.212 68.3038H200.74V67.9086H171.212V68.3038ZM204.433 68.3038H215.512V67.9086H204.433V68.3038ZM219.204 68.3038H233.968V67.9086H219.204V68.3038ZM259.815 68.3038H274.599V67.9086H259.815V68.3038ZM285.676 68.3038H296.756V67.9086H285.676V68.3038ZM300.448 68.3038H307.826V67.9086H300.448V68.3038ZM315.21 68.3038H326.281V67.9086H315.21V68.3038ZM348.436 68.3038H359.509V67.9086H348.436V68.3038ZM370.586 68.3038H381.683V67.9086H370.586V68.3038ZM422.299 68.3038H433.366V67.9086H422.299V68.3038ZM451.828 68.3038H462.892V67.9086H451.828V68.3038ZM492.431 68.3038H507.223V67.9086H492.431V68.3038ZM529.378 68.3038H547.82V67.9086H529.378V68.3038ZM562.589 68.3038H603.205V67.9086H562.589V68.3038ZM625.359 68.3038H643.835V67.9086H625.359V68.3038ZM654.912 68.3038H669.659V67.9086H654.912V68.3038ZM677.044 68.3038H691.833V67.9086H677.044V68.3038ZM713.988 68.3038H732.447V67.9086H713.988V68.3038ZM750.905 68.3038H761.989V67.9086H750.905V68.3038ZM773.065 68.3038H787.832V67.9086H773.065V68.3038ZM795.216 68.3038H806.284V67.9086H795.216V68.3038ZM817.367 68.3038H821.66V67.9086H817.367V68.3038ZM821.486 68.0074L819.723 71.0725L820.063 71.2693L821.826 68.205L821.486 68.0074ZM814.197 80.671L808.703 90.2094L809.043 90.4062L814.537 80.8678L814.197 80.671ZM805.019 96.6084L797.659 109.398L797.999 109.594L805.359 96.8052L805.019 96.6084ZM792.133 118.995L786.615 128.572L786.963 128.768L792.473 119.193L792.133 118.995ZM777.405 144.568L768.155 160.633L768.503 160.83L777.753 144.766L777.405 144.568ZM757.103 179.829L749.759 192.591L750.099 192.788L757.451 180.027L757.103 179.829ZM746.075 198.99L738.739 211.735L739.079 211.932L746.415 199.187L746.075 198.99ZM733.211 221.333L723.963 237.397L724.305 237.595L733.554 221.53L733.211 221.333ZM712.91 256.594L692.636 291.808L692.979 292.006L713.253 256.791L712.91 256.594ZM685.268 304.606L676.084 320.559L676.426 320.757L685.611 304.803L685.268 304.606ZM665.031 339.756L657.669 352.544L658.012 352.742L665.374 339.953L665.031 339.756ZM642.933 378.14L637.415 387.723L637.758 387.92L643.275 378.337L642.933 378.14ZM628.205 403.72L622.675 413.326L623.018 413.523L628.548 403.917L628.205 403.72ZM614.522 427.485L596.856 458.171L597.198 458.369L614.865 427.683L614.522 427.485ZM591.33 467.77L585.826 477.329L586.169 477.526L591.672 467.967L591.33 467.77ZM574.774 496.525L569.229 506.157L569.572 506.354L575.117 496.723L574.774 496.525ZM565.545 512.556L561.869 518.94L562.212 519.137L565.888 512.753L565.545 512.556ZM560.027 522.14L554.486 531.765L554.828 531.962L560.37 522.337L560.027 522.14ZM548.96 541.363L541.619 554.114L541.961 554.311L549.302 541.561L548.96 541.363ZM528.725 576.51L521.332 589.351L521.675 589.548L529.067 576.707L528.725 576.51ZM519.49 592.55L513.995 602.094L514.338 602.291L519.832 592.747L519.49 592.55ZM512.153 605.293L497.412 630.896L497.754 631.093L512.495 605.49L512.153 605.293ZM486.359 650.094L475.297 669.309L475.64 669.506L486.702 650.292L486.359 650.094ZM462.403 691.708L453.186 707.714L453.529 707.911L462.746 691.906L462.403 691.708ZM445.818 720.51L438.462 733.291L438.805 733.488L446.16 720.708L445.818 720.51ZM427.41 752.481L412.678 778.074L413.021 778.272L427.753 752.679L427.41 752.481ZM401.625 797.273L396.091 806.884L396.433 807.081L401.969 797.47L401.625 797.273ZM393.623 811.168L388.246 820.51L388.589 820.708L393.965 811.365L393.623 811.168ZM388.588 820.51L385.886 815.831L385.544 816.028L388.247 820.708L388.588 820.51ZM380.342 806.243L374.799 796.656L374.457 796.854L380.001 806.441L380.342 806.243ZM371.104 790.27L363.742 777.537L363.4 777.734L370.761 790.467L371.104 790.27ZM358.199 767.949L352.673 758.385L352.33 758.583L357.856 768.147L358.199 767.949ZM343.433 742.412L334.157 726.367L333.815 726.564L343.091 742.609L343.433 742.412ZM323.069 707.184L315.693 694.427L315.35 694.625L322.727 707.382L323.069 707.184ZM311.997 688.033L304.611 675.26L304.268 675.458L311.655 688.231L311.997 688.033ZM299.067 665.673L289.823 649.683L289.481 649.881L298.725 665.87L299.067 665.673ZM278.736 630.508L258.393 595.324L258.051 595.521L278.393 630.706L278.736 630.508ZM251.001 582.539L241.754 566.544L241.411 566.742L250.659 582.737L251.001 582.539ZM230.666 547.368L223.281 534.593L222.938 534.791L230.324 547.565L230.666 547.368ZM208.497 509.024L202.973 499.468L202.63 499.667L208.155 509.223L208.497 509.024ZM193.733 483.488L188.193 473.907L187.851 474.104L193.391 483.686L193.733 483.488ZM167.867 438.75L162.308 429.136L161.966 429.334L167.524 438.948L167.867 438.75ZM156.765 419.548L151.248 410.007L150.906 410.204L156.422 419.746L156.765 419.548ZM140.161 390.83L134.59 381.194L134.247 381.392L139.818 391.028L140.161 390.83ZM130.894 374.802L127.21 368.431L126.867 368.628L130.551 375L130.894 374.802ZM125.362 365.234L119.808 355.629L119.466 355.827L125.02 365.432L125.362 365.234ZM114.264 346.041L106.866 333.243L106.523 333.442L113.922 346.238L114.264 346.041ZM93.9305 310.872L86.5443 298.096L86.202 298.294L93.589 311.069L93.9305 310.872ZM84.6968 294.9L82.1552 290.504L81.8129 290.702L84.3545 295.098L84.6968 294.9ZM77.3138 282.131L62.5138 256.532L62.1715 256.731L76.9715 282.328L77.3138 282.131ZM51.4262 237.357L40.3584 218.214L40.0169 218.412L51.0847 237.554L51.4262 237.357ZM27.4241 195.842L18.1817 179.857L17.8395 180.054L27.0818 196.039L27.4241 195.842ZM10.7903 167.072L3.4116 154.311L3.06937 154.508L10.448 167.27L10.7903 167.072ZM-7.67556 135.134L-22.4846 109.52L-22.8268 109.719L-8.01779 135.332L-7.67556 135.134ZM-33.5717 90.3445L-39.0947 80.7919L-39.437 80.9895L-33.914 90.5421L-33.5717 90.3445ZM-40.9427 77.5956L-46.4864 68.0074L-46.8286 68.205L-41.2848 77.7932L-40.9427 77.5956ZM262.116 110.518H630.62V110.122H262.116V110.518ZM630.449 110.221L446.586 429.575L446.929 429.772L630.791 110.418L630.449 110.221ZM446.928 429.575L262.287 110.221L261.945 110.419L446.587 429.773L446.928 429.575ZM385.998 381.678C396.161 381.678 405.789 379.369 414.373 375.249L414.202 374.893C405.67 378.988 396.101 381.283 385.998 381.283V381.678ZM348.024 258.924C329.773 270.608 320.297 292.763 320.297 315.992H320.692C320.692 292.859 330.13 270.85 348.238 259.257L348.024 258.924ZM320.297 315.992C320.297 352.266 349.708 381.678 385.998 381.678V381.283C349.927 381.283 320.692 352.048 320.692 315.992H320.297ZM591.989 314.046C591.989 426.451 500.847 517.574 388.418 517.574V517.969C501.066 517.969 592.384 426.67 592.384 314.046H591.989ZM388.418 517.574C275.988 517.574 184.846 426.451 184.846 314.046H184.451C184.451 426.67 275.77 517.969 388.418 517.969V517.574ZM184.846 314.046C184.846 201.64 275.988 110.518 388.418 110.518V110.122C275.77 110.122 184.451 201.422 184.451 314.046H184.846ZM388.418 110.518C500.847 110.518 591.989 201.64 591.989 314.046H592.384C592.384 201.422 501.066 110.122 388.418 110.122V110.518Z" fill="#8F7E77"/>
</svg>
