<svg width="1600" height="1168" viewBox="0 0 1600 1168" fill="none" xmlns="http://www.w3.org/2000/svg">
<path d="M732.417 1.94141L497 1167.03" stroke="#8F7E77" stroke-width="0.326451"/>
<path d="M801.168 1.94141L732.418 1165.73" stroke="#8F7E77" stroke-width="0.326451"/>
<path d="M859.918 1.94141L965.335 1165.73" stroke="#8F7E77" stroke-width="0.326451"/>
<path d="M939.5 1.94141L1232 1166.17" stroke="#8F7E77" stroke-width="0.326451"/>
<path d="M1004.08 1.94141L1535.75 1166.17" stroke="#8F7E77" stroke-width="0.326451"/>
<path d="M1088.25 1.94141L1637.42 826.114" stroke="#8F7E77" stroke-width="0.326451"/>
<path d="M1174.92 1.94141L1637 496.878" stroke="#8F7E77" stroke-width="0.326451"/>
<path d="M1299.08 1.94141L1637.42 253.736" stroke="#8F7E77" stroke-width="0.326451"/>
<path d="M1477 1.94141L1637.42 88.4692" stroke="#8F7E77" stroke-width="0.326451"/>
<path d="M659.083 1.94141L237 1164.44" stroke="#8F7E77" stroke-width="0.326451"/>
<path d="M576.585 1.94141L-52.582 1165.73" stroke="#8F7E77" stroke-width="0.326451"/>
<path d="M491.583 1.94141L-73 727.473" stroke="#8F7E77" stroke-width="0.326451"/>
<path d="M390.335 1.94141L-72.582 464.863" stroke="#8F7E77" stroke-width="0.326451"/>
<path d="M273.668 1.94141L-72.582 261.523" stroke="#8F7E77" stroke-width="0.326451"/>
<path d="M113.668 1.94141L-72.582 102.746" stroke="#8F7E77" stroke-width="0.326451"/>
<path d="M384.918 1.94141C503.251 56.4539 802.001 242.056 1237 1.94141" stroke="#8F7E77" stroke-width="0.326451"/>
<path d="M149.082 1.07666C342.415 130.435 812.415 529.759 1509.92 2.37457" stroke="#8F7E77" stroke-width="0.537572"/>
<path d="M-72.582 39.1484C218.251 394.343 920.751 727.041 1637.83 152.499" stroke="#8F7E77" stroke-width="0.537572"/>
<path d="M-72.582 356.704C307.001 655.223 912.418 825.682 1637.42 425.493" stroke="#8F7E77" stroke-width="0.537572"/>
<path d="M-72.582 605.037C182.835 781.12 865.335 1061.04 1637.83 651.762" stroke="#8F7E77" stroke-width="0.537572"/>
<path d="M-72.582 913.939C261.168 1087.86 826.168 1306.77 1637.83 945.955" stroke="#8F7E77" stroke-width="0.537572"/>
</svg>
