<svg width="461" height="19" viewBox="0 0 461 19" fill="none" xmlns="http://www.w3.org/2000/svg">
<line x1="320.75" x2="320.75" y2="19" stroke="#8F7E77" stroke-width="1.5"/>
<circle cx="334.5" cy="9.5" r="3.9375" stroke="#8F7E77" stroke-width="1.125"/>
<line x1="338" y1="9.5" x2="353" y2="9.5" stroke="#8F7E77"/>
<line x1="403" y1="9.5" x2="418" y2="9.5" stroke="#8F7E77"/>
<line x1="359" y1="9.5" x2="364" y2="9.5" stroke="#8F7E77"/>
<line x1="424" y1="9.5" x2="429" y2="9.5" stroke="#8F7E77"/>
<line x1="370" y1="9.5" x2="385" y2="9.5" stroke="#8F7E77"/>
<line x1="435" y1="9.5" x2="450" y2="9.5" stroke="#8F7E77"/>
<line x1="387" y1="9.5" x2="396" y2="9.5" stroke="#8F7E77"/>
<line x1="452" y1="9.5" x2="461" y2="9.5" stroke="#8F7E77"/>
<line x1="140.25" y1="19" x2="140.25" stroke="#8F7E77" stroke-width="1.5"/>
<circle cx="126.5" cy="9.5" r="3.9375" transform="rotate(-180 126.5 9.5)" stroke="#8F7E77" stroke-width="1.125"/>
<line x1="123" y1="9.5" x2="108" y2="9.5" stroke="#8F7E77"/>
<line x1="58" y1="9.5" x2="43" y2="9.5" stroke="#8F7E77"/>
<line x1="102" y1="9.5" x2="97" y2="9.5" stroke="#8F7E77"/>
<line x1="37" y1="9.5" x2="32" y2="9.5" stroke="#8F7E77"/>
<line x1="91" y1="9.5" x2="76" y2="9.5" stroke="#8F7E77"/>
<line x1="26" y1="9.5" x2="11" y2="9.5" stroke="#8F7E77"/>
<line x1="74" y1="9.5" x2="65" y2="9.5" stroke="#8F7E77"/>
<line x1="9" y1="9.5" y2="9.5" stroke="#8F7E77"/>
<path d="M163.178 7.944C163.178 7.848 163.21 7.768 163.274 7.704L166.378 4.6V3.8H167.978V4.6L171.082 7.704C171.146 7.768 171.178 7.848 171.178 7.944V15H169.578V11.8H164.778V15H163.178V7.944ZM169.578 10.2V8.6L167.178 6.2L164.778 8.6V10.2H169.578ZM174.691 3.8H180.787C180.883 3.8 180.963 3.832 181.027 3.896L182.595 5.464C182.659 5.528 182.691 5.608 182.691 5.704V8.456C182.691 8.552 182.659 8.632 182.595 8.696L181.891 9.4L182.595 10.104C182.659 10.168 182.691 10.248 182.691 10.344V13.096C182.691 13.192 182.659 13.272 182.595 13.336L181.027 14.904C180.963 14.968 180.883 15 180.787 15H174.691V3.8ZM180.131 13.4L181.091 12.44V11L180.291 10.2H176.291V13.4H180.131ZM180.291 8.6L181.091 7.8V6.36L180.131 5.4H176.291V8.6H180.291ZM188.109 15C188.013 15 187.933 14.968 187.869 14.904L186.301 13.336C186.237 13.272 186.205 13.192 186.205 13.096V5.704C186.205 5.608 186.237 5.528 186.301 5.464L187.869 3.896C187.933 3.832 188.013 3.8 188.109 3.8H192.301C192.397 3.8 192.477 3.832 192.541 3.896L194.109 5.464C194.173 5.528 194.205 5.608 194.205 5.704V13.096C194.205 13.192 194.173 13.272 194.109 13.336L192.541 14.904C192.477 14.968 192.397 15 192.301 15H188.109ZM188.765 13.4H191.645L192.605 12.44V6.36L191.645 5.4H188.765L187.805 6.36V12.44L188.765 13.4ZM199.623 15C199.527 15 199.447 14.968 199.383 14.904L197.815 13.336C197.751 13.272 197.719 13.192 197.719 13.096V3.8H199.319V12.44L200.279 13.4H203.159L204.119 12.44V3.8H205.719V13.096C205.719 13.192 205.687 13.272 205.623 13.336L204.055 14.904C203.991 14.968 203.911 15 203.815 15H199.623ZM212.433 5.4H209.233V3.8H217.233V5.4H214.033V15H212.433V5.4ZM232.356 11.896C232.292 11.832 232.26 11.752 232.26 11.656V3.8H233.86V11L236.26 13.4L238.66 11V3.8H240.26V11.656C240.26 11.752 240.228 11.832 240.164 11.896L237.06 15H235.46L232.356 11.896ZM243.774 13.4H246.974V5.4H243.774V3.8H251.774V5.4H248.574V13.4H251.774V15H243.774V13.4ZM255.288 3.8H256.888V8.6H261.688V3.8H263.288V15H261.688V10.2H256.888V15H255.288V3.8ZM266.801 7.944C266.801 7.848 266.833 7.768 266.897 7.704L270.001 4.6V3.8H271.601V4.6L274.705 7.704C274.769 7.768 274.801 7.848 274.801 7.944V15H273.201V11.8H268.401V15H266.801V7.944ZM273.201 10.2V8.6L270.801 6.2L268.401 8.6V10.2H273.201ZM278.315 7.944C278.315 7.848 278.347 7.768 278.411 7.704L281.515 4.6V3.8H283.115V4.6L286.219 7.704C286.283 7.768 286.315 7.848 286.315 7.944V15H284.715V11.8H279.915V15H278.315V7.944ZM284.715 10.2V8.6L282.315 6.2L279.915 8.6V10.2H284.715ZM289.829 3.8H291.429V6.6H292.229L296.229 10.6V3.8H297.829V15H296.229V12.2H295.429L291.429 8.2V15H289.829V3.8Z" fill="#8F7E77"/>
</svg>
