<svg width="735" height="846" viewBox="0 0 735 846" fill="none" xmlns="http://www.w3.org/2000/svg">
<path opacity="0.4" fill-rule="evenodd" clip-rule="evenodd" d="M369.27 3.35498C354.427 5.23045 339.823 7.8759 325.501 11.2501L325.745 11.6486C340.019 8.29093 354.574 5.65774 369.366 3.79016L369.27 3.35498ZM387.92 1.86206C399.414 0.922683 411.038 0.443755 422.774 0.443755C425.502 0.443755 428.223 0.469621 430.938 0.52113L431 0.0784766C428.265 0.0262353 425.522 0 422.774 0C411.005 0 399.349 0.481107 387.823 1.42473L387.92 1.86206ZM445.99 0.626953L445.929 1.068C463.154 1.9992 480.106 3.96323 496.722 6.89915L496.784 6.45945C480.167 3.5241 463.217 1.55967 445.99 0.626953ZM539.274 16.263L539.211 16.7068C555.474 21.3639 571.336 26.972 586.731 33.4672L586.905 33.0587C571.474 26.5485 555.575 20.9285 539.274 16.263ZM626.051 52.0154L625.877 52.426C636.72 58.389 647.275 64.8146 657.512 71.6762L657.787 71.3271C647.518 64.4425 636.931 57.9964 626.051 52.0154ZM665.286 76.4721L665.01 76.8207C668.884 79.5396 672.71 82.3219 676.487 85.1658L676.762 84.818C672.985 81.9733 669.159 79.191 665.286 76.4721ZM683.951 90.3538L683.676 90.7024C690.776 96.2915 697.692 102.104 704.414 108.129L704.739 107.824C698.002 101.785 691.068 95.9569 683.951 90.3538ZM728.605 130.964L728.282 131.268C736.037 139.4 743.472 147.841 750.565 156.571L750.928 156.313C743.822 147.567 736.374 139.111 728.605 130.964ZM770.847 182.895L770.486 183.152C777.024 192.631 783.186 202.391 788.949 212.409L789.34 212.199C783.568 202.164 777.397 192.39 770.847 182.895ZM804.749 241.615L804.358 241.826C811.05 255.929 816.983 270.464 822.105 285.376L822.517 285.208C817.386 270.281 811.45 255.734 804.749 241.615ZM832.095 317.166L831.676 317.335C833.978 326.289 835.984 335.358 837.702 344.531L838.138 344.453C836.42 335.249 834.397 326.15 832.095 317.166ZM842.948 377.325L842.512 377.403C843.729 388.824 844.485 400.381 844.773 412.057H845.217C844.929 400.355 844.173 388.772 842.948 377.325ZM845.258 431.211H844.814C844.576 443.218 843.836 455.101 842.61 466.841L843.046 466.888C844.271 455.133 845.02 443.233 845.258 431.211ZM838.311 499.779L837.867 499.732C836 509.838 833.772 519.819 831.199 529.66L831.634 529.749C834.208 519.894 836.444 509.9 838.311 499.779ZM827.31 545.085L826.874 544.996C824.72 552.132 822.377 559.187 819.853 566.157L820.297 566.247C822.812 559.277 825.156 552.221 827.31 545.085ZM814.525 581.289L814.081 581.198C810.113 590.985 805.786 600.589 801.118 609.993L801.542 610.138C806.217 600.715 810.55 591.094 814.525 581.289ZM792.401 627.53L791.974 627.384C787.037 636.266 781.787 644.952 776.242 653.425L776.619 653.659C782.183 645.157 787.449 636.442 792.401 627.53ZM765.606 669.674L765.228 669.44C759.695 677.101 753.912 684.569 747.89 691.832L748.217 692.133C754.258 684.849 760.057 677.358 765.606 669.674ZM735.481 706.796L735.154 706.496C728.388 713.936 721.36 721.133 714.083 728.073L714.378 728.406C721.665 721.456 728.705 714.248 735.481 706.796ZM700.026 741.482L699.731 741.15C693.996 746.141 688.124 750.978 682.123 755.658L682.418 755.99C688.419 751.311 694.29 746.473 700.026 741.482ZM655.132 775.582L654.835 775.247C647.594 780.021 640.197 784.578 632.655 788.909L632.856 789.304C640.432 784.956 647.861 780.378 655.132 775.582ZM625.851 793.238L625.65 792.842C619.681 796.119 613.624 799.258 607.483 802.25L607.684 802.646C613.824 799.653 619.882 796.516 625.851 793.238ZM600.433 806.095L600.231 805.699C591.657 809.677 582.926 813.376 574.051 816.781L574.254 817.184C583.128 813.773 591.858 810.073 600.433 806.095ZM555.709 823.81L555.506 823.408C546.045 826.54 536.434 829.344 526.69 831.81L526.779 832.246C536.563 829.771 546.211 826.951 555.709 823.81ZM507.732 836.604L507.642 836.168C500.076 837.714 492.436 839.054 484.728 840.188L484.745 840.632C492.477 839.498 500.141 838.149 507.732 836.604ZM465.778 842.984L465.76 842.54C457.83 843.337 449.836 843.921 441.783 844.283L441.8 844.727C449.853 844.365 457.848 843.781 465.778 842.984ZM417.66 845.113L417.644 844.669C406.303 844.538 395.069 843.954 383.958 842.943L383.898 843.378C395.033 844.398 406.293 844.982 417.66 845.113ZM372.078 842.137L372.139 841.693C366.412 841.01 360.72 840.213 355.067 839.3L355.006 839.736C360.66 840.649 366.351 841.446 372.078 842.137ZM347.421 838.445L347.481 838.001C340.185 836.694 332.954 835.189 325.793 833.504L325.682 833.94C332.86 835.625 340.107 837.13 347.421 838.445ZM306.036 828.809L306.147 828.382C298.307 826.137 290.56 823.662 282.913 820.982L282.758 821.393C290.419 824.082 298.18 826.557 306.036 828.809ZM255.38 810.693L255.536 810.276C245.767 806.056 236.19 801.479 226.82 796.559L226.61 796.951C235.997 801.879 245.593 806.466 255.38 810.693ZM209.356 787.37L209.567 786.978C200.835 781.859 192.303 776.434 183.987 770.719L183.776 771.112C192.093 776.826 200.625 782.25 209.356 787.37ZM164.516 757.068L164.729 756.671C154.758 748.958 145.14 740.808 135.907 732.251L135.619 732.59C144.876 741.168 154.518 749.337 164.516 757.068ZM126.751 724.13L127.039 723.791C120.366 717.239 113.909 710.466 107.681 703.485L107.359 703.79C113.598 710.784 120.066 717.568 126.751 724.13ZM92.4743 686.168L92.7983 685.861C87.1491 678.791 81.7235 671.535 76.5298 664.105L76.1631 664.354C81.3691 671.805 86.8103 679.08 92.4743 686.168ZM63.4874 645.124L63.8549 644.874C59.8797 638.47 56.0712 631.951 52.4353 625.324L52.0275 625.503C55.6758 632.154 59.4978 638.697 63.4874 645.124ZM41.49 604.979L41.8964 604.8C36.567 593.681 31.7101 582.293 27.3518 570.66L26.9449 570.84C31.3039 582.471 36.1609 593.86 41.49 604.979ZM15.021 533.901L15.4317 533.72C13.2327 525.642 11.2675 517.468 9.54401 509.204L9.10941 509.295C10.8394 517.589 12.8125 525.793 15.021 533.901ZM2.96238 471.136L3.39871 471.046C2.53378 463.481 1.86888 455.855 1.40928 448.173H14.778V447.729H1.38297C1.06101 442.252 0.84354 436.745 0.732464 431.213L0.289062 431.239C0.400221 436.763 0.617359 442.26 0.938502 447.729H0.423818V448.173H0.96473C1.42564 455.885 2.09334 463.541 2.96238 471.136ZM0.428422 408.606L0.873221 408.581C1.01579 404.203 1.22503 399.842 1.49989 395.499H9.98848V395.055H1.52825C1.94099 388.64 2.49711 382.263 3.19341 375.929L2.75009 375.9C2.05305 382.244 1.49652 388.63 1.08353 395.055H0.423818V395.499H1.05525C0.780068 399.851 0.570824 404.22 0.428422 408.606ZM5.82488 353.466L6.26993 353.495C8.335 340.949 10.9531 328.59 14.0985 316.444L13.6646 316.349C10.5142 328.517 7.89225 340.898 5.82488 353.466ZM26.9594 274.266L27.3974 274.362C31.5741 263.225 36.2079 252.312 41.2759 241.644L40.8712 241.461C35.7902 252.156 31.1453 263.099 26.9594 274.266ZM50.2398 222.934L50.6454 223.118C55.0784 214.864 59.778 206.774 64.7327 198.862L64.3244 198.678C59.3709 206.591 54.6722 214.68 50.2398 222.934ZM71.4864 187.622L71.8966 187.807C75.863 181.891 79.9739 176.082 84.2262 170.382L83.8283 170.173C79.5719 175.88 75.456 181.698 71.4864 187.622ZM97.3375 153.002L97.7396 153.214C102.515 147.457 107.44 141.83 112.51 136.337L112.144 136.079C107.061 141.587 102.124 147.231 97.3375 153.002ZM116.083 131.868L116.451 132.125C121.394 126.914 126.469 121.828 131.671 116.873L131.366 116.551C126.143 121.526 121.047 126.633 116.083 131.868ZM145.531 103.653L145.836 103.976C156.475 94.7204 167.582 85.9888 179.117 77.8221L178.809 77.4957C167.276 85.6649 156.17 94.3972 145.531 103.653ZM194.906 66.6409L195.216 66.9692C206.095 59.9921 217.317 53.5009 228.849 47.5258L228.617 47.1463C217.058 53.1366 205.81 59.645 194.906 66.6409ZM262.899 31.2904L263.134 31.674C277.383 25.8488 292.021 20.7802 306.999 16.5178L306.758 16.1247C291.783 20.3913 277.147 25.4631 262.899 31.2904ZM19.5656 395.055V395.499H29.1398V395.055H19.5656ZM57.8711 395.055V395.499H71.615C71.4365 397.847 71.2811 400.201 71.1489 402.562L71.5931 402.566C71.7255 400.204 71.8813 397.848 72.06 395.499H72.2521V395.055H72.0941C72.4984 389.83 73.0169 384.637 73.6471 379.479L73.2048 379.44C72.5732 384.611 72.0538 389.817 71.649 395.055H57.8711ZM74.4965 369.939L74.9389 369.979C76.1442 361.944 77.6208 353.996 79.3589 346.149L78.9338 346.017C77.1875 353.895 75.7051 361.872 74.4965 369.939ZM83.8184 326.622L84.2427 326.753C86.1641 319.952 88.2853 313.234 90.5989 306.606L90.1985 306.405C87.8759 313.055 85.7472 319.796 83.8184 326.622ZM97.3572 287.656L97.7552 287.854C103.341 274.395 109.738 261.356 116.886 248.801L116.504 248.574C109.351 261.139 102.948 274.186 97.3572 287.656ZM126.875 231.505L127.257 231.732C129.874 227.687 132.573 223.699 135.349 219.771L135.007 219.485C132.217 223.433 129.505 227.44 126.875 231.505ZM138.754 214.287L139.095 214.573C141.168 211.751 143.282 208.961 145.436 206.204L145.095 205.919C142.941 208.676 140.827 211.466 138.754 214.287ZM157.831 190.534L158.171 190.819C164.904 183.138 171.966 175.754 179.334 168.686L178.991 168.4C171.624 175.468 164.563 182.853 157.831 190.534ZM193.935 154.859L194.281 155.147C203.732 147.064 213.617 139.474 223.896 132.416L223.66 132.038C213.342 139.123 203.42 146.744 193.935 154.859ZM240.44 121.203L240.675 121.579C248.276 116.971 256.065 112.643 264.028 108.609L263.822 108.216C255.849 112.255 248.05 116.589 240.44 121.203ZM269.55 105.378L269.756 105.772C274.263 103.592 278.824 101.504 283.435 99.512L283.229 99.1174C278.617 101.11 274.057 103.198 269.55 105.378ZM289.139 96.6286L289.345 97.0241C299.388 92.9033 309.665 89.2339 320.149 86.0406L320.031 85.6123C309.517 88.8146 299.211 92.4947 289.139 96.6286ZM339.295 80.3429L339.413 80.7713C348.597 78.539 357.923 76.6678 367.374 75.1725L367.34 74.7286C357.861 76.2271 348.507 78.1041 339.295 80.3429ZM387.173 72.1682L387.208 72.6108C392.581 72.0713 397.989 71.6527 403.43 71.3579L403.404 70.9149C397.96 71.2099 392.549 71.6286 387.173 72.1682ZM409.789 70.6262L409.814 71.0694C414.114 70.9137 418.433 70.8352 422.77 70.8352C429.07 70.8352 435.332 71.0008 441.55 71.3279L441.576 70.885C435.349 70.5573 429.079 70.3914 422.77 70.3914C418.424 70.3914 414.096 70.4702 409.789 70.6262ZM461.488 72.4954L461.462 72.939C471.049 73.9879 480.519 75.4221 489.858 77.2252L489.962 76.7935C480.597 74.9847 471.1 73.5466 461.488 72.4954ZM509.459 81.1404L509.354 81.5721C519.887 84.2384 530.23 87.3791 540.36 90.972L540.524 90.5593C530.375 86.959 520.012 83.8117 509.459 81.1404ZM559.15 97.7707L558.986 98.1826C568.199 102.056 577.212 106.311 586.006 110.926L586.231 110.543C577.417 105.917 568.384 101.652 559.15 97.7707ZM592.263 113.785L592.039 114.168C596.996 116.895 601.88 119.737 606.689 122.693L606.913 122.309C602.105 119.355 597.221 116.512 592.263 113.785ZM612.711 125.951L612.487 126.334C620.497 131.475 628.286 136.932 635.834 142.687L636.102 142.334C628.54 136.568 620.737 131.101 612.711 125.951ZM649.408 152.995L649.139 153.348C656.063 159.176 662.759 165.266 669.211 171.603L669.483 171.247C663.028 164.911 656.332 158.822 649.408 152.995ZM681.487 183.62L681.214 183.979C686.303 189.488 691.217 195.159 695.948 200.985L696.353 200.781C691.58 194.9 686.623 189.177 681.487 183.62ZM705.642 212.739L705.24 212.942C710.693 220.278 715.867 227.834 720.747 235.593L721.145 235.393C716.266 227.632 711.094 220.076 705.642 212.739ZM728.807 248.172L728.41 248.373C731.616 253.986 734.673 259.698 737.575 265.501L737.97 265.301C735.069 259.498 732.013 253.787 728.807 248.172ZM744.335 278.736L743.938 278.935C748.506 289.135 752.602 299.59 756.2 310.276L756.625 310.146C753.019 299.437 748.913 288.957 744.335 278.736ZM765.61 341.655L765.185 341.785C767.01 349.553 768.579 357.421 769.88 365.378L770.323 365.338C769.018 357.35 767.444 349.452 765.61 341.655ZM772.68 382.362L772.238 382.403C772.715 386.598 773.118 390.816 773.446 395.055H771.38V395.499H773.48C773.678 398.102 773.848 400.713 773.989 403.331L774.433 403.313C774.292 400.7 774.123 398.096 773.926 395.499H786.45V395.055H773.891C773.562 390.803 773.159 386.571 772.68 382.362ZM812.825 395.055V395.499H843.211V395.055H812.825ZM774.696 436.09L774.251 436.109C774.103 439.999 773.894 443.873 773.621 447.729H771.38V448.173H773.589C773.365 451.289 773.1 454.393 772.796 457.486L773.235 457.55C773.543 454.436 773.809 451.31 774.034 448.173H785.731V447.729H774.065C774.338 443.866 774.549 439.987 774.696 436.09ZM800.096 447.729V448.173H814.459V447.729H800.096ZM828.823 447.729V448.173H843.211V447.729H828.823ZM768.677 489.095L768.237 489.031C767.163 494.645 765.956 500.212 764.619 505.728L765.06 505.792C766.397 500.276 767.603 494.709 768.677 489.095ZM758.365 529.686L757.92 529.621C755.781 536.325 753.446 542.941 750.923 549.462L751.327 549.646C753.866 543.086 756.214 536.431 758.365 529.686ZM741.64 572.278L741.236 572.094C734.772 585.838 727.444 599.096 719.322 611.797L719.687 612.052C727.823 599.328 735.164 586.047 741.64 572.278ZM712.848 622.344L712.483 622.09C708.548 627.793 704.449 633.375 700.193 638.827L700.531 639.115C704.796 633.652 708.904 628.059 712.848 622.344ZM692.757 648.721L692.419 648.435C687.465 654.342 682.322 660.084 676.996 665.652L677.302 665.975C682.638 660.396 687.793 654.642 692.757 648.721ZM660.82 682.118L660.515 681.796C652.66 689.004 644.475 695.861 635.987 702.339L636.244 702.702C644.749 696.211 652.949 689.341 660.82 682.118ZM620.5 714.048L620.242 713.686C610.332 720.421 600.061 726.663 589.463 732.378L589.649 732.782C600.272 727.055 610.568 720.799 620.5 714.048ZM572.307 741.521L572.121 741.117C563.464 745.183 554.615 748.907 545.59 752.27L545.68 752.71C554.737 749.337 563.62 745.601 572.307 741.521ZM538.435 755.318L538.345 754.88C533.527 756.555 528.661 758.128 523.75 759.597L523.84 760.034C528.751 758.566 533.617 756.993 538.435 755.318ZM516.493 762.145L516.403 761.709C509.431 763.629 502.373 765.34 495.234 766.836L495.314 767.272C502.456 765.777 509.518 764.065 516.493 762.145ZM471.432 771.417L471.352 770.98C466.911 771.594 462.444 772.124 457.952 772.571V771.179H457.508V772.614C454.756 772.884 451.995 773.122 449.225 773.329L449.221 773.773C451.993 773.568 454.755 773.33 457.508 773.061V785.612L457.952 785.615V773.016C462.471 772.568 466.965 772.035 471.432 771.417ZM457.952 795.288L457.508 795.285V804.767L457.952 804.77V795.288ZM457.952 826.54H457.508V843.008H457.952V826.54ZM431.455 774.647L431.457 774.203C429.122 774.259 426.78 774.293 424.433 774.305V728.306C570.678 730.115 644.27 642.658 663.386 597.575H722.054H722.44L722.246 597.242L660.695 491.236C666.501 470.134 669.603 447.912 669.603 424.966C669.603 424.241 669.599 423.517 669.593 422.794H758.03L758.012 422.35H669.589C668.404 307.112 589.009 210.614 481.957 183.406L420.572 77.6848L420.379 77.3518L420.188 77.6864L359.94 183.118C252.309 209.927 172.352 306.702 171.163 422.35H71.0338C71.0345 421.152 71.0412 419.957 71.0538 418.762L70.6101 418.758C70.5967 420.027 70.5899 421.298 70.5899 422.572C70.5899 425.374 70.6227 428.169 70.6877 430.956L71.1318 430.961C71.0682 428.246 71.0354 425.524 71.0338 422.794H171.159C171.153 423.517 171.15 424.241 171.15 424.966C171.15 449.532 174.704 473.268 181.326 495.688L123.293 597.244L123.104 597.575H123.486H180.304C201.051 641.072 277.778 726.317 423.989 728.3V774.306C423.583 774.308 423.176 774.308 422.77 774.308C420.226 774.308 417.688 774.281 415.158 774.227L415.145 774.671C417.68 774.725 420.222 774.752 422.77 774.752C423.176 774.752 423.583 774.751 423.989 774.75V775.967H424.433V774.748C426.778 774.737 429.119 774.703 431.455 774.647ZM395.701 779.972L395.258 779.959V785.612L395.701 785.615V779.972ZM395.701 826.696H395.258V843.008H395.701V826.696ZM374.138 771.421L374.151 770.975C367.391 770.041 360.694 768.914 354.063 767.601L353.986 768.038C360.638 769.355 367.357 770.485 374.138 771.421ZM345.29 766.202L345.368 765.764C342.265 765.067 339.178 764.33 336.107 763.551L336.03 763.989C339.101 764.767 342.188 765.505 345.29 766.202ZM327.415 761.691L327.493 761.252C322.642 759.889 317.834 758.427 313.07 756.864L312.92 757.282C317.707 758.852 322.54 760.323 327.415 761.691ZM285.586 747.034L285.738 746.616C274.527 741.869 263.613 736.557 253.034 730.718L252.802 731.097C263.408 736.952 274.348 742.276 285.586 747.034ZM238.715 722.888L238.946 722.509C233.768 719.329 228.678 716.018 223.681 712.581L223.45 712.96C228.446 716.397 233.536 719.708 238.715 722.888ZM218.036 709.162L218.268 708.783C214.519 706.099 210.825 703.343 207.186 700.517L206.954 700.899C210.592 703.724 214.287 706.479 218.036 709.162ZM201.741 696.771L201.975 696.39C195.897 691.483 189.986 686.378 184.252 681.084L183.915 681.378C189.682 686.702 195.627 691.837 201.741 696.771ZM173.794 671.654L174.13 671.362C168.62 665.855 163.291 660.166 158.155 654.306L157.82 654.597C162.957 660.457 168.285 666.147 173.794 671.654ZM151.462 647.136L151.796 646.844C148.01 642.275 144.337 637.608 140.782 632.849L140.447 633.14C144.002 637.9 147.675 642.567 151.462 647.136ZM136.829 628.211L137.166 627.918C133.616 622.991 130.192 617.967 126.896 612.853L126.512 613.076C129.823 618.214 133.263 623.26 136.829 628.211ZM123.253 607.922L123.637 607.699C118.967 600.168 114.573 592.447 110.469 584.552L110.085 584.776C114.189 592.67 118.583 600.391 123.253 607.922ZM104.732 574.034L105.118 573.81C102.109 567.502 99.282 561.089 96.6444 554.579L96.2202 554.714C98.8692 561.254 101.709 567.696 104.732 574.034ZM91.9062 543.517L92.3304 543.383C90.3769 538.041 88.5492 532.639 86.8506 527.179L86.4272 527.314C88.1258 532.773 89.9535 538.175 91.9062 543.517ZM81.5854 510.229L82.0096 510.095C80.5914 504.557 79.3046 498.967 78.1528 493.328L77.7137 493.395C78.8697 499.058 80.1614 504.67 81.5854 510.229ZM76.071 484.803L76.5092 484.735C76.1746 482.858 75.8548 480.976 75.5506 479.09L75.1115 479.158C75.4166 481.045 75.7364 482.927 76.071 484.803ZM73.8248 470.51L74.2639 470.442C73.2633 463.089 72.4899 455.664 71.9511 448.173H72.2521V447.729H71.9195C71.8716 447.052 71.8257 446.374 71.7817 445.696L71.3367 445.692C71.3807 446.372 71.4267 447.051 71.4746 447.729H57.875V448.173H71.5062C72.0459 455.686 72.8214 463.134 73.8248 470.51ZM662.904 597.575C643.735 642.563 570.294 729.668 424.433 727.862V674.16C493.46 673.059 555.671 643.894 600.153 597.575H662.904ZM599.537 597.575C555.156 643.631 493.182 672.617 424.433 673.716V597.575H599.537ZM423.989 673.723V597.575H241.214C286.468 644.535 350.01 673.749 420.376 673.749C421.582 673.749 422.787 673.74 423.989 673.723ZM599.964 597.132H424.433V530.459C480.857 528.328 525.946 481.912 525.946 424.966C525.946 368.019 480.857 321.604 424.433 319.472V177.398H423.989V319.457C422.789 319.416 421.585 319.396 420.376 319.396C362.071 319.396 314.806 366.661 314.806 424.966C314.806 483.271 362.071 530.536 420.376 530.536C421.585 530.536 422.789 530.516 423.989 530.476V597.132H240.787C213.703 568.886 193.216 534.264 181.806 495.743L223.491 422.794H224.045V422.35H223.745L360.231 183.503C379.491 178.721 399.637 176.184 420.376 176.184C441.527 176.184 462.061 178.823 481.668 183.79L660.218 491.298C649.096 531.602 628.087 567.804 599.964 597.132ZM525.502 424.966C525.502 481.667 480.612 527.884 424.433 530.015V479.077H423.989V530.031C422.789 530.072 421.585 530.093 420.376 530.093C362.316 530.093 315.25 483.025 315.25 424.966C315.25 366.906 362.316 319.84 420.376 319.84C421.585 319.84 422.789 319.86 423.989 319.901V321.055H424.433V319.916C480.612 322.048 525.502 368.264 525.502 424.966ZM181.501 496.276C192.913 534.564 213.281 568.992 240.173 597.132H180.584C180.526 597.008 180.467 596.885 180.41 596.762C180.337 596.608 180.267 596.456 180.196 596.303L179.793 596.489C179.892 596.702 179.992 596.917 180.093 597.132H123.868L181.501 496.276ZM423.989 727.856C278.179 725.876 201.61 640.991 180.795 597.575H240.598C285.951 644.8 349.731 674.193 420.376 674.193C421.582 674.193 422.787 674.184 423.989 674.166V727.856ZM222.981 422.794L181.632 495.153C175.098 472.893 171.594 449.339 171.594 424.966C171.594 424.241 171.596 423.517 171.603 422.794H222.981ZM223.234 422.35H171.607C172.795 307.058 252.406 210.556 359.635 183.651L223.234 422.35ZM420.376 175.74C399.748 175.74 379.705 178.246 360.535 182.97L420.382 78.2406L481.356 183.253C461.842 178.346 441.413 175.74 420.376 175.74ZM660.383 490.698L482.27 183.943C588.916 211.249 667.961 307.472 669.145 422.35H621.495V422.794H669.15C669.155 423.517 669.159 424.241 669.159 424.966C669.159 447.719 666.104 469.759 660.383 490.698ZM600.578 597.132C628.507 567.909 649.398 531.902 660.53 491.835L721.669 597.132H663.573C663.664 596.914 663.754 596.696 663.843 596.48L663.433 596.312C663.362 596.483 663.292 596.654 663.219 596.827C663.177 596.928 663.134 597.03 663.092 597.132H600.578ZM171.594 243.001C171.594 235.19 177.926 228.857 185.737 228.857C193.548 228.857 199.881 235.19 199.881 243.001C199.881 250.813 193.548 257.145 185.737 257.145C177.926 257.145 171.594 250.813 171.594 243.001ZM185.737 228.413C177.68 228.413 171.15 234.945 171.15 243.001C171.15 251.058 177.68 257.588 185.737 257.588C193.793 257.588 200.325 251.058 200.325 243.001C200.325 234.945 193.793 228.413 185.737 228.413ZM636.082 243.001C636.082 235.19 642.415 228.857 650.226 228.857C658.038 228.857 664.37 235.19 664.37 243.001C664.37 250.813 658.038 257.145 650.226 257.145C642.415 257.145 636.082 250.813 636.082 243.001ZM650.226 228.413C642.17 228.413 635.638 234.945 635.638 243.001C635.638 251.058 642.17 257.588 650.226 257.588C658.283 257.588 664.813 251.058 664.813 243.001C664.813 234.945 658.283 228.413 650.226 228.413ZM123.708 338.772C123.708 330.961 130.04 324.628 137.851 324.628C145.663 324.628 151.995 330.961 151.995 338.772C151.995 346.584 145.663 352.916 137.851 352.916C130.04 352.916 123.708 346.584 123.708 338.772ZM137.851 324.184C129.795 324.184 123.264 330.716 123.264 338.772C123.264 346.829 129.795 353.359 137.851 353.359C145.908 353.359 152.439 346.829 152.439 338.772C152.439 330.716 145.908 324.184 137.851 324.184ZM683.968 338.772C683.968 330.961 690.3 324.628 698.112 324.628C705.923 324.628 712.256 330.961 712.256 338.772C712.256 346.584 705.923 352.916 698.112 352.916C690.3 352.916 683.968 346.584 683.968 338.772ZM698.112 324.184C690.055 324.184 683.525 330.716 683.525 338.772C683.525 346.829 690.055 353.359 698.112 353.359C706.168 353.359 712.7 346.829 712.7 338.772C712.7 330.716 706.168 324.184 698.112 324.184ZM367.923 424.966C367.923 395.997 391.407 372.514 420.376 372.514C449.345 372.514 472.828 395.997 472.828 424.966C472.828 453.935 449.345 477.418 420.376 477.418C391.407 477.418 367.923 453.935 367.923 424.966ZM420.376 372.07C391.162 372.07 367.48 395.752 367.48 424.966C367.48 454.18 391.162 477.862 420.376 477.862C449.59 477.862 473.272 454.18 473.272 424.966C473.272 395.752 449.59 372.07 420.376 372.07Z" fill="#8F7E77"/>
</svg>
