<svg width="1600" height="2487" viewBox="0 0 1600 2487" fill="none" xmlns="http://www.w3.org/2000/svg">
<path opacity="0.4" d="M1610.88 -52.0486C1959.18 -400.347 1959.18 -965.051 1610.88 -1313.35C1262.59 -1661.65 697.882 -1661.65 349.584 -1313.35C1.28517 -965.051 1.28517 -400.347 349.584 -52.0486C697.882 296.25 1262.59 296.25 1610.88 -52.0486Z" stroke="#8F7E77" stroke-width="0.416666"/>
<path opacity="0.4" d="M323.951 1234.88C672.25 886.586 672.25 321.883 323.951 -26.4161C-24.3473 -374.715 -589.051 -374.715 -937.35 -26.4161C-1285.65 321.883 -1285.65 886.586 -937.35 1234.88C-589.051 1583.18 -24.3473 1583.18 323.951 1234.88Z" stroke="#8F7E77" stroke-width="0.416666"/>
<path opacity="0.4" d="M2600.83 937.901C2949.13 589.602 2949.13 24.8982 2600.83 -323.4C2252.54 -671.699 1687.83 -671.699 1339.53 -323.4C991.234 24.8982 991.234 589.602 1339.53 937.901C1687.83 1286.2 2252.54 1286.2 2600.83 937.901Z" stroke="#8F7E77" stroke-width="0.416666"/>
<path opacity="0.4" d="M1313.9 2224.83C1662.2 1876.54 1662.2 1311.83 1313.9 963.533C965.602 615.234 400.898 615.234 52.5997 963.533C-295.699 1311.83 -295.699 1876.54 52.5997 2224.83C400.898 2573.13 965.602 2573.13 1313.9 2224.83Z" stroke="#8F7E77" stroke-width="0.416666"/>
</svg>
