<svg width="149" height="133" viewBox="0 0 149 133" fill="none" xmlns="http://www.w3.org/2000/svg">
<mask id="path-1-inside-1_2010_111" fill="white">
<path fill-rule="evenodd" clip-rule="evenodd" d="M71.5533 4.00099C71.5533 2.28346 72.9457 0.891128 74.6632 0.891128C76.3808 0.891128 77.7728 2.28342 77.7728 4.00099C77.7728 5.71858 76.3808 7.11087 74.6632 7.11087C72.9457 7.11087 71.5533 5.71853 71.5533 4.00099ZM74.6632 0C72.4536 0 70.6622 1.7913 70.6622 4.00099C70.6622 6.0601 72.2178 7.7559 74.2177 7.97747V10.0689H74.3514V15.6681H74.2177V20.0927C74.1089 20.0945 74.0001 20.0965 73.8914 20.099L73.9604 20.9888C74.0461 20.9869 74.1319 20.9853 74.2177 20.984V26.9667C67.0928 27.0987 60.4248 29.1 54.6836 32.5008C52.9028 31.5626 51.1836 30.7079 49.5412 29.9312L49.4114 30.0831L48.858 29.6105C48.7219 29.547 48.5863 29.4842 48.4513 29.4218C48.4852 29.3979 48.519 29.3739 48.5529 29.3499L47.8857 28.7801L47.9935 28.654C47.8341 28.7668 47.6756 28.8806 47.5178 28.9952C45.5528 28.1067 43.7178 27.3359 42.043 26.6722C41.6818 26.529 41.3279 26.3907 40.9819 26.2574L40.8167 26.4357L40.3726 26.0247C39.7712 25.7968 39.1949 25.5843 38.6457 25.3864C38.8234 25.2305 39.0022 25.0758 39.1818 24.9222L38.5235 24.3126C38.2419 24.5543 37.9627 24.7987 37.686 25.0459C36.4047 24.5981 35.2962 24.2388 34.3872 23.9585C33.4761 23.6776 32.7651 23.4761 32.2809 23.3446C32.0388 23.2788 31.8534 23.2306 31.728 23.1986C31.6652 23.1827 31.6176 23.1707 31.5852 23.1628L31.5484 23.1538L31.5387 23.1515L31.5361 23.1509C31.5361 23.1509 31.5349 23.1506 31.4315 23.584L31.5349 23.1506L30.7606 22.9657L31.008 23.7224C31.6696 25.7461 32.3638 27.7239 33.0881 29.6566C32.7646 30.0209 32.4457 30.3895 32.1316 30.7623L32.7863 31.3683C33.0036 31.1101 33.2233 30.8538 33.4453 30.5995C33.7238 31.3275 34.0067 32.049 34.2937 32.764L34.4576 32.9158L34.3859 32.9931C35.2674 35.1782 36.1877 37.3033 37.143 39.3699C36.3551 40.4538 35.6126 41.5728 34.9183 42.7242L35.8777 41.2722L36.5884 41.7418C36.9083 41.2532 37.2373 40.771 37.5751 40.2956C38.5755 42.4183 39.6128 44.4785 40.6829 46.4777C37.2858 52.1906 35.2759 58.8246 35.1175 65.9155H29.1342C29.1436 65.431 29.1605 64.9483 29.1849 64.4676L28.2938 64.4423C28.2693 64.9314 28.2523 65.4225 28.2429 65.9155H19.8742C19.8803 65.5372 19.8902 65.1598 19.9039 64.7835L19.0119 64.7927C18.9986 65.166 18.9889 65.5403 18.983 65.9155H16.4245C16.2253 63.892 14.5187 62.311 12.4429 62.311C10.2332 62.311 8.44189 64.1024 8.44189 66.3121C8.44189 68.5217 10.2332 70.3131 12.4429 70.3131C14.4852 70.3131 16.17 68.7829 16.4136 66.8066H18.9757V66.8229C18.9757 67.045 18.9771 67.2667 18.9797 67.4881L19.8707 67.4789C19.8682 67.2605 19.8669 67.0418 19.8669 66.8229V66.8066H28.2342V66.823C28.2342 67.0478 28.2358 67.2724 28.239 67.4965L29.1306 67.5219C29.1271 67.2893 29.1253 67.0564 29.1253 66.823V66.8066H35.1074V66.823C35.1074 74.0064 37.0074 80.746 40.3322 86.5666C39.2748 88.6265 38.2576 90.7498 37.2857 92.9384C37.2617 92.9036 37.2378 92.8689 37.2139 92.8341L36.5534 93.4463C36.657 93.5951 36.7615 93.7439 36.8667 93.8919C35.6084 96.7889 34.4291 99.7992 33.3401 102.926C33.2988 102.878 33.2577 102.831 33.2165 102.783L32.5403 103.364C32.6945 103.542 32.8497 103.72 33.0061 103.897C32.472 105.469 31.9606 107.072 31.4735 108.702L31.254 109.438L32.0014 109.264L31.9004 108.83C32.0014 109.264 32.0024 109.264 32.0024 109.264H32.005L32.0144 109.261L32.0501 109.252C32.0814 109.245 32.1275 109.234 32.1882 109.218C32.3095 109.189 32.4888 109.143 32.723 109.08C33.1913 108.955 33.8791 108.763 34.7615 108.494C35.3659 108.31 36.0616 108.089 36.8406 107.829C37.2166 108.179 37.5974 108.524 37.9828 108.864L38.6355 108.251C38.3548 108.004 38.0767 107.755 37.8012 107.503C39.0878 107.058 40.5609 106.519 42.1919 105.873C43.5697 105.328 45.0604 104.706 46.6467 104.002C47.1357 104.375 47.6322 104.739 48.1359 105.092L48.8051 104.473C48.3898 104.184 47.9795 103.888 47.5744 103.586C49.5115 102.706 51.5803 101.707 53.7517 100.576C59.6981 104.322 66.7038 106.541 74.2177 106.68V112.662C74.1549 112.661 74.0921 112.66 74.0293 112.658V113.55C74.0922 113.551 74.1549 113.552 74.2177 113.553V121.746L74.351 121.756L74.2177 123.475V124.737C72.2178 124.959 70.6622 126.655 70.6622 128.714C70.6622 130.924 72.4536 132.715 74.6632 132.715C76.8729 132.715 78.6639 130.924 78.6639 128.714C78.6639 126.655 77.1088 124.959 75.1089 124.737V122.817C75.3736 122.816 75.6379 122.814 75.9019 122.81V121.919C75.6379 121.923 75.3736 121.925 75.1089 121.926V113.559C75.4049 113.558 75.7002 113.555 75.9949 113.548L75.9259 112.658C75.6541 112.663 75.3818 112.667 75.1089 112.668V106.686C82.7612 106.66 89.9058 104.478 95.9667 100.715C98.1725 101.843 100.265 102.833 102.214 103.699C102.122 103.766 102.03 103.834 101.938 103.901L102.469 104.617C102.698 104.45 102.926 104.282 103.151 104.11C104.392 104.649 105.569 105.135 106.673 105.572C108.756 106.396 110.581 107.048 112.088 107.549C111.645 107.953 111.196 108.35 110.741 108.739L111.399 109.348C111.963 108.865 112.516 108.372 113.06 107.867C113.433 107.986 113.781 108.095 114.104 108.194C114.986 108.463 115.674 108.654 116.142 108.779C116.376 108.841 116.556 108.888 116.677 108.918C116.738 108.933 116.784 108.944 116.815 108.952L116.851 108.96L116.86 108.963H116.863C116.863 108.963 116.864 108.964 116.889 108.857L116.964 108.535L116.864 108.964L117.612 109.137L117.391 108.402C117.016 107.146 116.627 105.907 116.224 104.685C116.602 104.274 116.973 103.856 117.34 103.433L116.685 102.827C116.426 103.127 116.165 103.423 115.901 103.717C114.845 100.601 113.701 97.6007 112.479 94.7099C112.583 94.5691 112.687 94.4283 112.79 94.2866L112.296 93.9596L113.62 91.9555L114.153 92.3074C114.447 91.8565 114.734 91.3994 115.013 90.9378L114.395 90.7088L114.882 89.3952C114.027 90.9057 113.087 92.3618 112.071 93.7591C111.129 91.5803 110.141 89.4639 109.114 87.4104C112.744 81.4014 114.834 74.3562 114.834 66.823V66.8066H120.815V66.823C120.815 67.1273 120.812 67.431 120.806 67.7339L121.697 67.7593C121.704 67.4479 121.706 67.1358 121.706 66.823V66.8066H130.073V66.8229C130.073 67.28 130.068 67.7359 130.057 68.1904L130.948 68.1812C130.959 67.7297 130.964 67.2769 130.964 66.8229V66.8066H132.558C132.611 67.2889 132.75 67.7453 132.959 68.1603L133 68.1599L133 68.2403C133.673 69.5028 135.003 70.3621 136.534 70.3621C138.743 70.3621 140.535 68.5708 140.535 66.3611C140.535 64.1514 138.743 62.3601 136.534 62.3601C134.728 62.3601 133.203 63.5552 132.705 65.1972L132.716 65.608L132.603 65.6113C132.584 65.7114 132.569 65.8128 132.558 65.9155H130.957C130.956 65.8296 130.954 65.7439 130.953 65.6583L130.061 65.6836C130.063 65.7608 130.065 65.8381 130.066 65.9155H123.689L123.683 66.1216L120.695 66.0366L120.698 65.9155H114.824C114.658 58.4892 112.462 51.5641 108.767 45.6735C109.811 43.6796 110.822 41.6262 111.796 39.5116C112.081 39.8956 112.36 40.2842 112.634 40.6773L113.382 40.1921C113.004 39.649 112.616 39.1144 112.217 38.5885C113.486 35.7803 114.69 32.8659 115.82 29.8413C116.122 30.1735 116.418 30.5094 116.712 30.849L117.388 30.2685C116.989 29.8059 116.582 29.3499 116.169 28.9007C116.752 27.3054 117.316 25.6797 117.857 24.0233L118.104 23.2665L117.33 23.4514L117.434 23.8848C117.33 23.4514 117.329 23.4517 117.329 23.4517L117.326 23.4523L117.317 23.4547L117.28 23.4637L117.24 23.4736C117.212 23.4806 117.178 23.4892 117.137 23.4996C117.012 23.5315 116.826 23.5798 116.584 23.6455C116.1 23.777 115.389 23.9785 114.478 24.2593C113.82 24.4623 113.057 24.7069 112.199 24.9964C111.954 24.7782 111.707 24.562 111.458 24.3479L110.774 24.9352C110.926 25.0657 111.078 25.1971 111.229 25.3292C109.93 25.7825 108.452 26.3271 106.823 26.973C105.412 27.5319 103.888 28.1667 102.269 28.8839C102.231 28.8563 102.192 28.8289 102.154 28.8014L101.356 29.5402L101.194 29.3654C99.2525 30.2466 97.1858 31.2421 95.0224 32.3625C89.1692 28.9493 82.3675 26.9846 75.1089 26.9599V20.9781C75.3737 20.9789 75.6381 20.982 75.9019 20.9872V20.0959C75.638 20.0907 75.3737 20.0878 75.1089 20.087V11.7199C75.4109 11.7206 75.7125 11.7239 76.0134 11.7294L76.0824 10.8394C75.7586 10.8331 75.434 10.8295 75.1089 10.8288V7.97745C77.1088 7.75581 78.6639 6.06002 78.6639 4.00099C78.6639 1.79135 76.8729 0 74.6632 0ZM77.4344 10.8818L77.3655 11.7709C78.0802 11.8015 78.7914 11.8456 79.4987 11.9031L79.5676 11.0146C78.8601 10.9571 78.149 10.9128 77.4344 10.8818ZM81.1979 11.171L81.1291 12.0601C81.7562 12.1299 82.3802 12.2101 83.0009 12.3007L83.235 11.4343C82.5598 11.3344 81.8807 11.2466 81.1979 11.171ZM84.9759 11.72L84.7424 12.5836C85.2567 12.6757 85.7685 12.7748 86.2777 12.8811L86.492 12.0153C85.9891 11.9101 85.4836 11.8116 84.9759 11.72ZM88.5391 12.4839L88.3249 13.3491C88.6666 13.4342 89.007 13.5224 89.3461 13.6138L89.5604 12.7484C89.2212 12.6571 88.8808 12.5689 88.5391 12.4839ZM89.9204 12.8466L89.7061 13.7121C90.0774 13.815 90.4471 13.9216 90.8152 14.0319L91.0297 13.1656C90.6615 13.0556 90.2917 12.9492 89.9204 12.8466ZM91.3873 13.2738L91.1728 14.1403C91.4585 14.2281 91.7432 14.3181 92.0268 14.4104L92.3758 13.5867C92.0476 13.4794 91.718 13.3751 91.3873 13.2738ZM93.352 13.9157L93.0035 14.7382C93.4063 14.8776 93.8069 15.0216 94.2054 15.17L94.5891 14.3619C94.179 14.2084 93.7666 14.0597 93.352 13.9157ZM95.5505 14.7318L95.1673 15.5388C96.3181 15.9924 97.4501 16.4835 98.561 17.0108L98.9433 16.2057C97.8321 15.6783 96.7007 15.1865 95.5505 14.7318ZM101.028 17.2482L100.644 18.0541C100.881 18.1786 101.116 18.3049 101.35 18.4328L101.733 17.6263C101.499 17.4986 101.264 17.3726 101.028 17.2482ZM102.227 17.8988L101.844 18.7058C102.407 19.0209 102.964 19.3456 103.514 19.6797L104.115 19.0022C103.494 18.6225 102.864 18.2547 102.227 17.8988ZM104.602 19.3026L104.001 19.9789C104.557 20.3237 105.105 20.6782 105.647 21.042L106.244 20.3694C105.703 20.0045 105.156 19.6488 104.602 19.3026ZM107.131 20.98L106.536 21.6509C106.875 21.8888 107.212 22.1304 107.546 22.3756L108.184 21.7383C107.836 21.4815 107.485 21.2287 107.131 20.98ZM109.53 22.7631L108.895 23.3976C109.129 23.5808 109.361 23.7658 109.592 23.9528L110.28 23.3628C110.032 23.1608 109.781 22.9608 109.53 22.7631ZM110.75 23.7492L110.064 24.338C110.165 24.4217 110.266 24.5057 110.367 24.59L111.052 24.0019C110.951 23.9173 110.851 23.833 110.75 23.7492ZM77.0711 20.1332V21.0252C77.6585 21.0517 78.2429 21.0892 78.8242 21.1376V20.2434C78.2428 20.196 77.6584 20.1592 77.0711 20.1332ZM81.1628 20.4934V21.3926C81.8387 21.4838 82.5098 21.5898 83.1758 21.7102L83.3552 20.8369C82.6301 20.7055 81.8992 20.5909 81.1628 20.4934ZM86.2139 21.4481L86.0345 22.3219C86.7941 22.5102 87.5462 22.7173 88.2903 22.943L88.6052 22.107C87.8167 21.8668 87.0194 21.6471 86.2139 21.4481ZM91.375 23.047L91.0608 23.8811C91.6575 24.1048 92.2485 24.3406 92.8332 24.5883L93.297 23.8169C92.6634 23.5465 92.0225 23.2897 91.375 23.047ZM94.4088 24.3085L93.9466 25.0773C94.5341 25.3448 95.1149 25.6244 95.6888 25.9156L96.1719 25.1613C95.5912 24.8652 95.0033 24.5808 94.4088 24.3085ZM98.2545 26.291L97.7733 27.0424C98.2723 27.3292 98.766 27.625 99.2525 27.9298L99.8059 27.2245C99.2953 26.9037 98.7785 26.5924 98.2545 26.291ZM100.447 27.6343L99.8941 28.3385C100.216 28.5473 100.535 28.76 100.851 28.9765L101.521 28.3559C101.167 28.1106 100.808 27.87 100.447 27.6343ZM117.73 30.6695L117.054 31.25C117.26 31.4922 117.462 31.7363 117.663 31.9821L118.34 31.4015C118.138 31.1557 117.935 30.9117 117.73 30.6695ZM119.356 32.6825L118.679 33.2638C119.409 34.2129 120.108 35.1864 120.776 36.1829L121.52 35.6916C120.831 34.664 120.109 33.6605 119.356 32.6825ZM123.059 38.1211L122.315 38.613C122.622 39.1279 122.922 39.6482 123.212 40.1738L124.057 39.8604C123.734 39.2742 123.402 38.6944 123.059 38.1211ZM125.388 42.4339L124.549 42.7453C124.696 43.0491 124.841 43.3546 124.984 43.6616L125.822 43.3507C125.68 43.0436 125.535 42.7379 125.388 42.4339ZM126.413 44.6728L125.576 44.9832C125.848 45.6129 126.108 46.2487 126.358 46.8903L127.24 46.7011C126.977 46.0185 126.701 45.3423 126.413 44.6728ZM127.652 47.8043L126.772 47.9929C126.969 48.5346 127.158 49.0803 127.338 49.6297L128.214 49.4417C128.035 48.8922 127.848 48.3463 127.652 47.8043ZM128.522 50.4124L127.647 50.6001C127.902 51.432 128.139 52.2723 128.356 53.1205L129.228 52.9333C129.012 52.0852 128.776 51.2446 128.522 50.4124ZM129.677 54.8307L128.806 55.0177C128.94 55.6312 129.063 56.2486 129.177 56.8696L130.049 56.6826C129.935 56.0616 129.811 55.4444 129.677 54.8307ZM130.366 58.6082L129.493 58.7955C129.554 59.218 129.611 59.642 129.663 60.0676L130.538 59.8799C130.486 59.4545 130.429 59.0306 130.366 58.6082ZM130.62 60.5815L129.744 60.7695C129.787 61.1587 129.825 61.5492 129.86 61.9409L130.752 61.9154C130.714 61.4693 130.67 61.0247 130.62 60.5815ZM130.809 62.6174L129.917 62.6428C129.952 63.1057 129.981 63.5703 130.004 64.0363L130.896 64.0109C130.872 63.5449 130.843 63.0803 130.809 62.6174ZM114.034 41.1555L113.286 41.6404C113.912 42.5907 114.503 43.5657 115.058 44.5636L115.883 44.2125C115.304 43.1684 114.688 42.1487 114.034 41.1555ZM116.436 45.241L115.613 45.5913C115.86 46.0617 116.098 46.5369 116.327 47.0167L117.149 46.6672C116.919 46.1872 116.681 45.7117 116.436 45.241ZM117.841 48.1818L117.021 48.531C117.299 49.1689 117.563 49.8145 117.812 50.4671L118.694 50.2801C118.426 49.5723 118.142 48.8726 117.841 48.1818ZM119.79 53.5342L118.943 53.8124C119.041 54.144 119.135 54.4772 119.225 54.8118L120.099 54.6267C120.001 54.2608 119.897 53.8966 119.79 53.5342ZM120.503 56.2425L119.632 56.4274C119.706 56.7479 119.777 57.0697 119.845 57.3927L120.73 57.2731C120.658 56.9282 120.583 56.5846 120.503 56.2425ZM121.04 58.911L120.156 59.0303C120.237 59.506 120.312 59.9843 120.378 60.4649L121.279 60.4742C121.207 59.9503 121.128 59.4292 121.04 58.911ZM121.359 61.0963L120.46 61.087C120.521 61.5779 120.575 62.0713 120.62 62.567L121.516 62.5763C121.471 62.0807 121.419 61.5873 121.359 61.0963ZM121.568 63.1981L120.673 63.1888C120.712 63.6774 120.742 64.1682 120.765 64.661L121.658 64.6865C121.636 64.1883 121.606 63.6921 121.568 63.1981ZM130.926 68.9252L130.034 68.9343C130.019 69.3374 129.999 69.7393 129.975 70.1401L130.869 70.1308C130.892 69.73 130.911 69.3281 130.926 68.9252ZM130.82 70.875L129.926 70.8843C129.886 71.4288 129.839 71.971 129.783 72.511L130.667 72.6303C130.727 72.0478 130.778 71.4626 130.82 70.875ZM130.428 74.6087L129.545 74.4894C129.435 75.2776 129.308 76.0606 129.166 76.8378L130.02 77.1184C130.175 76.2882 130.31 75.4514 130.428 74.6087ZM129.618 79.0837L128.768 78.8043C128.603 79.547 128.423 80.2839 128.228 81.015L129.077 81.2936C129.272 80.5627 129.452 79.826 129.618 79.0837ZM128.007 84.8268L127.16 84.5487C126.84 85.4934 126.494 86.4265 126.124 87.3473L126.92 87.7566C127.309 86.7931 127.671 85.8161 128.007 84.8268ZM126.524 88.7143L125.729 88.3057C125.475 88.9058 125.21 89.5004 124.935 90.0894L125.728 90.4976C126.003 89.9085 126.269 89.3142 126.524 88.7143ZM125.095 91.8066L124.303 91.3994C124.07 91.8646 123.833 92.3253 123.587 92.7833L124.38 93.1906C124.625 92.7334 124.864 92.2718 125.095 91.8066ZM123.378 94.9853L122.584 94.5772C122.345 94.9862 122.101 95.3916 121.852 95.7935L122.647 96.2026C122.896 95.7998 123.139 95.3943 123.378 94.9853ZM122.063 97.1285L121.266 96.7185C121.054 97.0465 120.839 97.3717 120.62 97.6943L121.396 98.1381C121.622 97.8039 121.844 97.4671 122.063 97.1285ZM120.095 99.9827L119.316 99.5372C118.927 100.064 118.529 100.583 118.121 101.095L118.777 101.702C119.227 101.138 119.666 100.565 120.095 99.9827ZM121.665 68.7945L120.775 68.7691C120.753 69.2847 120.723 69.7981 120.685 70.3092L121.576 70.3345C121.614 69.8234 121.644 69.31 121.665 68.7945ZM121.529 70.9209L120.637 70.8955C120.61 71.202 120.58 71.5076 120.547 71.8123L121.423 72.0003C121.462 71.6417 121.498 71.2818 121.529 70.9209ZM121.354 72.5864L120.479 72.3988C120.436 72.7542 120.389 73.1086 120.338 73.4614L121.212 73.6488C121.263 73.296 121.311 72.9418 121.354 72.5864ZM120.947 75.2576L120.076 75.0705C119.981 75.5895 119.879 76.1052 119.766 76.6178L120.638 76.8048C120.749 76.2921 120.853 75.7763 120.947 75.2576ZM120.264 78.39L119.399 78.2045L119.443 78.0016C119.248 78.7786 119.034 79.5477 118.799 80.3083L119.675 80.496C119.887 79.8007 120.084 79.0986 120.264 78.39ZM119.419 81.307L118.582 81.1275L118.665 80.7407C117.803 83.4479 116.697 86.0459 115.372 88.5089L116.216 88.8217C116.383 88.5086 116.547 88.1934 116.707 87.8761L116.453 87.782L116.722 87.0567L117.052 87.179C117.182 86.9114 117.309 86.6423 117.434 86.3718L116.829 86.1475L117.249 85.0157L117.926 85.2669C118.163 84.7157 118.389 84.1589 118.606 83.5969L117.997 83.4664L118.089 83.0364L118.764 83.1811C118.995 82.5625 119.213 81.9377 119.419 81.307ZM110.702 109.937L110.041 109.326C109.615 109.679 109.181 110.026 108.744 110.366L109.227 111.119C109.725 110.733 110.217 110.339 110.702 109.937ZM108.503 111.67L108.021 110.918C107.262 111.487 106.488 112.038 105.699 112.569L106.18 113.32C106.969 112.789 107.744 112.239 108.503 111.67ZM103.794 114.839L103.313 114.088C102.131 114.799 100.921 115.465 99.6829 116.087L100.144 116.854C101.388 116.226 102.605 115.554 103.794 114.839ZM98.8408 117.489L98.3792 116.721C97.6458 117.066 96.9039 117.394 96.1533 117.707L96.4677 118.542C97.2684 118.209 98.0602 117.858 98.8408 117.489ZM93.1961 119.784L92.8817 118.949C91.774 119.33 90.6503 119.677 89.512 119.987L89.6915 120.862C90.8758 120.54 92.0444 120.18 93.1961 119.784ZM86.2857 121.674L86.1064 120.8C84.8203 121.064 83.5177 121.283 82.2006 121.456V122.354C83.5787 122.177 84.9409 121.949 86.2857 121.674ZM78.1759 122.727V121.834C77.8851 121.851 77.5937 121.865 77.3017 121.878V122.77C77.5937 122.757 77.8851 122.743 78.1759 122.727ZM100.932 105.69L100.401 104.974C99.8656 105.331 99.322 105.678 98.7704 106.014L99.3033 106.733C99.854 106.396 100.398 106.049 100.932 105.69ZM98.8453 107.009L98.3124 106.289C97.882 106.544 97.4471 106.793 97.008 107.033L97.5434 107.756C97.694 107.673 97.8446 107.589 97.9943 107.504L97.5986 106.971L98.0263 106.654L98.4585 107.237C98.5886 107.162 98.717 107.085 98.8453 107.009ZM96.1794 108.481L95.641 107.754C94.9271 108.116 94.2024 108.459 93.4676 108.784L94.874 108.403L95.0461 109.039C95.4267 108.858 95.8045 108.672 96.1794 108.481ZM93.6374 109.683L93.4022 108.812C92.8241 109.066 92.2397 109.309 91.6494 109.539L91.9691 109.453L92.1935 110.283C92.6789 110.091 93.1602 109.89 93.6374 109.683ZM89.4864 111.261L89.2535 110.399C87.4032 111.005 85.5011 111.497 83.5554 111.866L83.7886 112.729C84.4661 112.599 85.1382 112.455 85.8049 112.297L85.7003 111.91L87.9012 111.315L88.0095 111.716C88.5053 111.572 88.9976 111.42 89.4864 111.261ZM82.4358 112.966L82.202 112.101C81.5386 112.206 80.8705 112.297 80.198 112.373L80.267 113.262C80.9951 113.18 81.7182 113.081 82.4358 112.966ZM78.9052 113.396L78.8364 112.508C78.2458 112.557 77.652 112.595 77.0553 112.622L77.1241 113.51C77.7208 113.483 78.3146 113.445 78.9052 113.396ZM72.9162 122.78L72.9851 121.891C72.3571 121.869 71.7318 121.836 71.1093 121.793L71.0405 122.682C71.663 122.724 72.2883 122.757 72.9162 122.78ZM69.6937 122.572L69.7625 121.683C68.7981 121.593 67.8408 121.478 66.8914 121.338L66.8224 122.229C67.7719 122.367 68.7293 122.482 69.6937 122.572ZM65.4835 122.017L65.5527 121.125C65.0902 121.045 64.6297 120.96 64.1713 120.868L63.9686 121.737C64.4711 121.837 64.9762 121.93 65.4835 122.017ZM63.4441 121.63L63.6467 120.761C63.3805 120.706 63.1148 120.648 62.85 120.589L62.6473 121.457C62.9122 121.517 63.1778 121.574 63.4441 121.63ZM62.1258 121.337L62.3285 120.469C61.7425 120.332 61.1601 120.185 60.5815 120.029L60.3788 120.897C60.9575 121.053 61.5398 121.2 62.1258 121.337ZM59.3338 120.605L59.5368 119.735C58.6861 119.488 57.8439 119.22 57.0107 118.933L56.807 119.806C57.6405 120.091 58.483 120.358 59.3338 120.605ZM55.7788 119.442L55.9829 118.567C55.4131 118.359 54.8476 118.14 54.2868 117.913L54.0817 118.791C54.643 119.017 55.2087 119.234 55.7788 119.442ZM52.6732 118.202L52.8792 117.32C52.2835 117.059 51.6933 116.788 51.1088 116.506L50.6755 117.287C51.3343 117.605 52.0003 117.91 52.6732 118.202ZM49.327 116.614L49.7598 115.834C49.154 115.521 48.5546 115.199 47.962 114.865L47.5294 115.644C48.122 115.978 48.7213 116.301 49.327 116.614ZM46.7991 115.225L47.2318 114.446C47.0238 114.325 46.8166 114.202 46.6103 114.078L46.1775 114.857C46.3838 114.981 46.5911 115.104 46.7991 115.225ZM45.4586 114.418L45.8917 113.638C45.2429 113.234 44.603 112.817 43.9725 112.387L43.5382 113.17C44.1692 113.598 44.8094 114.014 45.4586 114.418ZM42.2728 112.284L42.7084 111.5C42.3715 111.256 42.0373 111.009 41.7062 110.757L41.0475 111.376C41.4516 111.684 41.8601 111.987 42.2728 112.284ZM39.8249 110.417L40.4809 109.8C40.1225 109.512 39.7678 109.22 39.4169 108.923L38.7631 109.537C39.1134 109.835 39.4673 110.128 39.8249 110.417ZM72.86 113.513V112.621C72.2728 112.594 71.6884 112.556 71.107 112.508V113.401C71.6884 113.449 72.2728 113.486 72.86 113.513ZM68.7684 113.151V112.252C68.1315 112.166 67.4988 112.066 66.8706 111.955L66.6913 112.828C67.3785 112.951 68.071 113.059 68.7684 113.151ZM63.8311 112.223L64.0105 111.35C63.2793 111.17 62.5551 110.973 61.8382 110.759L61.5232 111.596C62.2846 111.824 63.054 112.033 63.8311 112.223ZM58.7491 110.667L59.0633 109.833C58.4963 109.623 57.9346 109.403 57.3784 109.171L56.9143 109.944C57.5195 110.197 58.1312 110.438 58.7491 110.667ZM55.7985 109.458L56.2611 108.689C55.6759 108.427 55.0974 108.153 54.5257 107.868L54.0422 108.623C54.6209 108.914 55.2064 109.192 55.7985 109.458ZM51.951 107.507L52.4324 106.754C51.9451 106.479 51.4633 106.195 50.9873 105.902L50.4341 106.608C50.9335 106.917 51.4393 107.216 51.951 107.507ZM49.79 106.203L50.3424 105.498C50.0411 105.305 49.7423 105.11 49.4459 104.911L48.7743 105.533C49.1098 105.761 49.4484 105.984 49.79 106.203ZM31.3086 101.884L31.9851 101.303C30.9632 100.031 29.9966 98.712 29.0889 97.3503L28.3453 97.8422C29.2736 99.2342 30.2627 100.583 31.3086 101.884ZM27.5003 96.535L28.2441 96.0439C27.8565 95.4255 27.4809 94.799 27.1175 94.1646L26.3215 94.5674C26.7013 95.2321 27.0944 95.888 27.5003 96.535ZM24.9153 91.9474L25.7563 91.6355C25.517 91.1624 25.2843 90.6847 25.0583 90.2026L24.2706 90.6223C24.4798 91.067 24.6947 91.509 24.9153 91.9474ZM23.6715 89.3043L24.4606 88.8842C24.298 88.5123 24.1393 88.1382 23.9847 87.7622L23.0993 87.9521C23.2843 88.4057 23.4751 88.8565 23.6715 89.3043ZM22.9 87.4565L23.7839 87.2669C23.5525 86.688 23.3306 86.1043 23.1184 85.5159L22.2391 85.7046C22.4499 86.2931 22.6702 86.8772 22.9 87.4565ZM22.2178 85.6449L22.1756 85.4485L22.15 85.4541C22.1725 85.5177 22.195 85.5813 22.2178 85.6449ZM21.8194 84.4884L22.6963 84.3003C22.4199 83.4732 22.1625 82.6374 21.9248 81.7932L21.0515 81.9805C21.2883 82.8248 21.5445 83.6608 21.8194 84.4884ZM20.5575 80.0928L21.4294 79.9058C21.2807 79.2956 21.1423 78.6814 21.0142 78.0634L20.1428 78.2503C20.2709 78.8683 20.4092 79.4825 20.5575 80.0928ZM19.7803 76.3343L20.6525 76.1472C20.5809 75.727 20.514 75.3051 20.452 74.8816L19.5787 75.0689C19.6412 75.4923 19.7084 75.9141 19.7803 76.3343ZM19.4801 74.3708L20.3542 74.1833C20.301 73.7849 20.2521 73.3852 20.2075 72.9842L19.3137 73.0095C19.3637 73.465 19.4193 73.9188 19.4801 74.3708ZM19.241 72.3081L20.1339 72.2827C20.0885 71.8201 20.0487 71.3559 20.0147 70.89L19.1231 70.9154C19.1567 71.3812 19.196 71.8455 19.241 72.3081ZM19.0282 69.2691L19.9191 69.2437C19.9106 69.0482 19.9032 68.8525 19.8968 68.6565L19.0055 68.6657C19.012 68.8671 19.0196 69.0683 19.0282 69.2691ZM36.1102 92.7958L36.7725 92.1827C36.6487 91.9973 36.5263 91.8102 36.4053 91.6222L35.6089 92.0321C35.7736 92.2878 35.9407 92.5427 36.1102 92.7958ZM35.1228 91.2577L35.9178 90.8487C35.7469 90.5715 35.5791 90.2926 35.4141 90.0119L34.6202 90.42C34.7849 90.7016 34.9524 90.9806 35.1228 91.2577ZM33.7794 88.9232L34.5723 88.5156C34.3996 88.1948 34.2307 87.8717 34.0655 87.5462L33.2728 87.9538C33.438 88.2792 33.6069 88.6023 33.7794 88.9232ZM32.7372 86.8639L33.5302 86.4561C33.3454 86.0667 33.1659 85.6743 32.9918 85.2789L32.1977 85.6872C32.3722 86.0823 32.5521 86.4746 32.7372 86.8639ZM31.8556 84.8926L32.6507 84.4839C32.4326 83.9618 32.2239 83.4348 32.0247 82.9031L31.1772 83.1815C31.3923 83.7573 31.6185 84.3279 31.8556 84.8926ZM30.1944 80.2592L31.0416 79.981C30.9355 79.6263 30.8335 79.2696 30.7359 78.9113L29.8625 79.0965C29.9683 79.4861 30.0789 79.8737 30.1944 80.2592ZM29.4551 77.4812L30.3272 77.2964C30.2484 76.9594 30.1734 76.6208 30.1021 76.2811L29.2165 76.4006C29.2919 76.7624 29.3714 77.1226 29.4551 77.4812ZM28.9059 74.7628L29.7898 74.6435C29.7023 74.1349 29.6233 73.6234 29.5528 73.1093L28.6521 73.0999C28.727 73.6574 28.8117 74.2118 28.9059 74.7628ZM28.5728 72.4778L29.4718 72.4871C29.4113 71.9962 29.3586 71.5027 29.3137 71.0071L28.4181 70.9978C28.4621 71.4934 28.5137 71.9868 28.5728 72.4778ZM28.3673 70.3761L29.2618 70.3854C29.2239 69.8926 29.1938 69.3975 29.1716 68.9006L28.2785 68.8751C28.3002 69.3775 28.3298 69.8779 28.3673 70.3761ZM19.0433 64.0486L19.936 64.0394C19.9641 63.4745 20.0007 62.9117 20.0457 62.3514L19.1613 62.2321C19.1124 62.8349 19.073 63.4405 19.0433 64.0486ZM19.3577 60.2478L20.2411 60.367C20.337 59.5444 20.4512 58.7273 20.583 57.9161L19.726 57.6347C19.5832 58.4991 19.4603 59.3704 19.3577 60.2478ZM20.0893 55.6566L20.942 55.9367C21.0918 55.1894 21.2567 54.4475 21.4363 53.7115L20.587 53.4325C20.4065 54.1683 20.2404 54.9098 20.0893 55.6566ZM21.586 49.8761L22.433 50.1543C22.7464 49.1656 23.087 48.1889 23.4538 47.2251L22.6562 46.815C22.271 47.8218 21.9139 48.8424 21.586 49.8761ZM23.0364 45.8489L23.8324 46.2582C24.0761 45.6527 24.3303 45.0526 24.5947 44.458L23.8007 44.0498C23.5357 44.6441 23.2809 45.2439 23.0364 45.8489ZM24.4103 42.7288L25.2033 43.1365C25.4272 42.6671 25.6573 42.2014 25.8939 41.7394L25.1013 41.3319C24.8647 41.7939 24.6343 42.2595 24.4103 42.7288ZM26.0713 39.521L26.8644 39.9288C27.0957 39.516 27.3321 39.1064 27.5737 38.7002L26.7795 38.2919C26.5385 38.6983 26.3023 39.108 26.0713 39.521ZM27.3464 37.3575L28.1416 37.7663C28.355 37.4232 28.572 37.0826 28.7927 36.7445L28.0178 36.3012C27.7902 36.6506 27.5664 37.0027 27.3464 37.3575ZM29.2857 34.4375L30.0631 34.8823C30.4878 34.2863 30.924 33.6991 31.3715 33.1211L30.7151 32.5132C30.2253 33.1441 29.7488 33.7857 29.2857 34.4375ZM28.327 63.8555L29.2183 63.8809C29.242 63.5059 29.2702 63.132 29.303 62.7595L28.4251 62.5711C28.3866 62.9976 28.3539 63.4258 28.327 63.8555ZM28.4819 61.9825L29.3585 62.1706C29.3945 61.8136 29.4346 61.4579 29.4787 61.1035L28.604 60.9158C28.5593 61.2701 28.5186 61.6257 28.4819 61.9825ZM28.7178 60.0747L28.8819 59.31L29.7091 59.4874C29.7882 58.9951 29.8753 58.5055 29.9699 58.0186L29.0958 57.8446C28.9524 58.5819 28.8262 59.3254 28.7178 60.0747ZM29.436 56.2468L30.3105 56.4209C30.4764 55.7063 30.6588 54.9982 30.8576 54.2968L30.0668 54.1395L30.2581 53.3117L31.0978 53.4788C31.2366 53.0216 31.3824 52.5674 31.535 52.1164L30.6624 51.9428L30.6828 51.8539C30.1983 53.2883 29.7813 54.7538 29.436 56.2468ZM30.9834 50.9925L31.8676 51.1685C32.0784 50.5882 32.3006 50.0133 32.534 49.4442L31.7705 49.1815L32.2229 48.0497L33.012 48.3212C33.1822 47.9357 33.3577 47.5531 33.538 47.1732L32.69 46.8814C32.0584 48.2183 31.4883 49.5898 30.9834 50.9925ZM33.5992 45.0612L34.4522 45.3547C34.7332 44.8256 35.0242 44.3027 35.3249 43.7862L34.5801 43.2941C34.2409 43.8753 33.9137 44.4644 33.5992 45.0612ZM39.2211 23.7237L39.8808 24.3345C40.2045 24.0668 40.5314 23.8027 40.8614 23.5423L40.3784 22.7883C39.9885 23.0951 39.6027 23.4069 39.2211 23.7237ZM41.0979 22.2317L41.5802 22.9846C42.3351 22.4087 43.1055 21.8518 43.8905 21.3146L43.4097 20.5638C42.6245 21.1006 41.8537 21.6567 41.0979 22.2317ZM45.7847 19.0267L46.2655 19.7774C47.4515 19.0522 48.6671 18.3706 49.91 17.7349L49.4496 16.9692C48.2 17.6102 46.9776 18.2967 45.7847 19.0267ZM50.747 16.3248L51.2083 17.0922C52.0093 16.7087 52.821 16.3441 53.6429 15.9988L53.3285 15.1641C52.4566 15.5298 51.5958 15.917 50.747 16.3248ZM56.5967 13.9127L56.911 14.7472C58.0822 14.3411 59.2714 13.9733 60.477 13.6456L60.2974 12.7707C59.0458 13.1096 57.8117 13.4908 56.5967 13.9127ZM63.7038 11.9624L63.8831 12.8355C65.2551 12.5553 66.6456 12.326 68.0526 12.1497V11.2516C66.5847 11.4325 65.1344 11.6702 63.7038 11.9624ZM70.8522 10.9777V11.8712C71.5484 11.8198 72.2483 11.7813 72.9516 11.756V10.8643C72.2484 10.8892 71.5485 10.9271 70.8522 10.9777ZM49.1896 27.8345L49.895 28.437C50.3851 28.1163 50.8817 27.8046 51.3845 27.5023L50.948 26.7249C50.3532 27.0821 49.7669 27.4521 49.1896 27.8345ZM53.1222 25.4974L53.5588 26.2748C54.142 25.9662 54.7325 25.6698 55.3303 25.3861L54.9049 24.6284L55.2055 24.4595C54.5014 24.7886 53.8067 25.1348 53.1222 25.4974ZM55.9381 24.1249L56.3765 24.9054C56.9495 24.6508 57.529 24.4075 58.1142 24.176L57.838 23.3268C57.1977 23.5791 56.5642 23.8453 55.9381 24.1249ZM58.912 22.9187L59.1878 23.7669C59.6498 23.5975 60.1155 23.4353 60.5844 23.2804L60.2792 22.5296L61.2678 22.1277C60.4732 22.371 59.6878 22.6348 58.912 22.9187ZM62.3288 21.8166L62.6667 22.6477C63.1309 22.5187 63.598 22.3968 64.0679 22.2822L64.0022 21.4348L66.1631 21.2674L66.2055 21.8149C67.0204 21.6571 67.8431 21.5209 68.6729 21.4069L68.6039 20.5168C66.4627 20.8085 64.3676 21.2451 62.3288 21.8166ZM70.9814 20.2546L71.0502 21.1432C71.6408 21.0932 72.2344 21.0544 72.8311 21.027L72.7623 20.1381C72.1656 20.1658 71.572 20.2047 70.9814 20.2546ZM55.6089 32.9929C61.1094 29.8381 67.4527 27.9861 74.2177 27.858V45.0708C71.6762 43.0994 69.1487 41.29 66.6664 39.6319C62.835 37.0726 59.1111 34.8731 55.6089 32.9929ZM66.1715 40.373C68.7122 42.0701 71.3004 43.9265 73.9023 45.9542C67.2005 51.2315 60.4225 57.6416 54.1382 65.3859C49.7127 59.8044 45.5068 53.5355 41.7085 46.5032C44.9478 41.2121 49.414 36.7537 54.7115 33.5238C58.3279 35.4466 62.1912 37.7142 66.1715 40.373ZM41.1786 47.3952C44.9305 54.2756 49.0698 60.4252 53.4208 65.9155H36.0089C36.1627 59.1813 38.0248 52.8691 41.1786 47.3952ZM32.5552 108.202C32.9206 107.005 33.2991 105.822 33.6902 104.657C34.47 105.507 35.2757 106.333 36.1062 107.134C35.5157 107.327 34.9794 107.496 34.5016 107.642C33.668 107.896 33.012 108.08 32.5552 108.202ZM34.0179 103.692C34.9912 104.773 36.0067 105.814 37.0617 106.815C38.4385 106.346 40.0524 105.762 41.8639 105.044C43.1042 104.553 44.437 104 45.8494 103.38C42.7014 100.869 39.8849 97.9599 37.4762 94.7286C36.2413 97.6043 35.0849 100.59 34.0179 103.692ZM74.2177 105.788C67.0628 105.652 60.3798 103.589 54.6665 100.095C58.3126 98.1586 62.2292 95.855 66.2834 93.1309C68.8834 91.3834 71.5398 89.4639 74.2177 87.356V105.788ZM75.1089 105.795V87.4164C77.6306 89.3828 80.1313 91.1828 82.5819 92.8297C86.9499 95.765 91.1582 98.2112 95.0405 100.237C89.2151 103.743 82.3977 105.77 75.1089 105.795ZM96.8378 100.158C99.0271 101.268 101.101 102.238 103.026 103.084C106.193 100.631 109.028 97.771 111.457 94.5852C110.533 92.4277 109.566 90.3336 108.56 88.2993C105.531 93.0284 101.528 97.075 96.8378 100.158ZM107.002 104.743C109.287 105.649 111.257 106.342 112.833 106.857C113.65 106.084 114.444 105.287 115.212 104.466C114.178 101.375 113.056 98.3965 111.856 95.528C109.55 98.4856 106.897 101.16 103.956 103.488C105.023 103.945 106.04 104.363 107.002 104.743ZM114.363 107.341C114.184 107.286 113.996 107.228 113.8 107.167C114.389 106.599 114.966 106.02 115.53 105.428C115.796 106.245 116.057 107.069 116.311 107.902C115.853 107.779 115.197 107.595 114.363 107.341ZM113.943 66.823C113.943 73.9873 112.01 80.7 108.637 86.4681C104.892 79.1405 100.638 72.6129 96.0984 66.8066H113.943V66.823ZM113.933 65.9155H95.6823C100.178 60.2073 104.444 53.791 108.284 46.5876C111.728 52.2445 113.771 58.8476 113.933 65.9155ZM108.211 44.8118C109.236 42.8358 110.229 40.8014 111.185 38.7071C108.595 35.3771 105.557 32.4135 102.16 29.9077C100.205 30.7829 98.1146 31.7775 95.9206 32.9022C100.827 35.9388 105.025 40.0102 108.211 44.8118ZM111.598 37.7915C112.847 35.0028 114.032 32.1091 115.143 29.1067C114.134 28.0326 113.083 26.9988 111.991 26.0084C110.595 26.4881 108.968 27.0812 107.151 27.8014C105.887 28.3024 104.531 28.8649 103.095 29.4935C106.269 31.8885 109.128 34.6789 111.598 37.7915ZM116.754 24.5229C116.343 25.7566 115.92 26.9729 115.485 28.1721C114.669 27.3161 113.825 26.4858 112.955 25.6828C113.616 25.4638 114.213 25.2738 114.74 25.1109C115.602 24.8454 116.281 24.6521 116.754 24.5229ZM107.738 45.7161C104.495 40.6925 100.129 36.4625 94.9945 33.3815C91.1387 35.3965 86.9841 37.808 82.6939 40.6738C80.2782 42.2875 77.8196 44.0451 75.3471 45.957C82.0093 51.2439 88.7358 57.6533 94.9676 65.3825C99.5315 59.5901 103.857 53.0625 107.738 45.7161ZM75.1089 27.851C82.0029 27.875 88.4752 29.689 94.0853 32.8525C90.3443 34.8274 86.3341 37.1705 82.1989 39.9329C79.8669 41.4906 77.4949 43.1818 75.1089 45.0155V27.851ZM54.8563 65.9155C61.0143 58.3317 67.6491 52.0376 74.2177 46.8403V62.3356C72.3478 62.5427 70.8664 64.0387 70.6816 65.9155H54.8563ZM71.5784 65.9155C71.7547 64.5314 72.8405 63.4314 74.2177 63.2339V65.9155H71.5784ZM75.1089 63.2339V65.9155H77.7477C77.5717 64.5314 76.486 63.4315 75.1089 63.2339ZM71.5925 66.8066H74.2177V69.3902C72.8731 69.1974 71.8062 68.1443 71.5925 66.8066ZM75.1089 66.8066V69.3902C76.4534 69.1973 77.5201 68.1443 77.7338 66.8066H75.1089ZM70.6925 66.8066C70.9182 68.6372 72.3804 70.085 74.2177 70.2886V85.5752C67.8442 80.4584 61.3729 74.2668 55.2813 66.8066H70.6925ZM65.7864 92.3912C68.4459 90.6036 71.1652 88.6344 73.9059 86.467C67.2493 81.1495 60.4805 74.6696 54.1366 66.8103C49.5109 72.6187 45.1699 79.1681 41.3479 86.5418C44.4297 91.7852 48.7032 96.2445 53.7963 99.547C57.5447 97.5749 61.5913 95.2099 65.7864 92.3912ZM35.9985 66.8066H53.003C48.6135 72.3842 44.4868 78.6319 40.8231 85.6203C37.7482 80.0464 35.9985 73.639 35.9985 66.823V66.8066ZM52.8912 100.018C48.0231 96.7738 43.9092 92.4875 40.8683 87.4768C39.8331 89.5164 38.8376 91.6177 37.8867 93.7832C40.4067 97.2434 43.3994 100.338 46.7698 102.971C48.6851 102.111 50.7355 101.131 52.8912 100.018ZM75.1089 70.2885V85.504C81.4186 80.3906 87.8127 74.2207 93.8289 66.8066H78.6337C78.4081 68.6371 76.9462 70.0849 75.1089 70.2885ZM83.0789 92.09C80.542 90.3853 77.9506 88.5145 75.3381 86.4643C81.9567 81.1365 88.6761 74.6568 94.9692 66.8125C99.7382 72.8409 104.2 79.662 108.094 87.3678C105.01 92.3297 100.842 96.5474 95.9219 99.6904C91.9374 97.6319 87.5942 95.1243 83.0789 92.09ZM78.6446 65.9155H94.2527C88.17 58.3754 81.6133 52.1013 75.1089 46.9062V62.3356C76.9788 62.5428 78.4599 64.0388 78.6446 65.9155ZM37.749 38.555C36.4696 35.7612 35.2543 32.8603 34.1128 29.8487C35.31 28.5266 36.5704 27.2629 37.8894 26.0623C39.0406 26.4711 40.3216 26.9485 41.7147 27.5006C43.2485 28.1084 44.9178 28.8068 46.6992 29.6042C43.3271 32.1695 40.3142 35.1827 37.749 38.555ZM34.1247 24.8101C34.9141 25.0534 35.8569 25.3576 36.9352 25.7286C35.8354 26.747 34.7766 27.8091 33.7614 28.9119C33.1919 27.3772 32.6414 25.8141 32.1112 24.222C32.5842 24.3512 33.2632 24.5445 34.1247 24.8101ZM38.1736 39.4729C40.847 35.8821 44.0336 32.6958 47.6249 30.0228C49.5685 30.9113 51.6353 31.9142 53.7966 33.0419C48.7227 36.2289 44.4177 40.5274 41.2229 45.5959C40.1727 43.6152 39.155 41.5748 38.1736 39.4729ZM9.33302 66.3121C9.33302 64.5945 10.7254 63.2022 12.4429 63.2022C14.1604 63.2022 15.5528 64.5945 15.5528 66.3121C15.5528 68.0296 14.1604 69.422 12.4429 69.422C10.7254 69.422 9.33302 68.0296 9.33302 66.3121ZM133.424 66.3611C133.424 64.6435 134.816 63.2513 136.534 63.2513C138.251 63.2513 139.644 64.6436 139.644 66.3611C139.644 68.0786 138.251 69.471 136.534 69.471C134.816 69.471 133.424 68.0787 133.424 66.3611ZM71.5533 128.714C71.5533 126.996 72.9457 125.604 74.6632 125.604C76.3808 125.604 77.7728 126.996 77.7728 128.714C77.7728 130.432 76.3808 131.824 74.6632 131.824C72.9457 131.824 71.5533 130.432 71.5533 128.714Z"/>
</mask>
<path fill-rule="evenodd" clip-rule="evenodd" d="M71.5533 4.00099C71.5533 2.28346 72.9457 0.891128 74.6632 0.891128C76.3808 0.891128 77.7728 2.28342 77.7728 4.00099C77.7728 5.71858 76.3808 7.11087 74.6632 7.11087C72.9457 7.11087 71.5533 5.71853 71.5533 4.00099ZM74.6632 0C72.4536 0 70.6622 1.7913 70.6622 4.00099C70.6622 6.0601 72.2178 7.7559 74.2177 7.97747V10.0689H74.3514V15.6681H74.2177V20.0927C74.1089 20.0945 74.0001 20.0965 73.8914 20.099L73.9604 20.9888C74.0461 20.9869 74.1319 20.9853 74.2177 20.984V26.9667C67.0928 27.0987 60.4248 29.1 54.6836 32.5008C52.9028 31.5626 51.1836 30.7079 49.5412 29.9312L49.4114 30.0831L48.858 29.6105C48.7219 29.547 48.5863 29.4842 48.4513 29.4218C48.4852 29.3979 48.519 29.3739 48.5529 29.3499L47.8857 28.7801L47.9935 28.654C47.8341 28.7668 47.6756 28.8806 47.5178 28.9952C45.5528 28.1067 43.7178 27.3359 42.043 26.6722C41.6818 26.529 41.3279 26.3907 40.9819 26.2574L40.8167 26.4357L40.3726 26.0247C39.7712 25.7968 39.1949 25.5843 38.6457 25.3864C38.8234 25.2305 39.0022 25.0758 39.1818 24.9222L38.5235 24.3126C38.2419 24.5543 37.9627 24.7987 37.686 25.0459C36.4047 24.5981 35.2962 24.2388 34.3872 23.9585C33.4761 23.6776 32.7651 23.4761 32.2809 23.3446C32.0388 23.2788 31.8534 23.2306 31.728 23.1986C31.6652 23.1827 31.6176 23.1707 31.5852 23.1628L31.5484 23.1538L31.5387 23.1515L31.5361 23.1509C31.5361 23.1509 31.5349 23.1506 31.4315 23.584L31.5349 23.1506L30.7606 22.9657L31.008 23.7224C31.6696 25.7461 32.3638 27.7239 33.0881 29.6566C32.7646 30.0209 32.4457 30.3895 32.1316 30.7623L32.7863 31.3683C33.0036 31.1101 33.2233 30.8538 33.4453 30.5995C33.7238 31.3275 34.0067 32.049 34.2937 32.764L34.4576 32.9158L34.3859 32.9931C35.2674 35.1782 36.1877 37.3033 37.143 39.3699C36.3551 40.4538 35.6126 41.5728 34.9183 42.7242L35.8777 41.2722L36.5884 41.7418C36.9083 41.2532 37.2373 40.771 37.5751 40.2956C38.5755 42.4183 39.6128 44.4785 40.6829 46.4777C37.2858 52.1906 35.2759 58.8246 35.1175 65.9155H29.1342C29.1436 65.431 29.1605 64.9483 29.1849 64.4676L28.2938 64.4423C28.2693 64.9314 28.2523 65.4225 28.2429 65.9155H19.8742C19.8803 65.5372 19.8902 65.1598 19.9039 64.7835L19.0119 64.7927C18.9986 65.166 18.9889 65.5403 18.983 65.9155H16.4245C16.2253 63.892 14.5187 62.311 12.4429 62.311C10.2332 62.311 8.44189 64.1024 8.44189 66.3121C8.44189 68.5217 10.2332 70.3131 12.4429 70.3131C14.4852 70.3131 16.17 68.7829 16.4136 66.8066H18.9757V66.8229C18.9757 67.045 18.9771 67.2667 18.9797 67.4881L19.8707 67.4789C19.8682 67.2605 19.8669 67.0418 19.8669 66.8229V66.8066H28.2342V66.823C28.2342 67.0478 28.2358 67.2724 28.239 67.4965L29.1306 67.5219C29.1271 67.2893 29.1253 67.0564 29.1253 66.823V66.8066H35.1074V66.823C35.1074 74.0064 37.0074 80.746 40.3322 86.5666C39.2748 88.6265 38.2576 90.7498 37.2857 92.9384C37.2617 92.9036 37.2378 92.8689 37.2139 92.8341L36.5534 93.4463C36.657 93.5951 36.7615 93.7439 36.8667 93.8919C35.6084 96.7889 34.4291 99.7992 33.3401 102.926C33.2988 102.878 33.2577 102.831 33.2165 102.783L32.5403 103.364C32.6945 103.542 32.8497 103.72 33.0061 103.897C32.472 105.469 31.9606 107.072 31.4735 108.702L31.254 109.438L32.0014 109.264L31.9004 108.83C32.0014 109.264 32.0024 109.264 32.0024 109.264H32.005L32.0144 109.261L32.0501 109.252C32.0814 109.245 32.1275 109.234 32.1882 109.218C32.3095 109.189 32.4888 109.143 32.723 109.08C33.1913 108.955 33.8791 108.763 34.7615 108.494C35.3659 108.31 36.0616 108.089 36.8406 107.829C37.2166 108.179 37.5974 108.524 37.9828 108.864L38.6355 108.251C38.3548 108.004 38.0767 107.755 37.8012 107.503C39.0878 107.058 40.5609 106.519 42.1919 105.873C43.5697 105.328 45.0604 104.706 46.6467 104.002C47.1357 104.375 47.6322 104.739 48.1359 105.092L48.8051 104.473C48.3898 104.184 47.9795 103.888 47.5744 103.586C49.5115 102.706 51.5803 101.707 53.7517 100.576C59.6981 104.322 66.7038 106.541 74.2177 106.68V112.662C74.1549 112.661 74.0921 112.66 74.0293 112.658V113.55C74.0922 113.551 74.1549 113.552 74.2177 113.553V121.746L74.351 121.756L74.2177 123.475V124.737C72.2178 124.959 70.6622 126.655 70.6622 128.714C70.6622 130.924 72.4536 132.715 74.6632 132.715C76.8729 132.715 78.6639 130.924 78.6639 128.714C78.6639 126.655 77.1088 124.959 75.1089 124.737V122.817C75.3736 122.816 75.6379 122.814 75.9019 122.81V121.919C75.6379 121.923 75.3736 121.925 75.1089 121.926V113.559C75.4049 113.558 75.7002 113.555 75.9949 113.548L75.9259 112.658C75.6541 112.663 75.3818 112.667 75.1089 112.668V106.686C82.7612 106.66 89.9058 104.478 95.9667 100.715C98.1725 101.843 100.265 102.833 102.214 103.699C102.122 103.766 102.03 103.834 101.938 103.901L102.469 104.617C102.698 104.45 102.926 104.282 103.151 104.11C104.392 104.649 105.569 105.135 106.673 105.572C108.756 106.396 110.581 107.048 112.088 107.549C111.645 107.953 111.196 108.35 110.741 108.739L111.399 109.348C111.963 108.865 112.516 108.372 113.06 107.867C113.433 107.986 113.781 108.095 114.104 108.194C114.986 108.463 115.674 108.654 116.142 108.779C116.376 108.841 116.556 108.888 116.677 108.918C116.738 108.933 116.784 108.944 116.815 108.952L116.851 108.96L116.86 108.963H116.863C116.863 108.963 116.864 108.964 116.889 108.857L116.964 108.535L116.864 108.964L117.612 109.137L117.391 108.402C117.016 107.146 116.627 105.907 116.224 104.685C116.602 104.274 116.973 103.856 117.34 103.433L116.685 102.827C116.426 103.127 116.165 103.423 115.901 103.717C114.845 100.601 113.701 97.6007 112.479 94.7099C112.583 94.5691 112.687 94.4283 112.79 94.2866L112.296 93.9596L113.62 91.9555L114.153 92.3074C114.447 91.8565 114.734 91.3994 115.013 90.9378L114.395 90.7088L114.882 89.3952C114.027 90.9057 113.087 92.3618 112.071 93.7591C111.129 91.5803 110.141 89.4639 109.114 87.4104C112.744 81.4014 114.834 74.3562 114.834 66.823V66.8066H120.815V66.823C120.815 67.1273 120.812 67.431 120.806 67.7339L121.697 67.7593C121.704 67.4479 121.706 67.1358 121.706 66.823V66.8066H130.073V66.8229C130.073 67.28 130.068 67.7359 130.057 68.1904L130.948 68.1812C130.959 67.7297 130.964 67.2769 130.964 66.8229V66.8066H132.558C132.611 67.2889 132.75 67.7453 132.959 68.1603L133 68.1599L133 68.2403C133.673 69.5028 135.003 70.3621 136.534 70.3621C138.743 70.3621 140.535 68.5708 140.535 66.3611C140.535 64.1514 138.743 62.3601 136.534 62.3601C134.728 62.3601 133.203 63.5552 132.705 65.1972L132.716 65.608L132.603 65.6113C132.584 65.7114 132.569 65.8128 132.558 65.9155H130.957C130.956 65.8296 130.954 65.7439 130.953 65.6583L130.061 65.6836C130.063 65.7608 130.065 65.8381 130.066 65.9155H123.689L123.683 66.1216L120.695 66.0366L120.698 65.9155H114.824C114.658 58.4892 112.462 51.5641 108.767 45.6735C109.811 43.6796 110.822 41.6262 111.796 39.5116C112.081 39.8956 112.36 40.2842 112.634 40.6773L113.382 40.1921C113.004 39.649 112.616 39.1144 112.217 38.5885C113.486 35.7803 114.69 32.8659 115.82 29.8413C116.122 30.1735 116.418 30.5094 116.712 30.849L117.388 30.2685C116.989 29.8059 116.582 29.3499 116.169 28.9007C116.752 27.3054 117.316 25.6797 117.857 24.0233L118.104 23.2665L117.33 23.4514L117.434 23.8848C117.33 23.4514 117.329 23.4517 117.329 23.4517L117.326 23.4523L117.317 23.4547L117.28 23.4637L117.24 23.4736C117.212 23.4806 117.178 23.4892 117.137 23.4996C117.012 23.5315 116.826 23.5798 116.584 23.6455C116.1 23.777 115.389 23.9785 114.478 24.2593C113.82 24.4623 113.057 24.7069 112.199 24.9964C111.954 24.7782 111.707 24.562 111.458 24.3479L110.774 24.9352C110.926 25.0657 111.078 25.1971 111.229 25.3292C109.93 25.7825 108.452 26.3271 106.823 26.973C105.412 27.5319 103.888 28.1667 102.269 28.8839C102.231 28.8563 102.192 28.8289 102.154 28.8014L101.356 29.5402L101.194 29.3654C99.2525 30.2466 97.1858 31.2421 95.0224 32.3625C89.1692 28.9493 82.3675 26.9846 75.1089 26.9599V20.9781C75.3737 20.9789 75.6381 20.982 75.9019 20.9872V20.0959C75.638 20.0907 75.3737 20.0878 75.1089 20.087V11.7199C75.4109 11.7206 75.7125 11.7239 76.0134 11.7294L76.0824 10.8394C75.7586 10.8331 75.434 10.8295 75.1089 10.8288V7.97745C77.1088 7.75581 78.6639 6.06002 78.6639 4.00099C78.6639 1.79135 76.8729 0 74.6632 0ZM77.4344 10.8818L77.3655 11.7709C78.0802 11.8015 78.7914 11.8456 79.4987 11.9031L79.5676 11.0146C78.8601 10.9571 78.149 10.9128 77.4344 10.8818ZM81.1979 11.171L81.1291 12.0601C81.7562 12.1299 82.3802 12.2101 83.0009 12.3007L83.235 11.4343C82.5598 11.3344 81.8807 11.2466 81.1979 11.171ZM84.9759 11.72L84.7424 12.5836C85.2567 12.6757 85.7685 12.7748 86.2777 12.8811L86.492 12.0153C85.9891 11.9101 85.4836 11.8116 84.9759 11.72ZM88.5391 12.4839L88.3249 13.3491C88.6666 13.4342 89.007 13.5224 89.3461 13.6138L89.5604 12.7484C89.2212 12.6571 88.8808 12.5689 88.5391 12.4839ZM89.9204 12.8466L89.7061 13.7121C90.0774 13.815 90.4471 13.9216 90.8152 14.0319L91.0297 13.1656C90.6615 13.0556 90.2917 12.9492 89.9204 12.8466ZM91.3873 13.2738L91.1728 14.1403C91.4585 14.2281 91.7432 14.3181 92.0268 14.4104L92.3758 13.5867C92.0476 13.4794 91.718 13.3751 91.3873 13.2738ZM93.352 13.9157L93.0035 14.7382C93.4063 14.8776 93.8069 15.0216 94.2054 15.17L94.5891 14.3619C94.179 14.2084 93.7666 14.0597 93.352 13.9157ZM95.5505 14.7318L95.1673 15.5388C96.3181 15.9924 97.4501 16.4835 98.561 17.0108L98.9433 16.2057C97.8321 15.6783 96.7007 15.1865 95.5505 14.7318ZM101.028 17.2482L100.644 18.0541C100.881 18.1786 101.116 18.3049 101.35 18.4328L101.733 17.6263C101.499 17.4986 101.264 17.3726 101.028 17.2482ZM102.227 17.8988L101.844 18.7058C102.407 19.0209 102.964 19.3456 103.514 19.6797L104.115 19.0022C103.494 18.6225 102.864 18.2547 102.227 17.8988ZM104.602 19.3026L104.001 19.9789C104.557 20.3237 105.105 20.6782 105.647 21.042L106.244 20.3694C105.703 20.0045 105.156 19.6488 104.602 19.3026ZM107.131 20.98L106.536 21.6509C106.875 21.8888 107.212 22.1304 107.546 22.3756L108.184 21.7383C107.836 21.4815 107.485 21.2287 107.131 20.98ZM109.53 22.7631L108.895 23.3976C109.129 23.5808 109.361 23.7658 109.592 23.9528L110.28 23.3628C110.032 23.1608 109.781 22.9608 109.53 22.7631ZM110.75 23.7492L110.064 24.338C110.165 24.4217 110.266 24.5057 110.367 24.59L111.052 24.0019C110.951 23.9173 110.851 23.833 110.75 23.7492ZM77.0711 20.1332V21.0252C77.6585 21.0517 78.2429 21.0892 78.8242 21.1376V20.2434C78.2428 20.196 77.6584 20.1592 77.0711 20.1332ZM81.1628 20.4934V21.3926C81.8387 21.4838 82.5098 21.5898 83.1758 21.7102L83.3552 20.8369C82.6301 20.7055 81.8992 20.5909 81.1628 20.4934ZM86.2139 21.4481L86.0345 22.3219C86.7941 22.5102 87.5462 22.7173 88.2903 22.943L88.6052 22.107C87.8167 21.8668 87.0194 21.6471 86.2139 21.4481ZM91.375 23.047L91.0608 23.8811C91.6575 24.1048 92.2485 24.3406 92.8332 24.5883L93.297 23.8169C92.6634 23.5465 92.0225 23.2897 91.375 23.047ZM94.4088 24.3085L93.9466 25.0773C94.5341 25.3448 95.1149 25.6244 95.6888 25.9156L96.1719 25.1613C95.5912 24.8652 95.0033 24.5808 94.4088 24.3085ZM98.2545 26.291L97.7733 27.0424C98.2723 27.3292 98.766 27.625 99.2525 27.9298L99.8059 27.2245C99.2953 26.9037 98.7785 26.5924 98.2545 26.291ZM100.447 27.6343L99.8941 28.3385C100.216 28.5473 100.535 28.76 100.851 28.9765L101.521 28.3559C101.167 28.1106 100.808 27.87 100.447 27.6343ZM117.73 30.6695L117.054 31.25C117.26 31.4922 117.462 31.7363 117.663 31.9821L118.34 31.4015C118.138 31.1557 117.935 30.9117 117.73 30.6695ZM119.356 32.6825L118.679 33.2638C119.409 34.2129 120.108 35.1864 120.776 36.1829L121.52 35.6916C120.831 34.664 120.109 33.6605 119.356 32.6825ZM123.059 38.1211L122.315 38.613C122.622 39.1279 122.922 39.6482 123.212 40.1738L124.057 39.8604C123.734 39.2742 123.402 38.6944 123.059 38.1211ZM125.388 42.4339L124.549 42.7453C124.696 43.0491 124.841 43.3546 124.984 43.6616L125.822 43.3507C125.68 43.0436 125.535 42.7379 125.388 42.4339ZM126.413 44.6728L125.576 44.9832C125.848 45.6129 126.108 46.2487 126.358 46.8903L127.24 46.7011C126.977 46.0185 126.701 45.3423 126.413 44.6728ZM127.652 47.8043L126.772 47.9929C126.969 48.5346 127.158 49.0803 127.338 49.6297L128.214 49.4417C128.035 48.8922 127.848 48.3463 127.652 47.8043ZM128.522 50.4124L127.647 50.6001C127.902 51.432 128.139 52.2723 128.356 53.1205L129.228 52.9333C129.012 52.0852 128.776 51.2446 128.522 50.4124ZM129.677 54.8307L128.806 55.0177C128.94 55.6312 129.063 56.2486 129.177 56.8696L130.049 56.6826C129.935 56.0616 129.811 55.4444 129.677 54.8307ZM130.366 58.6082L129.493 58.7955C129.554 59.218 129.611 59.642 129.663 60.0676L130.538 59.8799C130.486 59.4545 130.429 59.0306 130.366 58.6082ZM130.62 60.5815L129.744 60.7695C129.787 61.1587 129.825 61.5492 129.86 61.9409L130.752 61.9154C130.714 61.4693 130.67 61.0247 130.62 60.5815ZM130.809 62.6174L129.917 62.6428C129.952 63.1057 129.981 63.5703 130.004 64.0363L130.896 64.0109C130.872 63.5449 130.843 63.0803 130.809 62.6174ZM114.034 41.1555L113.286 41.6404C113.912 42.5907 114.503 43.5657 115.058 44.5636L115.883 44.2125C115.304 43.1684 114.688 42.1487 114.034 41.1555ZM116.436 45.241L115.613 45.5913C115.86 46.0617 116.098 46.5369 116.327 47.0167L117.149 46.6672C116.919 46.1872 116.681 45.7117 116.436 45.241ZM117.841 48.1818L117.021 48.531C117.299 49.1689 117.563 49.8145 117.812 50.4671L118.694 50.2801C118.426 49.5723 118.142 48.8726 117.841 48.1818ZM119.79 53.5342L118.943 53.8124C119.041 54.144 119.135 54.4772 119.225 54.8118L120.099 54.6267C120.001 54.2608 119.897 53.8966 119.79 53.5342ZM120.503 56.2425L119.632 56.4274C119.706 56.7479 119.777 57.0697 119.845 57.3927L120.73 57.2731C120.658 56.9282 120.583 56.5846 120.503 56.2425ZM121.04 58.911L120.156 59.0303C120.237 59.506 120.312 59.9843 120.378 60.4649L121.279 60.4742C121.207 59.9503 121.128 59.4292 121.04 58.911ZM121.359 61.0963L120.46 61.087C120.521 61.5779 120.575 62.0713 120.62 62.567L121.516 62.5763C121.471 62.0807 121.419 61.5873 121.359 61.0963ZM121.568 63.1981L120.673 63.1888C120.712 63.6774 120.742 64.1682 120.765 64.661L121.658 64.6865C121.636 64.1883 121.606 63.6921 121.568 63.1981ZM130.926 68.9252L130.034 68.9343C130.019 69.3374 129.999 69.7393 129.975 70.1401L130.869 70.1308C130.892 69.73 130.911 69.3281 130.926 68.9252ZM130.82 70.875L129.926 70.8843C129.886 71.4288 129.839 71.971 129.783 72.511L130.667 72.6303C130.727 72.0478 130.778 71.4626 130.82 70.875ZM130.428 74.6087L129.545 74.4894C129.435 75.2776 129.308 76.0606 129.166 76.8378L130.02 77.1184C130.175 76.2882 130.31 75.4514 130.428 74.6087ZM129.618 79.0837L128.768 78.8043C128.603 79.547 128.423 80.2839 128.228 81.015L129.077 81.2936C129.272 80.5627 129.452 79.826 129.618 79.0837ZM128.007 84.8268L127.16 84.5487C126.84 85.4934 126.494 86.4265 126.124 87.3473L126.92 87.7566C127.309 86.7931 127.671 85.8161 128.007 84.8268ZM126.524 88.7143L125.729 88.3057C125.475 88.9058 125.21 89.5004 124.935 90.0894L125.728 90.4976C126.003 89.9085 126.269 89.3142 126.524 88.7143ZM125.095 91.8066L124.303 91.3994C124.07 91.8646 123.833 92.3253 123.587 92.7833L124.38 93.1906C124.625 92.7334 124.864 92.2718 125.095 91.8066ZM123.378 94.9853L122.584 94.5772C122.345 94.9862 122.101 95.3916 121.852 95.7935L122.647 96.2026C122.896 95.7998 123.139 95.3943 123.378 94.9853ZM122.063 97.1285L121.266 96.7185C121.054 97.0465 120.839 97.3717 120.62 97.6943L121.396 98.1381C121.622 97.8039 121.844 97.4671 122.063 97.1285ZM120.095 99.9827L119.316 99.5372C118.927 100.064 118.529 100.583 118.121 101.095L118.777 101.702C119.227 101.138 119.666 100.565 120.095 99.9827ZM121.665 68.7945L120.775 68.7691C120.753 69.2847 120.723 69.7981 120.685 70.3092L121.576 70.3345C121.614 69.8234 121.644 69.31 121.665 68.7945ZM121.529 70.9209L120.637 70.8955C120.61 71.202 120.58 71.5076 120.547 71.8123L121.423 72.0003C121.462 71.6417 121.498 71.2818 121.529 70.9209ZM121.354 72.5864L120.479 72.3988C120.436 72.7542 120.389 73.1086 120.338 73.4614L121.212 73.6488C121.263 73.296 121.311 72.9418 121.354 72.5864ZM120.947 75.2576L120.076 75.0705C119.981 75.5895 119.879 76.1052 119.766 76.6178L120.638 76.8048C120.749 76.2921 120.853 75.7763 120.947 75.2576ZM120.264 78.39L119.399 78.2045L119.443 78.0016C119.248 78.7786 119.034 79.5477 118.799 80.3083L119.675 80.496C119.887 79.8007 120.084 79.0986 120.264 78.39ZM119.419 81.307L118.582 81.1275L118.665 80.7407C117.803 83.4479 116.697 86.0459 115.372 88.5089L116.216 88.8217C116.383 88.5086 116.547 88.1934 116.707 87.8761L116.453 87.782L116.722 87.0567L117.052 87.179C117.182 86.9114 117.309 86.6423 117.434 86.3718L116.829 86.1475L117.249 85.0157L117.926 85.2669C118.163 84.7157 118.389 84.1589 118.606 83.5969L117.997 83.4664L118.089 83.0364L118.764 83.1811C118.995 82.5625 119.213 81.9377 119.419 81.307ZM110.702 109.937L110.041 109.326C109.615 109.679 109.181 110.026 108.744 110.366L109.227 111.119C109.725 110.733 110.217 110.339 110.702 109.937ZM108.503 111.67L108.021 110.918C107.262 111.487 106.488 112.038 105.699 112.569L106.18 113.32C106.969 112.789 107.744 112.239 108.503 111.67ZM103.794 114.839L103.313 114.088C102.131 114.799 100.921 115.465 99.6829 116.087L100.144 116.854C101.388 116.226 102.605 115.554 103.794 114.839ZM98.8408 117.489L98.3792 116.721C97.6458 117.066 96.9039 117.394 96.1533 117.707L96.4677 118.542C97.2684 118.209 98.0602 117.858 98.8408 117.489ZM93.1961 119.784L92.8817 118.949C91.774 119.33 90.6503 119.677 89.512 119.987L89.6915 120.862C90.8758 120.54 92.0444 120.18 93.1961 119.784ZM86.2857 121.674L86.1064 120.8C84.8203 121.064 83.5177 121.283 82.2006 121.456V122.354C83.5787 122.177 84.9409 121.949 86.2857 121.674ZM78.1759 122.727V121.834C77.8851 121.851 77.5937 121.865 77.3017 121.878V122.77C77.5937 122.757 77.8851 122.743 78.1759 122.727ZM100.932 105.69L100.401 104.974C99.8656 105.331 99.322 105.678 98.7704 106.014L99.3033 106.733C99.854 106.396 100.398 106.049 100.932 105.69ZM98.8453 107.009L98.3124 106.289C97.882 106.544 97.4471 106.793 97.008 107.033L97.5434 107.756C97.694 107.673 97.8446 107.589 97.9943 107.504L97.5986 106.971L98.0263 106.654L98.4585 107.237C98.5886 107.162 98.717 107.085 98.8453 107.009ZM96.1794 108.481L95.641 107.754C94.9271 108.116 94.2024 108.459 93.4676 108.784L94.874 108.403L95.0461 109.039C95.4267 108.858 95.8045 108.672 96.1794 108.481ZM93.6374 109.683L93.4022 108.812C92.8241 109.066 92.2397 109.309 91.6494 109.539L91.9691 109.453L92.1935 110.283C92.6789 110.091 93.1602 109.89 93.6374 109.683ZM89.4864 111.261L89.2535 110.399C87.4032 111.005 85.5011 111.497 83.5554 111.866L83.7886 112.729C84.4661 112.599 85.1382 112.455 85.8049 112.297L85.7003 111.91L87.9012 111.315L88.0095 111.716C88.5053 111.572 88.9976 111.42 89.4864 111.261ZM82.4358 112.966L82.202 112.101C81.5386 112.206 80.8705 112.297 80.198 112.373L80.267 113.262C80.9951 113.18 81.7182 113.081 82.4358 112.966ZM78.9052 113.396L78.8364 112.508C78.2458 112.557 77.652 112.595 77.0553 112.622L77.1241 113.51C77.7208 113.483 78.3146 113.445 78.9052 113.396ZM72.9162 122.78L72.9851 121.891C72.3571 121.869 71.7318 121.836 71.1093 121.793L71.0405 122.682C71.663 122.724 72.2883 122.757 72.9162 122.78ZM69.6937 122.572L69.7625 121.683C68.7981 121.593 67.8408 121.478 66.8914 121.338L66.8224 122.229C67.7719 122.367 68.7293 122.482 69.6937 122.572ZM65.4835 122.017L65.5527 121.125C65.0902 121.045 64.6297 120.96 64.1713 120.868L63.9686 121.737C64.4711 121.837 64.9762 121.93 65.4835 122.017ZM63.4441 121.63L63.6467 120.761C63.3805 120.706 63.1148 120.648 62.85 120.589L62.6473 121.457C62.9122 121.517 63.1778 121.574 63.4441 121.63ZM62.1258 121.337L62.3285 120.469C61.7425 120.332 61.1601 120.185 60.5815 120.029L60.3788 120.897C60.9575 121.053 61.5398 121.2 62.1258 121.337ZM59.3338 120.605L59.5368 119.735C58.6861 119.488 57.8439 119.22 57.0107 118.933L56.807 119.806C57.6405 120.091 58.483 120.358 59.3338 120.605ZM55.7788 119.442L55.9829 118.567C55.4131 118.359 54.8476 118.14 54.2868 117.913L54.0817 118.791C54.643 119.017 55.2087 119.234 55.7788 119.442ZM52.6732 118.202L52.8792 117.32C52.2835 117.059 51.6933 116.788 51.1088 116.506L50.6755 117.287C51.3343 117.605 52.0003 117.91 52.6732 118.202ZM49.327 116.614L49.7598 115.834C49.154 115.521 48.5546 115.199 47.962 114.865L47.5294 115.644C48.122 115.978 48.7213 116.301 49.327 116.614ZM46.7991 115.225L47.2318 114.446C47.0238 114.325 46.8166 114.202 46.6103 114.078L46.1775 114.857C46.3838 114.981 46.5911 115.104 46.7991 115.225ZM45.4586 114.418L45.8917 113.638C45.2429 113.234 44.603 112.817 43.9725 112.387L43.5382 113.17C44.1692 113.598 44.8094 114.014 45.4586 114.418ZM42.2728 112.284L42.7084 111.5C42.3715 111.256 42.0373 111.009 41.7062 110.757L41.0475 111.376C41.4516 111.684 41.8601 111.987 42.2728 112.284ZM39.8249 110.417L40.4809 109.8C40.1225 109.512 39.7678 109.22 39.4169 108.923L38.7631 109.537C39.1134 109.835 39.4673 110.128 39.8249 110.417ZM72.86 113.513V112.621C72.2728 112.594 71.6884 112.556 71.107 112.508V113.401C71.6884 113.449 72.2728 113.486 72.86 113.513ZM68.7684 113.151V112.252C68.1315 112.166 67.4988 112.066 66.8706 111.955L66.6913 112.828C67.3785 112.951 68.071 113.059 68.7684 113.151ZM63.8311 112.223L64.0105 111.35C63.2793 111.17 62.5551 110.973 61.8382 110.759L61.5232 111.596C62.2846 111.824 63.054 112.033 63.8311 112.223ZM58.7491 110.667L59.0633 109.833C58.4963 109.623 57.9346 109.403 57.3784 109.171L56.9143 109.944C57.5195 110.197 58.1312 110.438 58.7491 110.667ZM55.7985 109.458L56.2611 108.689C55.6759 108.427 55.0974 108.153 54.5257 107.868L54.0422 108.623C54.6209 108.914 55.2064 109.192 55.7985 109.458ZM51.951 107.507L52.4324 106.754C51.9451 106.479 51.4633 106.195 50.9873 105.902L50.4341 106.608C50.9335 106.917 51.4393 107.216 51.951 107.507ZM49.79 106.203L50.3424 105.498C50.0411 105.305 49.7423 105.11 49.4459 104.911L48.7743 105.533C49.1098 105.761 49.4484 105.984 49.79 106.203ZM31.3086 101.884L31.9851 101.303C30.9632 100.031 29.9966 98.712 29.0889 97.3503L28.3453 97.8422C29.2736 99.2342 30.2627 100.583 31.3086 101.884ZM27.5003 96.535L28.2441 96.0439C27.8565 95.4255 27.4809 94.799 27.1175 94.1646L26.3215 94.5674C26.7013 95.2321 27.0944 95.888 27.5003 96.535ZM24.9153 91.9474L25.7563 91.6355C25.517 91.1624 25.2843 90.6847 25.0583 90.2026L24.2706 90.6223C24.4798 91.067 24.6947 91.509 24.9153 91.9474ZM23.6715 89.3043L24.4606 88.8842C24.298 88.5123 24.1393 88.1382 23.9847 87.7622L23.0993 87.9521C23.2843 88.4057 23.4751 88.8565 23.6715 89.3043ZM22.9 87.4565L23.7839 87.2669C23.5525 86.688 23.3306 86.1043 23.1184 85.5159L22.2391 85.7046C22.4499 86.2931 22.6702 86.8772 22.9 87.4565ZM22.2178 85.6449L22.1756 85.4485L22.15 85.4541C22.1725 85.5177 22.195 85.5813 22.2178 85.6449ZM21.8194 84.4884L22.6963 84.3003C22.4199 83.4732 22.1625 82.6374 21.9248 81.7932L21.0515 81.9805C21.2883 82.8248 21.5445 83.6608 21.8194 84.4884ZM20.5575 80.0928L21.4294 79.9058C21.2807 79.2956 21.1423 78.6814 21.0142 78.0634L20.1428 78.2503C20.2709 78.8683 20.4092 79.4825 20.5575 80.0928ZM19.7803 76.3343L20.6525 76.1472C20.5809 75.727 20.514 75.3051 20.452 74.8816L19.5787 75.0689C19.6412 75.4923 19.7084 75.9141 19.7803 76.3343ZM19.4801 74.3708L20.3542 74.1833C20.301 73.7849 20.2521 73.3852 20.2075 72.9842L19.3137 73.0095C19.3637 73.465 19.4193 73.9188 19.4801 74.3708ZM19.241 72.3081L20.1339 72.2827C20.0885 71.8201 20.0487 71.3559 20.0147 70.89L19.1231 70.9154C19.1567 71.3812 19.196 71.8455 19.241 72.3081ZM19.0282 69.2691L19.9191 69.2437C19.9106 69.0482 19.9032 68.8525 19.8968 68.6565L19.0055 68.6657C19.012 68.8671 19.0196 69.0683 19.0282 69.2691ZM36.1102 92.7958L36.7725 92.1827C36.6487 91.9973 36.5263 91.8102 36.4053 91.6222L35.6089 92.0321C35.7736 92.2878 35.9407 92.5427 36.1102 92.7958ZM35.1228 91.2577L35.9178 90.8487C35.7469 90.5715 35.5791 90.2926 35.4141 90.0119L34.6202 90.42C34.7849 90.7016 34.9524 90.9806 35.1228 91.2577ZM33.7794 88.9232L34.5723 88.5156C34.3996 88.1948 34.2307 87.8717 34.0655 87.5462L33.2728 87.9538C33.438 88.2792 33.6069 88.6023 33.7794 88.9232ZM32.7372 86.8639L33.5302 86.4561C33.3454 86.0667 33.1659 85.6743 32.9918 85.2789L32.1977 85.6872C32.3722 86.0823 32.5521 86.4746 32.7372 86.8639ZM31.8556 84.8926L32.6507 84.4839C32.4326 83.9618 32.2239 83.4348 32.0247 82.9031L31.1772 83.1815C31.3923 83.7573 31.6185 84.3279 31.8556 84.8926ZM30.1944 80.2592L31.0416 79.981C30.9355 79.6263 30.8335 79.2696 30.7359 78.9113L29.8625 79.0965C29.9683 79.4861 30.0789 79.8737 30.1944 80.2592ZM29.4551 77.4812L30.3272 77.2964C30.2484 76.9594 30.1734 76.6208 30.1021 76.2811L29.2165 76.4006C29.2919 76.7624 29.3714 77.1226 29.4551 77.4812ZM28.9059 74.7628L29.7898 74.6435C29.7023 74.1349 29.6233 73.6234 29.5528 73.1093L28.6521 73.0999C28.727 73.6574 28.8117 74.2118 28.9059 74.7628ZM28.5728 72.4778L29.4718 72.4871C29.4113 71.9962 29.3586 71.5027 29.3137 71.0071L28.4181 70.9978C28.4621 71.4934 28.5137 71.9868 28.5728 72.4778ZM28.3673 70.3761L29.2618 70.3854C29.2239 69.8926 29.1938 69.3975 29.1716 68.9006L28.2785 68.8751C28.3002 69.3775 28.3298 69.8779 28.3673 70.3761ZM19.0433 64.0486L19.936 64.0394C19.9641 63.4745 20.0007 62.9117 20.0457 62.3514L19.1613 62.2321C19.1124 62.8349 19.073 63.4405 19.0433 64.0486ZM19.3577 60.2478L20.2411 60.367C20.337 59.5444 20.4512 58.7273 20.583 57.9161L19.726 57.6347C19.5832 58.4991 19.4603 59.3704 19.3577 60.2478ZM20.0893 55.6566L20.942 55.9367C21.0918 55.1894 21.2567 54.4475 21.4363 53.7115L20.587 53.4325C20.4065 54.1683 20.2404 54.9098 20.0893 55.6566ZM21.586 49.8761L22.433 50.1543C22.7464 49.1656 23.087 48.1889 23.4538 47.2251L22.6562 46.815C22.271 47.8218 21.9139 48.8424 21.586 49.8761ZM23.0364 45.8489L23.8324 46.2582C24.0761 45.6527 24.3303 45.0526 24.5947 44.458L23.8007 44.0498C23.5357 44.6441 23.2809 45.2439 23.0364 45.8489ZM24.4103 42.7288L25.2033 43.1365C25.4272 42.6671 25.6573 42.2014 25.8939 41.7394L25.1013 41.3319C24.8647 41.7939 24.6343 42.2595 24.4103 42.7288ZM26.0713 39.521L26.8644 39.9288C27.0957 39.516 27.3321 39.1064 27.5737 38.7002L26.7795 38.2919C26.5385 38.6983 26.3023 39.108 26.0713 39.521ZM27.3464 37.3575L28.1416 37.7663C28.355 37.4232 28.572 37.0826 28.7927 36.7445L28.0178 36.3012C27.7902 36.6506 27.5664 37.0027 27.3464 37.3575ZM29.2857 34.4375L30.0631 34.8823C30.4878 34.2863 30.924 33.6991 31.3715 33.1211L30.7151 32.5132C30.2253 33.1441 29.7488 33.7857 29.2857 34.4375ZM28.327 63.8555L29.2183 63.8809C29.242 63.5059 29.2702 63.132 29.303 62.7595L28.4251 62.5711C28.3866 62.9976 28.3539 63.4258 28.327 63.8555ZM28.4819 61.9825L29.3585 62.1706C29.3945 61.8136 29.4346 61.4579 29.4787 61.1035L28.604 60.9158C28.5593 61.2701 28.5186 61.6257 28.4819 61.9825ZM28.7178 60.0747L28.8819 59.31L29.7091 59.4874C29.7882 58.9951 29.8753 58.5055 29.9699 58.0186L29.0958 57.8446C28.9524 58.5819 28.8262 59.3254 28.7178 60.0747ZM29.436 56.2468L30.3105 56.4209C30.4764 55.7063 30.6588 54.9982 30.8576 54.2968L30.0668 54.1395L30.2581 53.3117L31.0978 53.4788C31.2366 53.0216 31.3824 52.5674 31.535 52.1164L30.6624 51.9428L30.6828 51.8539C30.1983 53.2883 29.7813 54.7538 29.436 56.2468ZM30.9834 50.9925L31.8676 51.1685C32.0784 50.5882 32.3006 50.0133 32.534 49.4442L31.7705 49.1815L32.2229 48.0497L33.012 48.3212C33.1822 47.9357 33.3577 47.5531 33.538 47.1732L32.69 46.8814C32.0584 48.2183 31.4883 49.5898 30.9834 50.9925ZM33.5992 45.0612L34.4522 45.3547C34.7332 44.8256 35.0242 44.3027 35.3249 43.7862L34.5801 43.2941C34.2409 43.8753 33.9137 44.4644 33.5992 45.0612ZM39.2211 23.7237L39.8808 24.3345C40.2045 24.0668 40.5314 23.8027 40.8614 23.5423L40.3784 22.7883C39.9885 23.0951 39.6027 23.4069 39.2211 23.7237ZM41.0979 22.2317L41.5802 22.9846C42.3351 22.4087 43.1055 21.8518 43.8905 21.3146L43.4097 20.5638C42.6245 21.1006 41.8537 21.6567 41.0979 22.2317ZM45.7847 19.0267L46.2655 19.7774C47.4515 19.0522 48.6671 18.3706 49.91 17.7349L49.4496 16.9692C48.2 17.6102 46.9776 18.2967 45.7847 19.0267ZM50.747 16.3248L51.2083 17.0922C52.0093 16.7087 52.821 16.3441 53.6429 15.9988L53.3285 15.1641C52.4566 15.5298 51.5958 15.917 50.747 16.3248ZM56.5967 13.9127L56.911 14.7472C58.0822 14.3411 59.2714 13.9733 60.477 13.6456L60.2974 12.7707C59.0458 13.1096 57.8117 13.4908 56.5967 13.9127ZM63.7038 11.9624L63.8831 12.8355C65.2551 12.5553 66.6456 12.326 68.0526 12.1497V11.2516C66.5847 11.4325 65.1344 11.6702 63.7038 11.9624ZM70.8522 10.9777V11.8712C71.5484 11.8198 72.2483 11.7813 72.9516 11.756V10.8643C72.2484 10.8892 71.5485 10.9271 70.8522 10.9777ZM49.1896 27.8345L49.895 28.437C50.3851 28.1163 50.8817 27.8046 51.3845 27.5023L50.948 26.7249C50.3532 27.0821 49.7669 27.4521 49.1896 27.8345ZM53.1222 25.4974L53.5588 26.2748C54.142 25.9662 54.7325 25.6698 55.3303 25.3861L54.9049 24.6284L55.2055 24.4595C54.5014 24.7886 53.8067 25.1348 53.1222 25.4974ZM55.9381 24.1249L56.3765 24.9054C56.9495 24.6508 57.529 24.4075 58.1142 24.176L57.838 23.3268C57.1977 23.5791 56.5642 23.8453 55.9381 24.1249ZM58.912 22.9187L59.1878 23.7669C59.6498 23.5975 60.1155 23.4353 60.5844 23.2804L60.2792 22.5296L61.2678 22.1277C60.4732 22.371 59.6878 22.6348 58.912 22.9187ZM62.3288 21.8166L62.6667 22.6477C63.1309 22.5187 63.598 22.3968 64.0679 22.2822L64.0022 21.4348L66.1631 21.2674L66.2055 21.8149C67.0204 21.6571 67.8431 21.5209 68.6729 21.4069L68.6039 20.5168C66.4627 20.8085 64.3676 21.2451 62.3288 21.8166ZM70.9814 20.2546L71.0502 21.1432C71.6408 21.0932 72.2344 21.0544 72.8311 21.027L72.7623 20.1381C72.1656 20.1658 71.572 20.2047 70.9814 20.2546ZM55.6089 32.9929C61.1094 29.8381 67.4527 27.9861 74.2177 27.858V45.0708C71.6762 43.0994 69.1487 41.29 66.6664 39.6319C62.835 37.0726 59.1111 34.8731 55.6089 32.9929ZM66.1715 40.373C68.7122 42.0701 71.3004 43.9265 73.9023 45.9542C67.2005 51.2315 60.4225 57.6416 54.1382 65.3859C49.7127 59.8044 45.5068 53.5355 41.7085 46.5032C44.9478 41.2121 49.414 36.7537 54.7115 33.5238C58.3279 35.4466 62.1912 37.7142 66.1715 40.373ZM41.1786 47.3952C44.9305 54.2756 49.0698 60.4252 53.4208 65.9155H36.0089C36.1627 59.1813 38.0248 52.8691 41.1786 47.3952ZM32.5552 108.202C32.9206 107.005 33.2991 105.822 33.6902 104.657C34.47 105.507 35.2757 106.333 36.1062 107.134C35.5157 107.327 34.9794 107.496 34.5016 107.642C33.668 107.896 33.012 108.08 32.5552 108.202ZM34.0179 103.692C34.9912 104.773 36.0067 105.814 37.0617 106.815C38.4385 106.346 40.0524 105.762 41.8639 105.044C43.1042 104.553 44.437 104 45.8494 103.38C42.7014 100.869 39.8849 97.9599 37.4762 94.7286C36.2413 97.6043 35.0849 100.59 34.0179 103.692ZM74.2177 105.788C67.0628 105.652 60.3798 103.589 54.6665 100.095C58.3126 98.1586 62.2292 95.855 66.2834 93.1309C68.8834 91.3834 71.5398 89.4639 74.2177 87.356V105.788ZM75.1089 105.795V87.4164C77.6306 89.3828 80.1313 91.1828 82.5819 92.8297C86.9499 95.765 91.1582 98.2112 95.0405 100.237C89.2151 103.743 82.3977 105.77 75.1089 105.795ZM96.8378 100.158C99.0271 101.268 101.101 102.238 103.026 103.084C106.193 100.631 109.028 97.771 111.457 94.5852C110.533 92.4277 109.566 90.3336 108.56 88.2993C105.531 93.0284 101.528 97.075 96.8378 100.158ZM107.002 104.743C109.287 105.649 111.257 106.342 112.833 106.857C113.65 106.084 114.444 105.287 115.212 104.466C114.178 101.375 113.056 98.3965 111.856 95.528C109.55 98.4856 106.897 101.16 103.956 103.488C105.023 103.945 106.04 104.363 107.002 104.743ZM114.363 107.341C114.184 107.286 113.996 107.228 113.8 107.167C114.389 106.599 114.966 106.02 115.53 105.428C115.796 106.245 116.057 107.069 116.311 107.902C115.853 107.779 115.197 107.595 114.363 107.341ZM113.943 66.823C113.943 73.9873 112.01 80.7 108.637 86.4681C104.892 79.1405 100.638 72.6129 96.0984 66.8066H113.943V66.823ZM113.933 65.9155H95.6823C100.178 60.2073 104.444 53.791 108.284 46.5876C111.728 52.2445 113.771 58.8476 113.933 65.9155ZM108.211 44.8118C109.236 42.8358 110.229 40.8014 111.185 38.7071C108.595 35.3771 105.557 32.4135 102.16 29.9077C100.205 30.7829 98.1146 31.7775 95.9206 32.9022C100.827 35.9388 105.025 40.0102 108.211 44.8118ZM111.598 37.7915C112.847 35.0028 114.032 32.1091 115.143 29.1067C114.134 28.0326 113.083 26.9988 111.991 26.0084C110.595 26.4881 108.968 27.0812 107.151 27.8014C105.887 28.3024 104.531 28.8649 103.095 29.4935C106.269 31.8885 109.128 34.6789 111.598 37.7915ZM116.754 24.5229C116.343 25.7566 115.92 26.9729 115.485 28.1721C114.669 27.3161 113.825 26.4858 112.955 25.6828C113.616 25.4638 114.213 25.2738 114.74 25.1109C115.602 24.8454 116.281 24.6521 116.754 24.5229ZM107.738 45.7161C104.495 40.6925 100.129 36.4625 94.9945 33.3815C91.1387 35.3965 86.9841 37.808 82.6939 40.6738C80.2782 42.2875 77.8196 44.0451 75.3471 45.957C82.0093 51.2439 88.7358 57.6533 94.9676 65.3825C99.5315 59.5901 103.857 53.0625 107.738 45.7161ZM75.1089 27.851C82.0029 27.875 88.4752 29.689 94.0853 32.8525C90.3443 34.8274 86.3341 37.1705 82.1989 39.9329C79.8669 41.4906 77.4949 43.1818 75.1089 45.0155V27.851ZM54.8563 65.9155C61.0143 58.3317 67.6491 52.0376 74.2177 46.8403V62.3356C72.3478 62.5427 70.8664 64.0387 70.6816 65.9155H54.8563ZM71.5784 65.9155C71.7547 64.5314 72.8405 63.4314 74.2177 63.2339V65.9155H71.5784ZM75.1089 63.2339V65.9155H77.7477C77.5717 64.5314 76.486 63.4315 75.1089 63.2339ZM71.5925 66.8066H74.2177V69.3902C72.8731 69.1974 71.8062 68.1443 71.5925 66.8066ZM75.1089 66.8066V69.3902C76.4534 69.1973 77.5201 68.1443 77.7338 66.8066H75.1089ZM70.6925 66.8066C70.9182 68.6372 72.3804 70.085 74.2177 70.2886V85.5752C67.8442 80.4584 61.3729 74.2668 55.2813 66.8066H70.6925ZM65.7864 92.3912C68.4459 90.6036 71.1652 88.6344 73.9059 86.467C67.2493 81.1495 60.4805 74.6696 54.1366 66.8103C49.5109 72.6187 45.1699 79.1681 41.3479 86.5418C44.4297 91.7852 48.7032 96.2445 53.7963 99.547C57.5447 97.5749 61.5913 95.2099 65.7864 92.3912ZM35.9985 66.8066H53.003C48.6135 72.3842 44.4868 78.6319 40.8231 85.6203C37.7482 80.0464 35.9985 73.639 35.9985 66.823V66.8066ZM52.8912 100.018C48.0231 96.7738 43.9092 92.4875 40.8683 87.4768C39.8331 89.5164 38.8376 91.6177 37.8867 93.7832C40.4067 97.2434 43.3994 100.338 46.7698 102.971C48.6851 102.111 50.7355 101.131 52.8912 100.018ZM75.1089 70.2885V85.504C81.4186 80.3906 87.8127 74.2207 93.8289 66.8066H78.6337C78.4081 68.6371 76.9462 70.0849 75.1089 70.2885ZM83.0789 92.09C80.542 90.3853 77.9506 88.5145 75.3381 86.4643C81.9567 81.1365 88.6761 74.6568 94.9692 66.8125C99.7382 72.8409 104.2 79.662 108.094 87.3678C105.01 92.3297 100.842 96.5474 95.9219 99.6904C91.9374 97.6319 87.5942 95.1243 83.0789 92.09ZM78.6446 65.9155H94.2527C88.17 58.3754 81.6133 52.1013 75.1089 46.9062V62.3356C76.9788 62.5428 78.4599 64.0388 78.6446 65.9155ZM37.749 38.555C36.4696 35.7612 35.2543 32.8603 34.1128 29.8487C35.31 28.5266 36.5704 27.2629 37.8894 26.0623C39.0406 26.4711 40.3216 26.9485 41.7147 27.5006C43.2485 28.1084 44.9178 28.8068 46.6992 29.6042C43.3271 32.1695 40.3142 35.1827 37.749 38.555ZM34.1247 24.8101C34.9141 25.0534 35.8569 25.3576 36.9352 25.7286C35.8354 26.747 34.7766 27.8091 33.7614 28.9119C33.1919 27.3772 32.6414 25.8141 32.1112 24.222C32.5842 24.3512 33.2632 24.5445 34.1247 24.8101ZM38.1736 39.4729C40.847 35.8821 44.0336 32.6958 47.6249 30.0228C49.5685 30.9113 51.6353 31.9142 53.7966 33.0419C48.7227 36.2289 44.4177 40.5274 41.2229 45.5959C40.1727 43.6152 39.155 41.5748 38.1736 39.4729ZM9.33302 66.3121C9.33302 64.5945 10.7254 63.2022 12.4429 63.2022C14.1604 63.2022 15.5528 64.5945 15.5528 66.3121C15.5528 68.0296 14.1604 69.422 12.4429 69.422C10.7254 69.422 9.33302 68.0296 9.33302 66.3121ZM133.424 66.3611C133.424 64.6435 134.816 63.2513 136.534 63.2513C138.251 63.2513 139.644 64.6436 139.644 66.3611C139.644 68.0786 138.251 69.471 136.534 69.471C134.816 69.471 133.424 68.0787 133.424 66.3611ZM71.5533 128.714C71.5533 126.996 72.9457 125.604 74.6632 125.604C76.3808 125.604 77.7728 126.996 77.7728 128.714C77.7728 130.432 76.3808 131.824 74.6632 131.824C72.9457 131.824 71.5533 130.432 71.5533 128.714Z" stroke="#8F7E77" stroke-width="3.72093" mask="url(#path-1-inside-1_2010_111)"/>
<mask id="path-2-inside-2_2010_111" fill="white">
<path fill-rule="evenodd" clip-rule="evenodd" d="M74.9063 64.6567C73.9134 64.6567 73.1085 65.4616 73.1085 66.4545C73.1085 67.4473 73.9134 68.2522 74.9063 68.2522C75.8992 68.2522 76.7041 67.4473 76.7041 66.4545C76.7041 65.4616 75.8992 64.6567 74.9063 64.6567ZM73.3432 66.4545C73.3432 65.5912 74.043 64.8914 74.9063 64.8914C75.7695 64.8914 76.4694 65.5912 76.4694 66.4545C76.4694 67.3177 75.7695 68.0176 74.9063 68.0176C74.043 68.0176 73.3432 67.3177 73.3432 66.4545Z"/>
</mask>
<path d="M74.9063 62.7962C72.8859 62.7962 71.2481 64.434 71.2481 66.4545H74.969C74.969 66.4891 74.9409 66.5171 74.9063 66.5171V62.7962ZM71.2481 66.4545C71.2481 68.4749 72.8859 70.1127 74.9063 70.1127V66.3917C74.9409 66.3917 74.969 66.4198 74.969 66.4545H71.2481ZM74.9063 70.1127C76.9266 70.1127 78.5646 68.4749 78.5646 66.4545H74.8437C74.8437 66.4197 74.8718 66.3917 74.9063 66.3917V70.1127ZM78.5646 66.4545C78.5646 64.434 76.9266 62.7962 74.9063 62.7962V66.5171C74.8717 66.5171 74.8437 66.4891 74.8437 66.4545H78.5646ZM75.2037 66.4545C75.2037 66.6187 75.0705 66.7519 74.9063 66.7519V63.0309C73.0155 63.0309 71.4828 64.5637 71.4828 66.4545H75.2037ZM74.9063 66.7519C74.7421 66.7519 74.6089 66.6188 74.6089 66.4545H78.3299C78.3299 64.5636 76.797 63.0309 74.9063 63.0309V66.7519ZM74.6089 66.4545C74.6089 66.2902 74.742 66.1571 74.9063 66.1571V69.878C76.797 69.878 78.3299 68.3452 78.3299 66.4545H74.6089ZM74.9063 66.1571C75.0706 66.1571 75.2037 66.2902 75.2037 66.4545H71.4828C71.4828 68.3451 73.0155 69.878 74.9063 69.878V66.1571Z" fill="#8F7E77" mask="url(#path-2-inside-2_2010_111)"/>
<mask id="path-4-inside-3_2010_111" fill="white">
<path fill-rule="evenodd" clip-rule="evenodd" d="M80.8515 60.296H68.5287V72.6188H80.8515V60.296ZM80.3821 60.7654V72.1493H68.9981V60.7654H80.3821Z"/>
</mask>
<path d="M80.8515 60.296H82.712V58.4355H80.8515V60.296ZM68.5287 60.296V58.4355H66.6682V60.296H68.5287ZM68.5287 72.6188H66.6682V74.4793H68.5287V72.6188ZM80.8515 72.6188V74.4793H82.712V72.6188H80.8515ZM80.3821 60.7654H82.2425V58.9049H80.3821V60.7654ZM80.3821 72.1493V74.0098H82.2425V72.1493H80.3821ZM68.9981 72.1493H67.1377V74.0098H68.9981V72.1493ZM68.9981 60.7654V58.9049H67.1377V60.7654H68.9981ZM80.8515 58.4355H68.5287V62.1564H80.8515V58.4355ZM66.6682 60.296V72.6188H70.3892V60.296H66.6682ZM68.5287 74.4793H80.8515V70.7583H68.5287V74.4793ZM82.712 72.6188V60.296H78.9911V72.6188H82.712ZM78.5216 60.7654V72.1493H82.2425V60.7654H78.5216ZM80.3821 70.2889H68.9981V74.0098H80.3821V70.2889ZM70.8586 72.1493V60.7654H67.1377V72.1493H70.8586ZM68.9981 62.6259H80.3821V58.9049H68.9981V62.6259Z" fill="#8F7E77" mask="url(#path-4-inside-3_2010_111)"/>
<mask id="path-6-inside-4_2010_111" fill="white">
<path fill-rule="evenodd" clip-rule="evenodd" d="M84.6369 62.9813V57.0807L84.3443 57.3733V62.6887L78.3843 56.7286H83.6613L83.9539 56.436H78.0917L74.7669 53.1113L71.4422 56.436H65.2858L65.5784 56.7286H71.1496L65.0323 62.8459L65.0323 57.5103L64.7397 57.2177V63.1385L61.4891 66.3891L64.7397 69.6396V75.6497L65.0323 75.3571V69.9322L71.1407 76.0407H65.6766L65.384 76.3333H71.4333L74.7669 79.6669L78.1005 76.3333H83.8548L83.5622 76.0407H78.3931L84.3443 70.0895V75.4951L84.6369 75.7877V69.7969L88.0447 66.3891L84.6369 62.9813ZM84.6369 63.3718L87.6542 66.3891L84.6369 69.4063V63.3718ZM84.3443 69.6989V63.0792L77.9938 56.7286H71.5401L65.0323 63.2364V69.5417L71.5313 76.0407H78.0026L84.3443 69.6989ZM77.71 76.3333H71.8239L74.7669 79.2763L77.71 76.3333ZM64.7397 69.2491V63.529L61.8797 66.3891L64.7397 69.2491ZM71.8327 56.436H77.7012L74.7669 53.5018L71.8327 56.436Z"/>
</mask>
<path d="M84.6369 62.9813H82.7765V63.7519L83.3214 64.2968L84.6369 62.9813ZM84.6369 57.0807H86.4974V52.589L83.3213 55.7652L84.6369 57.0807ZM84.3443 57.3733L83.0288 56.0578L82.4839 56.6027V57.3733H84.3443ZM84.3443 62.6887L83.0288 64.0042L86.2048 67.1802V62.6887H84.3443ZM78.3843 56.7286V54.8682H73.8927L77.0687 58.0442L78.3843 56.7286ZM83.6613 56.7286V58.5891H84.4319L84.9769 58.0441L83.6613 56.7286ZM83.9539 56.436L85.2695 57.7515L88.4453 54.5756H83.9539V56.436ZM78.0917 56.436L76.7762 57.7516L77.3211 58.2965H78.0917V56.436ZM74.7669 53.1113L76.0825 51.7957L74.7669 50.4802L73.4514 51.7957L74.7669 53.1113ZM71.4422 56.436V58.2965H72.2128L72.7577 57.7516L71.4422 56.436ZM65.2858 56.436V54.5756H60.7943L63.9703 57.7516L65.2858 56.436ZM65.5784 56.7286L64.2629 58.0442L64.8078 58.5891H65.5784V56.7286ZM71.1496 56.7286L72.4651 58.0442L75.6411 54.8682H71.1496V56.7286ZM65.0323 62.8459L63.1718 62.8459L63.1718 67.3375L66.3479 64.1615L65.0323 62.8459ZM65.0323 57.5103L66.8928 57.5103L66.8928 56.7397L66.3479 56.1947L65.0323 57.5103ZM64.7397 57.2177L66.0552 55.9021L62.8792 52.7262V57.2177H64.7397ZM64.7397 63.1385L66.0553 64.4541L66.6002 63.9091V63.1385H64.7397ZM61.4891 66.3891L60.1736 65.0735L58.858 66.3891L60.1736 67.7046L61.4891 66.3891ZM64.7397 69.6396H66.6002V68.869L66.0553 68.3241L64.7397 69.6396ZM64.7397 75.6497H62.8792V80.1412L66.0552 76.9653L64.7397 75.6497ZM65.0323 75.3571L66.3478 76.6727L66.8928 76.1278V75.3571H65.0323ZM65.0323 69.9322L66.3479 68.6167L63.1718 65.4407V69.9322H65.0323ZM71.1407 76.0407V77.9011H75.6323L72.4563 74.7251L71.1407 76.0407ZM65.6766 76.0407V74.1802H64.906L64.3611 74.7251L65.6766 76.0407ZM65.384 76.3333L64.0684 75.0177L60.8922 78.1937H65.384V76.3333ZM71.4333 76.3333L72.7489 75.0177L72.204 74.4728H71.4333V76.3333ZM74.7669 79.6669L73.4514 80.9824L74.7669 82.298L76.0825 80.9824L74.7669 79.6669ZM78.1005 76.3333V74.4728H77.3299L76.785 75.0177L78.1005 76.3333ZM83.8548 76.3333V78.1937H88.3464L85.1704 75.0177L83.8548 76.3333ZM83.5622 76.0407L84.8778 74.7251L84.3329 74.1802H83.5622V76.0407ZM78.3931 76.0407L77.0776 74.7251L73.9016 77.9011H78.3931V76.0407ZM84.3443 70.0895H86.2048V65.5979L83.0288 68.7739L84.3443 70.0895ZM84.3443 75.4951H82.4839V76.2657L83.0288 76.8106L84.3443 75.4951ZM84.6369 75.7877L83.3214 77.1032L86.4974 80.2792V75.7877H84.6369ZM84.6369 69.7969L83.3214 68.4813L82.7765 69.0262V69.7969H84.6369ZM88.0447 66.3891L89.3603 67.7046L90.6758 66.3891L89.3603 65.0735L88.0447 66.3891ZM84.6369 63.3718L85.9525 62.0562L82.7765 58.8802V63.3718H84.6369ZM87.6542 66.3891L88.9698 67.7046L90.2853 66.3891L88.9698 65.0735L87.6542 66.3891ZM84.6369 69.4063H82.7765V73.8979L85.9525 70.7219L84.6369 69.4063ZM84.3443 69.6989L85.6599 71.0145L86.2048 70.4696V69.6989H84.3443ZM84.3443 63.0792H86.2048V62.3086L85.6599 61.7636L84.3443 63.0792ZM77.9938 56.7286L79.3093 55.4131L78.7644 54.8682H77.9938V56.7286ZM71.5401 56.7286V54.8682H70.7695L70.2246 55.4131L71.5401 56.7286ZM65.0323 63.2364L63.7168 61.9209L63.1718 62.4658V63.2364H65.0323ZM65.0323 69.5417H63.1718V70.3123L63.7168 70.8572L65.0323 69.5417ZM71.5313 76.0407L70.2157 77.3562L70.7606 77.9011H71.5313V76.0407ZM78.0026 76.0407V77.9011H78.7732L79.3182 77.3562L78.0026 76.0407ZM77.71 76.3333L79.0256 77.6488L82.2016 74.4728H77.71V76.3333ZM71.8239 76.3333V74.4728H67.3323L70.5083 77.6488L71.8239 76.3333ZM74.7669 79.2763L73.4514 80.5919L74.7669 81.9074L76.0825 80.5919L74.7669 79.2763ZM64.7397 69.2491L63.4242 70.5647L66.6002 73.7407V69.2491H64.7397ZM64.7397 63.529H66.6002V59.0375L63.4242 62.2135L64.7397 63.529ZM61.8797 66.3891L60.5641 65.0735L59.2486 66.3891L60.5641 67.7046L61.8797 66.3891ZM71.8327 56.436L70.5172 55.1205L67.3411 58.2965H71.8327V56.436ZM77.7012 56.436V58.2965H82.1927L79.0167 55.1205L77.7012 56.436ZM74.7669 53.5018L76.0825 52.1862L74.7669 50.8707L73.4514 52.1862L74.7669 53.5018ZM86.4974 62.9813V57.0807H82.7765V62.9813H86.4974ZM83.3213 55.7652L83.0288 56.0578L85.6599 58.6888L85.9525 58.3962L83.3213 55.7652ZM82.4839 57.3733V62.6887H86.2048V57.3733H82.4839ZM85.6599 61.3731L79.6998 55.4131L77.0687 58.0442L83.0288 64.0042L85.6599 61.3731ZM78.3843 58.5891H83.6613V54.8682H78.3843V58.5891ZM84.9769 58.0441L85.2695 57.7515L82.6383 55.1205L82.3457 55.4131L84.9769 58.0441ZM83.9539 54.5756H78.0917V58.2965H83.9539V54.5756ZM79.4072 55.1205L76.0825 51.7957L73.4514 54.4268L76.7762 57.7516L79.4072 55.1205ZM73.4514 51.7957L70.1266 55.1205L72.7577 57.7516L76.0825 54.4268L73.4514 51.7957ZM71.4422 54.5756H65.2858V58.2965H71.4422V54.5756ZM63.9703 57.7516L64.2629 58.0442L66.894 55.4131L66.6014 55.1205L63.9703 57.7516ZM65.5784 58.5891H71.1496V54.8682H65.5784V58.5891ZM69.834 55.4131L63.7168 61.5304L66.3479 64.1615L72.4651 58.0442L69.834 55.4131ZM66.8928 62.8459L66.8928 57.5103L63.1719 57.5103L63.1718 62.8459L66.8928 62.8459ZM66.3479 56.1947L66.0552 55.9021L63.4242 58.5333L63.7168 58.8259L66.3479 56.1947ZM62.8792 57.2177V63.1385H66.6002V57.2177H62.8792ZM63.4242 61.823L60.1736 65.0735L62.8047 67.7046L66.0553 64.4541L63.4242 61.823ZM60.1736 67.7046L63.4242 70.9552L66.0553 68.3241L62.8047 65.0735L60.1736 67.7046ZM62.8792 69.6396V75.6497H66.6002V69.6396H62.8792ZM66.0552 76.9653L66.3478 76.6727L63.7168 74.0416L63.4242 74.3342L66.0552 76.9653ZM66.8928 75.3571V69.9322H63.1718V75.3571H66.8928ZM63.7168 71.2478L69.8252 77.3562L72.4563 74.7251L66.3479 68.6167L63.7168 71.2478ZM71.1407 74.1802H65.6766V77.9011H71.1407V74.1802ZM64.3611 74.7251L64.0684 75.0177L66.6995 77.6488L66.9921 77.3562L64.3611 74.7251ZM65.384 78.1937H71.4333V74.4728H65.384V78.1937ZM70.1178 77.6488L73.4514 80.9824L76.0825 78.3513L72.7489 75.0177L70.1178 77.6488ZM76.0825 80.9824L79.4161 77.6488L76.785 75.0177L73.4514 78.3513L76.0825 80.9824ZM78.1005 78.1937H83.8548V74.4728H78.1005V78.1937ZM85.1704 75.0177L84.8778 74.7251L82.2467 77.3562L82.5393 77.6488L85.1704 75.0177ZM83.5622 74.1802H78.3931V77.9011H83.5622V74.1802ZM79.7087 77.3562L85.6599 71.405L83.0288 68.7739L77.0776 74.7251L79.7087 77.3562ZM82.4839 70.0895V75.4951H86.2048V70.0895H82.4839ZM83.0288 76.8106L83.3214 77.1032L85.9525 74.4721L85.6599 74.1795L83.0288 76.8106ZM86.4974 75.7877V69.7969H82.7765V75.7877H86.4974ZM85.9525 71.1124L89.3603 67.7046L86.7292 65.0735L83.3214 68.4813L85.9525 71.1124ZM89.3603 65.0735L85.9525 61.6657L83.3214 64.2968L86.7292 67.7046L89.3603 65.0735ZM83.3214 64.6873L86.3387 67.7046L88.9698 65.0735L85.9525 62.0562L83.3214 64.6873ZM86.3387 65.0735L83.3214 68.0908L85.9525 70.7219L88.9698 67.7046L86.3387 65.0735ZM86.4974 69.4063V63.3718H82.7765V69.4063H86.4974ZM86.2048 69.6989V63.0792H82.4839V69.6989H86.2048ZM85.6599 61.7636L79.3093 55.4131L76.6782 58.0442L83.0288 64.3947L85.6599 61.7636ZM77.9938 54.8682H71.5401V58.5891H77.9938V54.8682ZM70.2246 55.4131L63.7168 61.9209L66.3479 64.552L72.8557 58.0442L70.2246 55.4131ZM63.1718 63.2364V69.5417H66.8928V63.2364H63.1718ZM63.7168 70.8572L70.2157 77.3562L72.8468 74.7251L66.3479 68.2262L63.7168 70.8572ZM71.5313 77.9011H78.0026V74.1802H71.5313V77.9011ZM79.3182 77.3562L85.6599 71.0145L83.0288 68.3834L76.6871 74.7251L79.3182 77.3562ZM77.71 74.4728H71.8239V78.1937H77.71V74.4728ZM70.5083 77.6488L73.4514 80.5919L76.0825 77.9608L73.1394 75.0177L70.5083 77.6488ZM76.0825 80.5919L79.0256 77.6488L76.3945 75.0177L73.4514 77.9608L76.0825 80.5919ZM66.6002 69.2491V63.529H62.8792V69.2491H66.6002ZM63.4242 62.2135L60.5641 65.0735L63.1952 67.7046L66.0553 64.8446L63.4242 62.2135ZM60.5641 67.7046L63.4242 70.5647L66.0553 67.9336L63.1952 65.0735L60.5641 67.7046ZM71.8327 58.2965H77.7012V54.5756H71.8327V58.2965ZM79.0167 55.1205L76.0825 52.1862L73.4514 54.8173L76.3856 57.7516L79.0167 55.1205ZM73.4514 52.1862L70.5172 55.1205L73.1483 57.7516L76.0825 54.8173L73.4514 52.1862Z" fill="#8F7E77" mask="url(#path-6-inside-4_2010_111)"/>
<mask id="path-8-inside-5_2010_111" fill="white">
<path d="M82.8612 58.6402L85.3818 56.1195L85.0499 55.7876L82.5293 58.3083L82.8612 58.6402Z"/>
</mask>
<path d="M82.8612 58.6402L81.5457 59.9557L82.8612 61.2713L84.1768 59.9557L82.8612 58.6402ZM85.3818 56.1195L86.6974 57.435L88.0129 56.1195L86.6974 54.804L85.3818 56.1195ZM85.0499 55.7876L86.3654 54.472L85.0499 53.1565L83.7343 54.4721L85.0499 55.7876ZM82.5293 58.3083L81.2137 56.9927L79.8982 58.3083L81.2138 59.6238L82.5293 58.3083ZM84.1768 59.9557L86.6974 57.435L84.0663 54.804L81.5456 57.3246L84.1768 59.9557ZM86.6974 54.804L86.3654 54.472L83.7344 57.1031L84.0663 57.4351L86.6974 54.804ZM83.7343 54.4721L81.2137 56.9927L83.8449 59.6238L86.3655 57.1031L83.7343 54.4721ZM81.2138 59.6238L81.5457 59.9557L84.1768 57.3246L83.8448 56.9927L81.2138 59.6238Z" fill="#8F7E77" mask="url(#path-8-inside-5_2010_111)"/>
<mask id="path-10-inside-6_2010_111" fill="white">
<path d="M66.9011 58.3087L64.4696 55.882L64.138 56.2142L66.5695 58.641L66.9011 58.3087Z"/>
</mask>
<path d="M66.9011 58.3087L68.2179 59.623L69.5322 58.3062L68.2153 56.9919L66.9011 58.3087ZM64.4696 55.882L65.7839 54.5651L64.467 53.2509L63.1528 54.5677L64.4696 55.882ZM64.138 56.2142L62.8212 54.8999L61.5069 56.2167L62.8237 57.531L64.138 56.2142ZM66.5695 58.641L65.2552 59.9578L66.572 61.272L67.8863 59.9552L66.5695 58.641ZM68.2153 56.9919L65.7839 54.5651L63.1553 57.1988L65.5868 59.6256L68.2153 56.9919ZM63.1528 54.5677L62.8212 54.8999L65.4548 57.5285L65.7864 57.1962L63.1528 54.5677ZM62.8237 57.531L65.2552 59.9578L67.8837 57.3241L65.4523 54.8974L62.8237 57.531ZM67.8863 59.9552L68.2179 59.623L65.5843 56.9944L65.2527 57.3267L67.8863 59.9552Z" fill="#8F7E77" mask="url(#path-10-inside-6_2010_111)"/>
<rect x="1" y="52.093" width="146.977" height="27.907" fill="black" fill-opacity="0.77"/>
<path d="M1 56.9767V52.093H10.4216M18.3357 52.093H22.4812M25.873 52.093H29.2648M32.6565 52.093H34.164M46.9773 52.093H50.746M56.0221 52.093H62.8056M68.4586 52.093H75.9958M88.4323 52.093H91.0704M92.9547 52.093H94.839M97.1002 52.093H107.275M110.29 52.093H116.697M124.234 52.093H127.626M131.772 52.093H134.033M138.555 52.093H147.977V56.9767M147.977 74.8837V80H135.917M125.742 80H122.727H119.335H116.697M112.928 80H110.29M99.3614 80H94.839M91.0704 80H84.6637M79.7645 80H72.6041M60.5444 80H57.9064M53.384 80H42.455M40.1938 80H34.164M27.0036 80H23.6118M20.22 80H18.3357M10.4216 80H1V74.8837" stroke="#E7BB74" stroke-width="2.00358"/>
<path d="M40.7975 72.093C40.6927 72.093 40.6054 72.0581 40.5356 71.9883L38.8245 70.2772C38.7547 70.2074 38.7198 70.1201 38.7198 70.0153V67.7281H40.4657V69.2995L41.5133 70.347H44.6561L45.7037 69.2995V67.9027L44.6561 66.8551H40.7975C40.6927 66.8551 40.6054 66.8202 40.5356 66.7503L38.8245 65.0393C38.7547 64.9694 38.7198 64.8821 38.7198 64.7774V61.9489C38.7198 61.8441 38.7547 61.7568 38.8245 61.687L40.5356 59.976C40.6054 59.9061 40.6927 59.8712 40.7975 59.8712H45.3719C45.4767 59.8712 45.564 59.9061 45.6338 59.976L47.3449 61.687C47.4147 61.7568 47.4496 61.8441 47.4496 61.9489V64.2361H45.7037V62.6648L44.6561 61.6172H41.5133L40.4657 62.6648V64.0615L41.5133 65.1091H45.3719C45.4767 65.1091 45.564 65.144 45.6338 65.2139L47.3449 66.9249C47.4147 66.9948 47.4496 67.0821 47.4496 67.1868V70.0153C47.4496 70.1201 47.4147 70.2074 47.3449 70.2772L45.6338 71.9883C45.564 72.0581 45.4767 72.093 45.3719 72.093H40.7975ZM49.1888 59.8712H55.8409C55.9457 59.8712 56.033 59.9061 56.1028 59.976L57.8139 61.687C57.8837 61.7568 57.9187 61.8441 57.9187 61.9489V65.3012C57.9187 65.4059 57.8837 65.4932 57.8139 65.5631L56.1028 67.2741C56.033 67.344 55.9457 67.3789 55.8409 67.3789H50.9348V72.093H49.1888V59.8712ZM55.1251 65.6329L56.1727 64.5853V62.6648L55.1251 61.6172H50.9348V65.6329H55.1251ZM61.7355 72.093C61.6308 72.093 61.5435 72.0581 61.4736 71.9883L59.7626 70.2772C59.6927 70.2074 59.6578 70.1201 59.6578 70.0153V61.9489C59.6578 61.8441 59.6927 61.7568 59.7626 61.687L61.4736 59.976C61.5435 59.9061 61.6308 59.8712 61.7355 59.8712H66.31C66.4147 59.8712 66.502 59.9061 66.5719 59.976L68.2829 61.687C68.3528 61.7568 68.3877 61.8441 68.3877 61.9489V70.0153C68.3877 70.1201 68.3528 70.2074 68.2829 70.2772L66.5719 71.9883C66.502 72.0581 66.4147 72.093 66.31 72.093H61.7355ZM62.4514 70.347H65.5941L66.6417 69.2995V62.6648L65.5941 61.6172H62.4514L61.4038 62.6648V69.2995L62.4514 70.347ZM70.1268 59.8712H71.8728V62.9266H72.7458L77.1107 67.2916V59.8712H78.8567V72.093H77.1107V69.0376H76.2378L71.8728 64.6726V72.093H70.1268V59.8712ZM82.6736 72.093C82.5688 72.093 82.4815 72.0581 82.4117 71.9883L80.7006 70.2772C80.6308 70.2074 80.5959 70.1201 80.5959 70.0153V67.7281H82.3418V69.2995L83.3894 70.347H86.5322L87.5798 69.2995V67.9027L86.5322 66.8551H82.6736C82.5688 66.8551 82.4815 66.8202 82.4117 66.7503L80.7006 65.0393C80.6308 64.9694 80.5959 64.8821 80.5959 64.7774V61.9489C80.5959 61.8441 80.6308 61.7568 80.7006 61.687L82.4117 59.976C82.4815 59.9061 82.5688 59.8712 82.6736 59.8712H87.248C87.3528 59.8712 87.4401 59.9061 87.5099 59.976L89.221 61.687C89.2908 61.7568 89.3257 61.8441 89.3257 61.9489V64.2361H87.5798V62.6648L86.5322 61.6172H83.3894L82.3418 62.6648V64.0615L83.3894 65.1091H87.248C87.3528 65.1091 87.4401 65.144 87.5099 65.2139L89.221 66.9249C89.2908 66.9948 89.3257 67.0821 89.3257 67.1868V70.0153C89.3257 70.1201 89.2908 70.2074 89.221 70.2772L87.5099 71.9883C87.4401 72.0581 87.3528 72.093 87.248 72.093H82.6736ZM93.1426 72.093C93.0379 72.093 92.9506 72.0581 92.8807 71.9883L91.1697 70.2772C91.0998 70.2074 91.0649 70.1201 91.0649 70.0153V61.9489C91.0649 61.8441 91.0998 61.7568 91.1697 61.687L92.8807 59.976C92.9506 59.9061 93.0379 59.8712 93.1426 59.8712H97.7171C97.8218 59.8712 97.9091 59.9061 97.979 59.976L99.69 61.687C99.7599 61.7568 99.7948 61.8441 99.7948 61.9489V70.0153C99.7948 70.1201 99.7599 70.2074 99.69 70.2772L97.979 71.9883C97.9091 72.0581 97.8218 72.093 97.7171 72.093H93.1426ZM93.8585 70.347H97.0012L98.0488 69.2995V62.6648L97.0012 61.6172H93.8585L92.8109 62.6648V69.2995L93.8585 70.347ZM101.534 59.8712H108.186C108.291 59.8712 108.378 59.9061 108.448 59.976L110.159 61.687C110.229 61.7568 110.264 61.8441 110.264 61.9489V65.3012C110.264 65.4059 110.229 65.4932 110.159 65.5631L108.465 67.2567C108.384 67.3381 108.291 67.3789 108.186 67.3789H107.208L110.159 70.3296C110.229 70.3994 110.264 70.4867 110.264 70.5915V72.093H108.518V71.1677L105.462 68.1122V67.3789H103.28V72.093H101.534V59.8712ZM107.47 65.6329L108.518 64.5679V62.6648L107.47 61.6172H103.28V65.6329H107.47Z" fill="#D5BDB1"/>
</svg>
