<svg width="856" height="860" viewBox="0 0 856 860" fill="none" xmlns="http://www.w3.org/2000/svg">
<path opacity="0.8" fill-rule="evenodd" clip-rule="evenodd" d="M405.869 23.374C405.869 10.6913 416.151 0.409914 428.833 0.409914C441.516 0.409914 451.796 10.6912 451.796 23.374C451.796 36.0567 441.516 46.338 428.833 46.338C416.151 46.338 405.869 36.0567 405.869 23.374ZM428.833 0C415.924 0 405.459 10.4649 405.459 23.374C405.459 36.2149 415.815 46.6372 428.629 46.7471V70.5713C428.019 70.5749 427.41 70.5801 426.801 70.5867V70.9967C427.41 70.99 428.019 70.9848 428.629 70.9812V130.904C427.088 130.915 425.548 130.937 424.013 130.972L424.045 131.381C425.57 131.347 427.098 131.325 428.629 131.314V175.693C381.149 176.092 336.738 189.363 298.717 212.187C282.51 203.613 267.076 196.1 252.688 189.553C253.974 188.609 255.268 187.676 256.569 186.753L256.247 186.478C254.91 187.428 253.581 188.388 252.261 189.357C238.956 183.311 226.552 178.091 215.27 173.619C205.623 169.796 196.796 166.52 188.925 163.743C191.134 161.755 193.367 159.794 195.625 157.861L195.322 157.581C193.018 159.555 190.738 161.557 188.484 163.588C179.528 160.435 171.825 157.932 165.579 156.006C159.672 154.185 155.069 152.881 151.941 152.031C150.378 151.607 149.183 151.295 148.379 151.091C147.977 150.989 147.673 150.912 147.469 150.862C147.367 150.837 147.29 150.818 147.239 150.806L147.181 150.792L147.166 150.789C147.166 150.789 147.163 150.788 147.155 150.817C147.151 150.833 147.144 150.858 147.135 150.897L147.161 150.787L146.805 150.702L146.919 151.05C151.393 164.734 156.095 178.095 161.009 191.138C158.516 193.92 156.066 196.741 153.658 199.6L153.96 199.878C156.322 197.072 158.727 194.303 161.172 191.57C169.372 213.304 178.159 234.158 187.45 254.165C184.224 258.553 181.114 263.033 178.124 267.599L178.466 267.825C181.411 263.328 184.473 258.914 187.647 254.589C194.967 270.328 202.598 285.541 210.502 300.247C187.698 338.086 174.365 382.277 173.786 429.538H129.404C129.447 425.448 129.571 421.379 129.775 417.329L129.365 417.317C129.161 421.37 129.037 425.445 128.994 429.538H69.0681C69.0974 426.179 69.1724 422.829 69.2926 419.491L68.8823 419.496C68.7623 422.832 68.6874 426.18 68.6581 429.538H46.7477L46.7479 429.479V429.424C46.7479 416.515 36.2831 406.05 23.374 406.05C10.4649 406.05 0 416.515 0 429.424C0 442.333 10.4649 452.799 23.374 452.799C36.108 452.799 46.4637 442.616 46.7422 429.948H68.6548C68.6477 430.883 68.6441 431.818 68.6441 432.754C68.6441 434.191 68.6525 435.626 68.6692 437.06L69.0791 437.056C69.0624 435.624 69.0541 434.19 69.0541 432.754C69.0541 431.818 69.0576 430.883 69.0647 429.948H128.99C128.981 430.883 128.977 431.818 128.977 432.754C128.977 434.245 128.988 435.734 129.01 437.22L129.42 437.232C129.398 435.742 129.387 434.249 129.387 432.754C129.387 431.818 129.391 430.883 129.4 429.948H173.781C173.771 430.882 173.766 431.818 173.766 432.754C173.766 479.6 186.296 523.519 208.187 561.342C200.378 576.489 192.902 592.165 185.809 608.386C184.792 606.971 183.787 605.545 182.795 604.111L182.491 604.392C183.52 605.879 184.562 607.356 185.618 608.823C176.626 629.419 168.251 650.895 160.588 673.284C159.28 671.815 157.983 670.335 156.698 668.845L156.387 669.112C157.723 670.662 159.073 672.202 160.436 673.729C156.782 684.422 153.291 695.324 149.973 706.436L149.872 706.775L150.216 706.695L150.169 706.495C150.216 706.695 150.217 706.695 150.22 706.694L150.234 706.69L150.291 706.677C150.34 706.665 150.415 706.648 150.513 706.624C150.71 706.576 151.003 706.505 151.392 706.408C152.168 706.215 153.323 705.921 154.834 705.517C157.856 704.711 162.308 703.469 168.026 701.725C172.332 700.411 177.356 698.814 183.029 696.904C185.903 699.601 188.82 702.252 191.782 704.855L192.082 704.573C189.169 702.012 186.299 699.406 183.47 696.756C192.774 693.615 203.797 689.642 216.24 684.716C225.609 681.006 235.783 676.755 246.633 671.913C250.352 674.781 254.14 677.565 257.994 680.262L258.302 679.976C254.489 677.31 250.74 674.558 247.058 671.722C261.219 665.392 276.525 658.053 292.694 649.593C332.015 674.695 378.619 689.395 428.629 689.816V734.195C427.318 734.185 426.01 734.168 424.703 734.142V734.551C426.01 734.578 427.318 734.595 428.629 734.605V794.527C427.921 794.523 427.213 794.516 426.505 794.508L426.474 794.917C427.191 794.926 427.91 794.932 428.629 794.937V812.695C415.815 812.805 405.459 823.223 405.459 836.069C405.459 848.982 415.924 859.442 428.833 859.442C441.742 859.442 452.206 848.982 452.206 836.069C452.206 823.223 441.853 812.806 429.039 812.695V794.938C429.637 794.942 430.234 794.943 430.833 794.943C432.861 794.943 434.885 794.926 436.905 794.893V794.483C434.885 794.516 432.861 794.533 430.833 794.533C430.234 794.533 429.637 794.532 429.039 794.529V734.607C429.397 734.609 429.754 734.611 430.112 734.611C430.353 734.612 430.594 734.612 430.835 734.612C432.996 734.612 435.153 734.59 437.302 734.545L437.271 734.135C435.131 734.18 432.986 734.202 430.835 734.202C430.236 734.202 429.638 734.201 429.039 734.197V689.819C429.638 689.823 430.237 689.825 430.837 689.825C481.066 689.825 527.932 675.419 567.526 650.513C583.959 658.957 599.445 666.225 613.672 672.444C611.857 673.83 610.025 675.197 608.177 676.543L608.422 676.872C610.332 675.48 612.225 674.066 614.101 672.631C622.692 676.38 630.822 679.745 638.422 682.754C654.012 688.927 667.374 693.603 677.916 697.019C674.001 700.682 670.003 704.258 665.928 707.746L666.23 708.026C670.356 704.495 674.401 700.873 678.361 697.163C681.356 698.131 684.119 698.996 686.636 699.764C692.354 701.508 696.806 702.75 699.828 703.556C701.339 703.96 702.494 704.254 703.27 704.447C703.659 704.544 703.952 704.615 704.149 704.663C704.247 704.687 704.322 704.704 704.371 704.716L704.428 704.729L704.442 704.733C704.442 704.733 704.444 704.733 704.447 704.724C704.451 704.709 704.462 704.665 704.492 704.542L704.447 704.734L704.79 704.814L704.689 704.475C702.098 695.796 699.4 687.245 696.603 678.822C699.439 675.76 702.222 672.65 704.952 669.492L704.651 669.213C701.971 672.314 699.238 675.37 696.456 678.378C689.033 656.069 680.905 634.655 672.165 614.105C673.132 612.822 674.087 611.53 675.034 610.23L674.691 610.004C673.796 611.233 672.892 612.454 671.98 613.669C665.098 597.514 657.838 581.891 650.245 566.787C674.137 527.76 687.91 481.866 687.91 432.754C687.91 431.818 687.905 430.882 687.894 429.948H732.27C732.278 430.883 732.282 431.818 732.282 432.754C732.282 434.763 732.263 436.768 732.224 438.767L732.633 438.779C732.672 436.775 732.692 434.767 732.692 432.754C732.692 431.818 732.688 430.883 732.68 429.948H792.603C792.609 430.883 792.613 431.818 792.613 432.754C792.613 435.723 792.577 438.684 792.506 441.637L792.917 441.633C792.987 438.682 793.023 435.722 793.023 432.754C793.023 431.818 793.019 430.883 793.013 429.948H808.641C808.75 442.764 819.171 453.118 832.011 453.118C844.923 453.118 855.384 442.653 855.384 429.744C855.384 416.835 844.923 406.37 832.011 406.37C819.172 406.37 808.751 416.725 808.641 429.538H793.009C792.996 428.104 792.976 426.672 792.947 425.241L792.537 425.252C792.566 426.68 792.586 428.108 792.599 429.538H732.676C732.669 428.938 732.661 428.338 732.651 427.739L732.241 427.727C732.251 428.331 732.259 428.934 732.266 429.538H687.89C687.283 380.1 672.722 334.02 647.96 295.059C655.67 280.389 663.108 265.222 670.238 249.542C673.089 253.263 675.856 257.051 678.534 260.905L678.879 260.682C676.152 256.76 673.334 252.904 670.429 249.119C679.496 229.149 688.06 208.349 696.042 186.686C699.051 189.926 702 193.222 704.889 196.571L705.201 196.304C702.263 192.898 699.263 189.548 696.202 186.254C700.198 175.391 704.049 164.312 707.744 153.011L707.857 152.663L707.501 152.748L707.549 152.947C707.501 152.748 707.5 152.748 707.496 152.749L707.482 152.753L707.423 152.767C707.372 152.779 707.295 152.798 707.193 152.823C706.989 152.873 706.685 152.949 706.283 153.051C705.479 153.256 704.284 153.567 702.721 153.992C699.593 154.841 694.99 156.145 689.083 157.967C684.437 159.399 678.984 161.151 672.81 163.252C670.739 161.392 668.648 159.556 666.535 157.743L666.22 158.013C668.289 159.787 670.338 161.584 672.365 163.404C662.936 166.62 651.847 170.644 639.393 175.58C629.823 179.373 619.448 183.703 608.4 188.62C607.59 188.029 606.775 187.441 605.957 186.859L605.65 187.143C606.425 187.696 607.199 188.252 607.968 188.813C593.5 195.262 577.886 202.713 561.424 211.274C523.152 188.66 478.509 175.683 430.837 175.683C430.237 175.683 429.638 175.685 429.039 175.689V131.311C429.638 131.308 430.236 131.305 430.835 131.305C432.864 131.305 434.886 131.326 436.905 131.366V130.955C434.886 130.916 432.864 130.895 430.835 130.895C430.236 130.895 429.638 130.898 429.039 130.901V70.979C429.637 70.9761 430.234 70.9746 430.833 70.9746C433.174 70.9746 435.51 70.9969 437.841 71.0412L437.873 70.6317C435.531 70.5871 433.185 70.5647 430.833 70.5647C430.234 70.5647 429.637 70.5662 429.039 70.5691V46.7471C441.854 46.6368 452.206 36.2145 452.206 23.374C452.206 10.4649 441.742 0 428.833 0ZM446.683 70.9053L446.651 71.3142C451.309 71.5146 455.943 71.8029 460.553 72.1778L460.585 71.7691C455.975 71.3943 451.34 71.1058 446.683 70.9053ZM471.209 72.7898L471.177 73.1988C475.432 73.6709 479.665 74.2168 483.875 74.8353L483.982 74.4367C479.748 73.8141 475.489 73.2646 471.209 72.7898ZM495.329 76.2901L495.221 76.6874C498.553 77.2859 501.869 77.93 505.168 78.6191L505.268 78.2208C501.971 77.5322 498.658 76.8884 495.329 76.2901ZM518.607 81.273L518.509 81.6711C520.735 82.2255 522.954 82.8002 525.163 83.3954L525.262 82.997C523.052 82.4018 520.834 81.8271 518.607 81.273ZM527.608 83.6373L527.51 84.0357C529.929 84.7055 532.338 85.3991 534.738 86.1172L534.836 85.7188C532.438 85.0006 530.028 84.3071 527.608 83.6373ZM537.166 86.4247L537.067 86.8231C539.066 87.4363 541.057 88.066 543.04 88.712L543.201 88.3332C541.197 87.6798 539.186 87.0436 537.166 86.4247ZM549.564 90.4738L549.404 90.8517C552.064 91.7749 554.71 92.7275 557.342 93.7097L557.519 93.3383C554.881 92.3528 552.23 91.3986 549.564 90.4738ZM563.785 95.7453L563.609 96.1159C571.106 99.0754 578.482 102.279 585.724 105.714L585.899 105.344C578.657 101.908 571.283 98.7049 563.785 95.7453ZM599.478 112.14L599.302 112.511C600.841 113.322 602.373 114.144 603.899 114.977L604.075 114.605C602.549 113.773 601.017 112.951 599.478 112.14ZM607.294 116.383L607.117 116.754C611.011 118.931 614.86 121.177 618.663 123.492L618.939 123.181C615.103 120.845 611.221 118.578 607.294 116.383ZM622.111 125.134L621.836 125.446C625.45 127.697 629.022 130.011 632.551 132.385L632.825 132.075C629.298 129.701 625.726 127.387 622.111 125.134ZM638.608 136.049L638.334 136.358C640.591 137.941 642.829 139.549 645.048 141.182L645.341 140.889C643.116 139.25 640.871 137.637 638.608 136.049ZM654.119 147.558L653.827 147.85C655.406 149.088 656.975 150.339 658.534 151.603L658.849 151.331C657.283 150.061 655.706 148.803 654.119 147.558ZM661.915 153.846L661.599 154.117C662.258 154.663 662.915 155.211 663.569 155.762L663.884 155.491C663.23 154.94 662.573 154.392 661.915 153.846ZM444.525 131.2V131.611C448.352 131.783 452.16 132.024 455.948 132.337V131.926C452.16 131.614 448.352 131.372 444.525 131.2ZM471.188 133.57V133.983C475.775 134.597 480.329 135.313 484.849 136.132L484.932 135.73C480.385 134.907 475.803 134.186 471.188 133.57ZM503.561 139.714L503.478 140.116C508.567 141.375 513.604 142.764 518.588 144.277L518.732 143.893C513.729 142.373 508.671 140.979 503.561 139.714ZM536.784 150.013L536.639 150.397C540.683 151.913 544.685 153.513 548.643 155.195L548.856 154.84C544.875 153.147 540.851 151.538 536.784 150.013ZM556.106 158.037L555.894 158.39C559.744 160.148 563.549 161.984 567.311 163.897L567.533 163.55C563.768 161.635 559.959 159.796 556.106 158.037ZM581.111 170.903L580.889 171.248C584.215 173.161 587.502 175.136 590.747 177.17L591.001 176.846C587.746 174.804 584.448 172.822 581.111 170.903ZM595.177 179.513L594.924 179.837C597.142 181.279 599.34 182.75 601.517 184.247L601.825 183.962C599.631 182.45 597.414 180.967 595.177 179.513ZM707.433 198.917L707.122 199.184C708.458 200.763 709.78 202.353 711.09 203.955L711.401 203.688C710.092 202.086 708.769 200.496 707.433 198.917ZM718.025 212.038L717.713 212.305C722.54 218.577 727.166 225.012 731.581 231.6L731.923 231.374C727.498 224.772 722.862 218.323 718.025 212.038ZM741.951 247.208L741.609 247.434C743.72 250.966 745.772 254.537 747.764 258.145L748.152 258.002C746.146 254.365 744.078 250.767 741.951 247.208ZM756.841 274.765L756.455 274.908C757.416 276.889 758.361 278.88 759.287 280.881L759.673 280.738C758.747 278.737 757.803 276.746 756.841 274.765ZM763.526 289.353L763.141 289.495C764.965 293.719 766.709 297.984 768.374 302.29L768.781 302.202C767.109 297.878 765.357 293.594 763.526 289.353ZM771.472 309.39L771.067 309.477C772.346 313.007 773.572 316.564 774.744 320.145L775.147 320.059C773.976 316.478 772.751 312.921 771.472 309.39ZM777.151 326.383L776.749 326.47C778.413 331.891 779.953 337.368 781.366 342.895L781.767 342.809C780.354 337.281 778.815 331.805 777.151 326.383ZM784.695 355.173L784.294 355.259C785.167 359.257 785.973 363.28 786.712 367.327L787.113 367.24C786.374 363.194 785.568 359.171 784.695 355.173ZM789.178 379.79L788.777 379.876C789.179 382.629 789.551 385.391 789.892 388.164L790.295 388.078C789.954 385.305 789.582 382.543 789.178 379.79ZM790.828 392.651L790.425 392.737C790.722 395.437 790.989 398.146 791.227 400.862L791.637 400.851C791.398 398.109 791.128 395.375 790.828 392.651ZM792.008 405.425L791.598 405.437C791.822 408.453 792.011 411.481 792.162 414.518L792.572 414.506C792.421 411.469 792.232 408.442 792.008 405.425ZM683.126 266.96L682.782 267.183C686.946 273.506 690.878 279.994 694.565 286.637L694.945 286.476C691.246 279.812 687.302 273.303 683.126 266.96ZM698.554 293.176L698.175 293.337C699.778 296.403 701.329 299.501 702.827 302.628L703.205 302.467C701.707 299.34 700.156 296.243 698.554 293.176ZM707.717 312.336L707.34 312.496C709.22 316.814 711.003 321.184 712.683 325.605L713.09 325.519C711.4 321.073 709.608 316.678 707.717 312.336ZM720.338 347.001L719.948 347.128C720.614 349.382 721.255 351.647 721.87 353.923L722.272 353.838C721.653 351.547 721.009 349.268 720.338 347.001ZM724.913 364.366L724.511 364.451C725.01 366.605 725.486 368.768 725.938 370.94L726.346 370.885C725.892 368.703 725.414 366.53 724.913 364.366ZM728.368 381.557L727.962 381.612C728.513 384.841 729.014 388.087 729.462 391.349L729.877 391.354C729.427 388.072 728.923 384.805 728.368 381.557ZM730.405 395.408L729.992 395.403C730.387 398.603 730.732 401.818 731.026 405.048L731.439 405.053C731.144 401.822 730.8 398.607 730.405 395.408ZM731.78 409.104L731.368 409.1C731.617 412.301 731.815 415.515 731.962 418.743L732.373 418.754C732.226 415.524 732.028 412.307 731.78 409.104ZM792.768 446.481L792.358 446.485C792.259 449.111 792.133 451.73 791.98 454.342L792.39 454.338C792.544 451.726 792.67 449.107 792.768 446.481ZM792.073 459.188L791.662 459.192C791.396 462.87 791.075 466.534 790.701 470.181L791.107 470.236C791.484 466.569 791.807 462.886 792.073 459.188ZM789.548 483.129L789.141 483.074C788.404 488.375 787.551 493.64 786.586 498.866L786.979 498.995C787.949 493.745 788.807 488.455 789.548 483.129ZM784.371 511.806L783.979 511.677C782.903 516.515 781.729 521.317 780.461 526.08L780.851 526.208C782.12 521.445 783.294 516.644 784.371 511.806ZM773.886 549.234L773.497 549.106C771.361 555.397 769.057 561.61 766.59 567.741L766.957 567.93C769.432 561.779 771.744 555.545 773.886 549.234ZM764.375 574.172L764.01 573.984C762.35 577.894 760.624 581.768 758.832 585.607L759.197 585.794C760.989 581.956 762.716 578.082 764.375 574.172ZM755.077 594.326L754.712 594.139C753.198 597.17 751.644 600.177 750.049 603.159L750.414 603.347C752.008 600.364 753.563 597.357 755.077 594.326ZM743.879 615.038L743.513 614.85C741.957 617.515 740.368 620.16 738.747 622.782L739.112 622.97C740.734 620.348 742.323 617.703 743.879 615.038ZM735.302 628.999L734.936 628.81C733.534 630.98 732.109 633.135 730.663 635.272L731.02 635.476C732.469 633.333 733.897 631.174 735.302 628.999ZM722.53 647.491L722.172 647.286C719.517 650.884 716.799 654.431 714.016 657.926L714.318 658.205C717.12 654.686 719.858 651.114 722.53 647.491ZM732.427 445.525L732.017 445.513C731.877 448.872 731.683 452.218 731.434 455.548L731.844 455.56C732.093 452.23 732.287 448.885 732.427 445.525ZM731.534 459.382L731.124 459.37C730.934 461.532 730.722 463.688 730.488 465.836L730.891 465.922C731.129 463.749 731.343 461.568 731.534 459.382ZM730.448 469.744L730.047 469.658C729.764 471.974 729.455 474.281 729.119 476.581L729.521 476.667C729.856 474.367 730.165 472.06 730.448 469.744ZM727.803 487.152L727.403 487.066C726.788 490.447 726.116 493.808 725.389 497.148L725.79 497.234C726.517 493.894 727.189 490.533 727.803 487.152ZM723.35 507.564L722.949 507.478C721.771 512.095 720.487 516.671 719.099 521.2L719.501 521.286C720.889 516.757 722.173 512.181 723.35 507.564ZM717.829 526.57L717.426 526.484C716.083 530.593 714.654 534.663 713.141 538.693L713.547 538.78C715.058 534.75 716.487 530.68 717.829 526.57ZM712.515 541.488L712.109 541.402C710.749 544.921 709.325 548.408 707.837 551.862L708.223 552.004C709.717 548.532 711.149 545.027 712.515 541.488ZM705.011 559.203L704.625 559.061C702.126 564.468 699.472 569.789 696.668 575.018L697.056 575.162C699.859 569.932 702.513 564.611 705.011 559.203ZM689.195 588.943L688.803 588.797C687.106 591.599 685.363 594.371 683.576 597.112L683.918 597.338C685.722 594.571 687.481 591.772 689.195 588.943ZM661.679 711.858L661.375 711.577C658.417 714.025 655.419 716.428 652.383 718.784L652.605 719.13C655.669 716.754 658.694 714.33 661.679 711.858ZM647.894 722.722L647.673 722.376C642.724 726.088 637.677 729.674 632.536 733.133L632.758 733.478C637.898 730.019 642.945 726.433 647.894 722.722ZM617.205 743.377L616.984 743.031C609.263 747.674 601.354 752.036 593.271 756.104L593.484 756.456C601.569 752.386 609.481 748.021 617.205 743.377ZM584.992 760.593L584.779 760.24C579.855 762.559 574.869 764.77 569.826 766.871L569.97 767.254C575.037 765.145 580.045 762.923 584.992 760.593ZM548.651 775.349L548.506 774.966C541.155 777.492 533.696 779.79 526.14 781.848L526.222 782.251C533.8 780.187 541.279 777.884 548.651 775.349ZM504.029 787.544L503.946 787.142C495.388 788.898 486.718 790.352 477.951 791.493V791.906C486.746 790.764 495.443 789.305 504.029 787.544ZM451.724 794.351V793.94C449.829 794.048 447.93 794.142 446.027 794.22V794.63C447.93 794.551 449.829 794.459 451.724 794.351ZM598.408 683.865L598.164 683.535C594.675 685.868 591.135 688.13 587.545 690.318L587.79 690.649C591.379 688.459 594.92 686.197 598.408 683.865ZM584.803 692.447L584.558 692.115C583.719 692.614 582.878 693.108 582.035 693.598L582.281 693.929C583.124 693.439 583.965 692.944 584.803 692.447ZM579.25 695.667L579.004 695.335C578.028 695.887 577.049 696.434 576.066 696.975L576.312 697.307C577.294 696.766 578.274 696.219 579.25 695.667ZM567.414 702.019L567.166 701.685C565.069 702.75 562.958 703.792 560.833 704.808L560.942 705.211C563.114 704.172 565.271 703.108 567.414 702.019ZM551.767 709.412L551.658 709.012C548.55 710.374 545.415 711.684 542.253 712.942L542.361 713.341C545.523 712.083 548.658 710.773 551.767 709.412ZM524.724 719.726L524.616 719.329C512.557 723.273 500.162 726.477 487.486 728.887L487.593 729.285C493.143 728.229 498.64 727.021 504.078 725.665L515.098 722.687L515.101 722.693C518.331 721.756 521.539 720.767 524.724 719.726ZM478.776 730.826L478.668 730.429C474.181 731.144 469.661 731.76 465.11 732.276L465.141 732.685C469.718 732.167 474.263 731.547 478.776 730.826ZM456.268 733.556L456.236 733.147C452.387 733.468 448.518 733.718 444.63 733.892L444.662 734.301C448.55 734.126 452.419 733.878 456.268 733.556ZM417.658 794.708L417.689 794.299C413.598 794.153 409.522 793.938 405.466 793.658L405.434 794.066C409.49 794.347 413.566 794.561 417.658 794.708ZM396.658 793.352L396.69 792.943C390.405 792.355 384.167 791.606 377.979 790.7L377.947 791.11C384.135 792.015 390.373 792.763 396.658 793.352ZM369.223 789.724L369.255 789.314C366.106 788.773 362.97 788.193 359.849 787.572L359.755 787.971C362.897 788.596 366.053 789.181 369.223 789.724ZM356.338 787.274L356.431 786.875C354.695 786.512 352.965 786.137 351.238 785.749L351.146 786.148C352.871 786.536 354.602 786.912 356.338 787.274ZM347.747 785.369L347.84 784.969C344.021 784.072 340.226 783.116 336.456 782.1L336.362 782.499C340.134 783.515 343.929 784.472 347.747 785.369ZM329.554 780.593L329.647 780.193C324.104 778.581 318.614 776.84 313.183 774.973L313.09 775.375C318.521 777.241 324.01 778.981 329.554 780.593ZM306.391 772.999L306.485 772.596C302.771 771.237 299.085 769.819 295.429 768.342L295.335 768.747C298.991 770.222 302.677 771.64 306.391 772.999ZM286.159 764.894L286.254 764.488C282.138 762.692 278.063 760.821 274.028 758.878L273.829 759.237C277.897 761.198 282.008 763.083 286.159 764.894ZM265.041 754.855L265.24 754.496C261.292 752.46 257.386 750.354 253.525 748.179L253.325 748.537C257.188 750.712 261.092 752.819 265.041 754.855ZM248.567 745.809L248.766 745.449C247.41 744.658 246.06 743.859 244.715 743.051L244.516 743.41C245.861 744.217 247.211 745.017 248.567 745.809ZM239.833 740.546L240.032 740.187C235.803 737.557 231.632 734.842 227.522 732.044L227.322 732.404C231.433 735.201 235.604 737.916 239.833 740.546ZM219.08 726.627L219.28 726.266C216.855 724.515 214.453 722.734 212.073 720.925L211.771 721.21C214.183 723.045 216.62 724.851 219.08 726.627ZM203.795 714.967L204.097 714.684C201.765 712.806 199.455 710.898 197.17 708.963L196.869 709.246C199.154 711.181 201.463 713.088 203.795 714.967ZM417.083 734.305V733.894C413.256 733.723 409.448 733.479 405.659 733.166V733.578C409.448 733.89 413.256 734.133 417.083 734.305ZM390.419 731.93V731.516C386.087 730.936 381.783 730.263 377.51 729.5L377.427 729.902C381.727 730.67 386.059 731.347 390.419 731.93ZM358.789 725.961L358.872 725.559C353.968 724.358 349.112 723.037 344.305 721.599L344.16 721.984C348.987 723.428 353.864 724.755 358.789 725.961ZM326.08 715.94L326.224 715.556C322.376 714.132 318.564 712.632 314.791 711.056L314.577 711.412C318.373 712.997 322.208 714.507 326.08 715.94ZM307.302 708.259L307.514 707.905C303.681 706.184 299.89 704.386 296.143 702.511L295.92 702.859C299.67 704.735 303.464 706.536 307.302 708.259ZM282.287 695.592L282.508 695.246C279.259 693.406 276.047 691.507 272.873 689.551L272.619 689.876C275.803 691.839 279.026 693.745 282.287 695.592ZM268.419 687.238L268.673 686.914C266.588 685.581 264.52 684.222 262.47 682.839L262.161 683.125C264.229 684.521 266.316 685.892 268.419 687.238ZM148.361 659.47L148.673 659.203C141.94 650.825 135.573 642.141 129.596 633.175L129.254 633.401C135.241 642.381 141.618 651.079 148.361 659.47ZM123.748 624.886L124.09 624.66C121.509 620.543 119.009 616.371 116.591 612.145L116.225 612.33C118.65 616.57 121.158 620.756 123.748 624.886ZM107.197 595.536L107.584 595.392C106.082 592.411 104.619 589.407 103.197 586.38L102.834 586.572C104.249 589.583 105.703 592.571 107.197 595.536ZM98.9352 577.981L99.2976 577.788C98.1359 575.135 97.0046 572.466 95.9044 569.78L95.4977 569.867C96.611 572.589 97.7572 575.293 98.9352 577.981ZM94.1942 566.639L94.6008 566.551C93.0981 562.778 91.6568 558.973 90.2779 555.138L89.8737 555.225C91.2518 559.06 92.6923 562.865 94.1942 566.639ZM87.1314 547.302L87.5347 547.215C85.7377 541.824 84.0644 536.376 82.5182 530.875L82.1165 530.962C83.6627 536.462 85.3351 541.91 87.1314 547.302ZM78.8932 518.661L79.2942 518.575C78.3267 514.598 77.4249 510.596 76.5901 506.569L76.1892 506.654C77.0241 510.682 77.9258 514.684 78.8932 518.661ZM73.8296 494.169L74.2308 494.083C73.7632 491.344 73.3264 488.595 72.9207 485.835L72.519 485.922C72.9249 488.681 73.3619 491.43 73.8296 494.169ZM71.8791 481.372L72.2812 481.285C71.9113 478.527 71.5726 475.759 71.2652 472.98L70.8541 472.992C71.1639 475.795 71.5057 478.589 71.8791 481.372ZM70.3781 468.42L70.7888 468.409C70.4939 465.394 70.2361 462.369 70.0156 459.333L69.6055 459.346C69.8258 462.381 70.0834 465.407 70.3781 468.42ZM68.9854 448.617L69.3951 448.606C69.3395 447.316 69.2907 446.024 69.2485 444.73L68.8385 444.734C68.8807 446.03 68.9296 447.325 68.9854 448.617ZM179.607 600.152L179.912 599.87C178.968 598.455 178.035 597.031 177.113 595.599L176.747 595.787C177.688 597.251 178.641 598.706 179.607 600.152ZM173.575 590.745L173.941 590.557C172.829 588.752 171.736 586.933 170.662 585.103L170.297 585.29C171.371 587.121 172.464 588.939 173.575 590.745ZM164.814 575.536L165.179 575.349C164.054 573.258 162.954 571.152 161.878 569.032L161.513 569.219C162.589 571.339 163.69 573.445 164.814 575.536ZM158.024 562.116L158.388 561.928C157.183 559.391 156.012 556.834 154.876 554.259L154.511 554.447C155.647 557.023 156.818 559.579 158.024 562.116ZM152.285 549.268L152.65 549.079C151.172 545.547 149.759 541.982 148.412 538.384L148.022 538.512C149.376 542.13 150.798 545.716 152.285 549.268ZM141.618 519.469L142.007 519.341C141.288 516.936 140.596 514.519 139.936 512.089L139.534 512.174C140.199 514.618 140.893 517.05 141.618 519.469ZM136.875 501.649L137.276 501.564C136.748 499.303 136.246 497.031 135.769 494.749L135.361 494.805C135.84 497.096 136.345 499.377 136.875 501.649ZM133.332 484.132L133.739 484.078C133.148 480.635 132.616 477.172 132.143 473.69L131.729 473.686C132.204 477.188 132.738 480.67 133.332 484.132ZM131.207 469.632L131.621 469.636C131.231 466.436 130.891 463.222 130.601 459.992L130.189 459.988C130.478 463.218 130.818 466.432 131.207 469.632ZM129.854 455.936L130.266 455.94C130.02 452.713 129.826 449.471 129.682 446.215L129.271 446.204C129.414 449.461 129.608 452.706 129.854 455.936ZM69.0889 414.647L69.4995 414.643C69.6875 410.831 69.9344 407.034 70.2394 403.254L69.8327 403.199C69.5258 406.999 69.2775 410.815 69.0889 414.647ZM71.1096 390.268L71.5159 390.323C72.1615 384.796 72.9318 379.308 73.8237 373.86L73.4294 373.73C72.5325 379.203 71.7583 384.716 71.1096 390.268ZM75.784 360.836L76.1762 360.966C77.1563 356.097 78.2342 351.264 79.4076 346.468L79.0169 346.34C77.8431 351.135 76.7647 355.968 75.784 360.836ZM85.5204 323.162L85.9098 323.29C87.9963 316.711 90.2647 310.213 92.7111 303.803L92.3447 303.614C89.8893 310.044 87.6126 316.562 85.5204 323.162ZM94.8173 297.316L95.1829 297.503C96.7742 293.559 98.4319 289.65 100.157 285.776L99.7912 285.588C98.0671 289.462 96.4077 293.372 94.8173 297.316ZM103.761 276.978L104.126 277.166C105.585 274.108 107.086 271.073 108.627 268.063L108.262 267.876C106.721 270.886 105.22 273.92 103.761 276.978ZM114.585 256.075L114.95 256.263C116.457 253.572 117.996 250.903 119.57 248.256L119.204 248.068C117.631 250.715 116.092 253.384 114.585 256.075ZM122.901 241.98L123.267 242.168C124.677 239.897 126.112 237.642 127.571 235.405L127.214 235.201C125.753 237.444 124.315 239.703 122.901 241.98ZM135.485 223.061L135.842 223.266C138.726 219.212 141.691 215.221 144.735 211.294L144.432 211.015C141.37 214.966 138.385 218.982 135.485 223.061ZM129.581 413.494L129.992 413.505C130.156 410.896 130.354 408.295 130.584 405.704L130.181 405.617C129.947 408.234 129.748 410.859 129.581 413.494ZM130.547 401.781L130.95 401.867C131.186 399.542 131.45 397.224 131.739 394.915L131.337 394.828C131.047 397.137 130.784 399.455 130.547 401.781ZM132.846 384.299L133.247 384.385C133.762 381.191 134.327 378.013 134.942 374.853L134.54 374.773C133.926 377.931 133.361 381.106 132.846 384.299ZM136.758 364.361L137.161 364.442C138.239 359.785 139.426 355.17 140.718 350.599L140.314 350.519C139.023 355.09 137.837 359.705 136.758 364.361ZM141.875 345.187L142.278 345.267C143.181 342.287 144.127 339.327 145.119 336.388L144.713 336.307C143.722 339.247 142.776 342.207 141.875 345.187ZM146.871 330.128L147.277 330.209C148.688 326.31 150.176 322.448 151.741 318.625L151.353 318.492C149.781 322.331 148.286 326.211 146.871 330.128ZM154.462 311.172L154.852 311.306C155.958 308.793 157.1 306.299 158.273 303.823L157.883 303.688C156.709 306.165 155.569 308.66 154.462 311.172ZM163.822 291.832L164.215 291.967C166.147 288.315 168.153 284.706 170.23 281.145L169.887 280.918C167.793 284.509 165.77 288.148 163.822 291.832ZM199.873 153.747L200.176 154.028C202.461 152.135 204.769 150.269 207.101 148.432L206.879 148.085C204.519 149.943 202.184 151.831 199.873 153.747ZM211.565 144.455L211.787 144.801C216.709 141.051 221.731 137.424 226.847 133.925L226.625 133.58C221.509 137.079 216.488 140.705 211.565 144.455ZM242.102 123.563L242.323 123.908C250.073 119.168 258.015 114.711 266.134 110.552L265.923 110.2C257.8 114.361 249.855 118.82 242.102 123.563ZM274.38 106.006L274.592 106.359C279.957 103.786 285.395 101.342 290.902 99.0303L290.758 98.6459C285.227 100.968 279.766 103.422 274.38 106.006ZM312.054 90.491L312.199 90.8747C319.964 88.1807 327.849 85.7434 335.845 83.5733L335.762 83.1708C327.746 85.3458 319.84 87.7897 312.054 90.491ZM357.96 77.8985L358.042 78.3001C367.16 76.4376 376.402 74.9181 385.755 73.7556V73.3425C376.374 74.5072 367.104 76.0306 357.96 77.8985ZM403.999 71.5437V71.9548C408.536 71.6221 413.097 71.3731 417.68 71.2093V70.7991C413.098 70.9627 408.536 71.2114 403.999 71.5437ZM264.969 180.509L265.294 180.787C268.752 178.51 272.26 176.302 275.816 174.167L275.615 173.809C272.017 175.97 268.468 178.204 264.969 180.509ZM289.783 165.809L289.984 166.168C293.784 164.156 297.631 162.223 301.525 160.371L301.325 160.012C297.43 161.864 293.583 163.798 289.783 165.809ZM308.138 156.875L308.34 157.234C312.236 155.499 316.175 153.845 320.155 152.273L320.028 151.882C316.023 153.464 312.059 155.129 308.138 156.875ZM327.025 149.22L327.152 149.61C330.104 148.529 333.077 147.493 336.07 146.503L335.915 146.122C332.931 147.11 329.968 148.143 327.025 149.22ZM349.48 141.986L349.635 142.368C352.926 141.45 356.241 140.586 359.578 139.777L359.546 139.363C356.168 140.181 352.812 141.056 349.48 141.986ZM373.477 136.338L373.509 136.75C378.821 135.728 384.181 134.844 389.588 134.104L389.557 133.695C384.15 134.434 378.789 135.317 373.477 136.338ZM405.049 131.982L405.081 132.391C408.929 132.065 412.798 131.812 416.686 131.632L416.654 131.223C412.766 131.403 408.898 131.656 405.049 131.982ZM299.14 212.411C337.053 189.703 381.314 176.501 428.629 176.102V296.465L428.583 296.501C410.623 282.382 392.75 269.515 375.223 257.807C348.776 240.142 323.118 225.115 299.14 212.411ZM429.039 176.099V296.145C446.002 282.933 462.875 270.833 479.439 259.768C507.909 240.751 535.465 224.792 560.995 211.498C522.833 189 478.342 176.093 430.837 176.093C430.237 176.093 429.638 176.095 429.039 176.099ZM429.039 296.665V296.859C473.906 332.181 519.297 375.315 561.163 427.697C592.064 388.806 621.337 344.801 647.487 295.078C625.777 260.987 596.242 232.366 561.411 211.743C535.83 225.054 508.207 241.044 479.667 260.109C463.028 271.223 446.078 283.382 429.039 296.665ZM428.629 297.058L428.583 297.021C383.397 332.294 337.597 375.475 295.329 428.031C295.732 428.534 296.135 429.037 296.538 429.538H405.46C405.46 429.501 405.459 429.463 405.459 429.424C405.459 416.583 415.815 406.162 428.629 406.052V297.058ZM374.996 258.148C392.489 269.833 410.327 282.674 428.25 296.761C383.089 332.024 337.316 375.183 295.067 427.703C265.078 390.195 236.595 347.897 210.974 300.259C232.635 264.393 262.822 234.256 298.729 212.658C322.758 225.38 348.481 240.437 374.996 258.148ZM210.728 300.667C236.348 348.27 264.824 390.542 294.804 428.03C294.526 428.377 294.247 428.724 293.969 429.07C293.845 429.226 293.72 429.383 293.594 429.538H174.195C174.773 382.441 188.037 338.398 210.728 300.667ZM174.191 429.948H293.267C262.543 468.428 233.723 511.892 208.411 560.909C186.636 523.197 174.176 479.431 174.176 432.754C174.176 431.818 174.181 430.882 174.191 429.948ZM293.792 429.948C262.958 468.532 234.04 512.134 208.655 561.331C229.27 596.878 258.171 627.021 292.715 649.119C317.611 636.084 344.548 620.386 372.492 601.608C390.74 589.347 409.417 575.772 428.236 560.767C383.857 525.606 338.632 482.511 296.343 429.948H293.792ZM208.432 561.763C200.633 576.898 193.17 592.564 186.087 608.773C203.162 632.475 223.595 653.595 246.69 671.438C260.838 665.118 276.135 657.789 292.297 649.339C257.858 627.264 229.031 597.2 208.432 561.763ZM185.896 609.21C176.917 629.795 168.553 651.259 160.901 673.635C167.975 681.557 175.393 689.166 183.131 696.437C192.472 693.288 203.56 689.295 216.09 684.335C225.395 680.649 235.496 676.431 246.264 671.628C223.275 653.839 202.923 632.803 185.896 609.21ZM150.467 706.213C153.731 695.299 157.161 684.589 160.749 674.08C167.736 681.895 175.057 689.404 182.691 696.585C177.107 698.463 172.157 700.037 167.907 701.333C162.193 703.075 157.746 704.316 154.728 705.121C153.219 705.524 152.068 705.817 151.293 706.011C151.107 706.057 150.944 706.097 150.803 706.132C150.672 706.164 150.561 706.191 150.467 706.213ZM428.629 689.406C378.784 688.986 332.328 674.358 293.113 649.374C317.963 636.352 344.841 620.683 372.721 601.948C391.002 589.665 409.713 576.064 428.565 561.027L428.629 561.078V689.406ZM429.039 689.409V561.402C446.896 575.515 464.612 588.343 481.941 599.987C511.911 620.126 540.723 636.723 567.102 650.295C527.615 675.082 480.899 689.415 430.837 689.415C430.237 689.415 429.638 689.413 429.039 689.409ZM482.17 599.647C512.207 619.831 541.08 636.456 567.505 650.042C600.91 628.988 629.119 600.444 649.777 566.767C623.924 515.374 594.214 469.978 562.433 429.948H559.893C517.981 482.366 473.13 525.433 429.039 560.649V560.88C446.973 575.065 464.766 587.953 482.17 599.647ZM567.929 650.259C584.354 658.693 599.829 665.951 614.044 672.158C635.789 655.492 655.199 635.929 671.695 614.047C664.824 597.903 657.575 582.292 649.994 567.198C629.357 600.765 601.224 629.23 567.929 650.259ZM638.573 682.373C654.261 688.585 667.69 693.279 678.258 696.699C684.425 690.916 690.388 684.919 696.138 678.721C688.726 656.424 680.608 635.023 671.881 614.483C655.438 636.258 636.113 655.735 614.473 672.346C622.983 676.057 631.038 679.39 638.573 682.373ZM686.755 699.372C684.301 698.623 681.613 697.782 678.703 696.843C684.763 691.153 690.628 685.256 696.285 679.165C699.019 687.405 701.658 695.766 704.195 704.252C704.114 704.233 704.018 704.21 703.908 704.183C703.755 704.145 703.576 704.101 703.369 704.05C702.595 703.856 701.444 703.563 699.934 703.16C696.916 702.355 692.469 701.114 686.755 699.372ZM687.5 432.754C687.5 481.696 673.801 527.438 650.029 566.356C624.244 515.138 594.631 469.877 562.956 429.948H687.484C687.495 430.882 687.5 431.818 687.5 432.754ZM687.48 429.538H562.63C562.229 429.033 561.828 428.529 561.425 428.026C592.32 389.152 621.588 345.17 647.74 295.477C672.385 334.333 686.875 380.264 687.48 429.538ZM429.039 297.381C473.822 332.664 519.119 375.736 560.901 428.027C560.499 428.531 560.098 429.035 559.695 429.538H452.206C452.206 429.501 452.206 429.463 452.206 429.424C452.206 416.584 441.854 406.162 429.039 406.052V297.381ZM561.164 428.355C560.85 428.75 560.535 429.145 560.22 429.538H562.106C561.792 429.143 561.478 428.749 561.164 428.355ZM452.2 429.948H559.367C517.616 482.123 472.953 525.021 429.039 560.125V452.798C441.678 452.689 451.923 442.547 452.2 429.948ZM428.629 452.798V560.452L428.564 560.504C384.256 525.408 339.102 482.398 296.869 429.948H405.466C405.742 442.547 415.989 452.69 428.629 452.798ZM428.629 452.388C416.215 452.28 406.152 442.321 405.876 429.948H428.629V452.388ZM429.039 452.388V429.948H451.79C451.513 442.321 441.452 452.279 429.039 452.388ZM429.039 429.538H451.796C451.796 429.501 451.796 429.463 451.796 429.424C451.796 416.811 441.627 406.572 429.039 406.462V429.538ZM428.629 429.538V406.462C416.041 406.572 405.869 416.811 405.869 429.424C405.869 429.463 405.87 429.501 405.87 429.538H428.629ZM670.147 248.751C679.202 228.791 687.757 208.001 695.73 186.349C688.398 178.469 680.717 170.918 672.714 163.718C663.245 166.944 652.087 170.99 639.544 175.961C630.041 179.727 619.744 184.024 608.782 188.899C631.964 205.844 652.639 226.015 670.147 248.751ZM707.24 153.234C703.604 164.34 699.817 175.234 695.888 185.917C688.643 178.14 681.059 170.682 673.159 163.566C679.24 161.499 684.616 159.773 689.203 158.358C695.105 156.539 699.705 155.235 702.828 154.388C704.389 153.964 705.582 153.653 706.384 153.449C706.596 153.395 706.781 153.348 706.937 153.309C707.053 153.28 707.154 153.255 707.24 153.234ZM669.955 249.174C652.395 226.336 631.637 206.085 608.35 189.091C593.895 195.53 578.291 202.971 561.839 211.521C596.563 232.125 626.019 260.673 647.706 294.66C655.407 279.999 662.835 264.843 669.955 249.174ZM187.728 253.788C178.446 233.791 169.67 212.948 161.48 191.226C170.028 181.699 179.074 172.629 188.578 164.056C196.497 166.847 205.391 170.146 215.118 174C226.337 178.446 238.664 183.633 251.882 189.636C227.415 207.676 205.769 229.322 187.728 253.788ZM165.459 156.398C171.651 158.306 179.277 160.784 188.137 163.901C178.737 172.392 169.784 181.37 161.318 190.794C156.475 177.931 151.838 164.759 147.423 151.273C147.624 151.323 147.91 151.394 148.278 151.488C149.08 151.692 150.273 152.003 151.834 152.427C154.957 153.275 159.557 154.578 165.459 156.398ZM187.924 254.212C206.013 229.643 227.74 207.917 252.31 189.83C266.684 196.369 282.11 203.87 298.306 212.434C262.504 234.017 232.392 264.079 210.748 299.84C202.855 285.144 195.233 269.94 187.924 254.212ZM294.12 429.538H296.013C295.806 429.281 295.599 429.024 295.392 428.766C295.284 428.63 295.175 428.494 295.066 428.358C294.927 428.533 294.787 428.706 294.647 428.88C294.471 429.1 294.295 429.319 294.12 429.538ZM46.338 429.424C46.338 429.463 46.3379 429.501 46.3378 429.538H45.9916V429.948H46.3322C46.0538 442.389 35.8817 452.389 23.374 452.389C10.6913 452.389 0.409914 442.107 0.409914 429.424C0.409914 416.742 10.6913 406.46 23.374 406.46C36.0567 406.46 46.338 416.742 46.338 429.424ZM405.869 836.069C405.869 823.452 416.041 813.215 428.629 813.105V813.401H429.039V813.105C441.627 813.216 451.796 823.452 451.796 836.069C451.796 848.752 441.516 859.033 428.833 859.033C416.151 859.033 405.869 848.752 405.869 836.069ZM809.05 429.744C809.05 417.061 819.329 406.78 832.011 406.78C844.694 406.78 854.974 417.061 854.974 429.744C854.974 442.427 844.694 452.708 832.011 452.708C819.329 452.708 809.05 442.427 809.05 429.744Z" fill="#8F7E77"/>
</svg>
