<svg width="832" height="846" viewBox="0 0 832 846" fill="none" xmlns="http://www.w3.org/2000/svg">
<path opacity="0.8" fill-rule="evenodd" clip-rule="evenodd" d="M355.981 3.35498C341.137 5.23045 326.534 7.8759 312.212 11.2501L312.456 11.6486C326.73 8.29093 341.285 5.65774 356.077 3.79016L355.981 3.35498ZM374.631 1.86206C386.125 0.922683 397.749 0.443755 409.484 0.443755C412.212 0.443755 414.934 0.469621 417.649 0.52113L417.711 0.0784766C414.976 0.0262353 412.233 0 409.484 0C397.716 0 386.06 0.481107 374.534 1.42473L374.631 1.86206ZM432.701 0.626953L432.64 1.068C449.865 1.9992 466.817 3.96323 483.433 6.89915L483.495 6.45945C466.878 3.5241 449.928 1.55967 432.701 0.626953ZM525.985 16.263L525.922 16.7068C542.185 21.3639 558.047 26.972 573.442 33.4672L573.616 33.0587C558.185 26.5485 542.286 20.9285 525.985 16.263ZM612.762 52.0154L612.588 52.426C623.431 58.389 633.986 64.8146 644.223 71.6762L644.498 71.3271C634.229 64.4425 623.642 57.9964 612.762 52.0154ZM651.997 76.4721L651.721 76.8207C655.595 79.5396 659.421 82.3219 663.198 85.1658L663.473 84.818C659.696 81.9733 655.87 79.191 651.997 76.4721ZM670.662 90.3538L670.387 90.7024C677.487 96.2916 684.403 102.104 691.125 108.129L691.45 107.824C684.712 101.785 677.779 95.9569 670.662 90.3538ZM715.316 130.964L714.992 131.268C722.748 139.4 730.183 147.841 737.276 156.571L737.639 156.313C730.533 147.567 723.085 139.111 715.316 130.964ZM757.558 182.895L757.197 183.152C763.735 192.631 769.897 202.391 775.66 212.409L776.051 212.199C770.279 202.164 764.108 192.39 757.558 182.895ZM791.46 241.615L791.069 241.826C797.761 255.929 803.694 270.464 808.816 285.376L809.227 285.208C804.097 270.281 798.161 255.734 791.46 241.615ZM818.806 317.166L818.387 317.335C820.689 326.289 822.695 335.358 824.413 344.531L824.849 344.453C823.131 335.249 821.108 326.15 818.806 317.166ZM829.659 377.325L829.223 377.403C830.44 388.824 831.196 400.381 831.484 412.057H831.928C831.64 400.355 830.884 388.772 829.659 377.325ZM831.969 431.211H831.525C831.286 443.218 830.546 455.101 829.321 466.841L829.757 466.888C830.982 455.133 831.73 443.233 831.969 431.211ZM825.021 499.779L824.577 499.732C822.711 509.838 820.483 519.819 817.91 529.66L818.345 529.749C820.919 519.894 823.155 509.9 825.021 499.779ZM814.021 545.085L813.585 544.996C811.431 552.132 809.088 559.187 806.564 566.157L807.008 566.247C809.523 559.277 811.867 552.221 814.021 545.085ZM801.236 581.289L800.792 581.198C796.824 590.985 792.497 600.589 787.829 609.993L788.253 610.138C792.928 600.715 797.261 591.094 801.236 581.289ZM779.112 627.53L778.685 627.384C773.748 636.266 768.498 644.952 762.953 653.425L763.33 653.659C768.894 645.157 774.16 636.442 779.112 627.53ZM752.317 669.674L751.939 669.44C746.406 677.101 740.623 684.569 734.601 691.832L734.928 692.133C740.968 684.849 746.768 677.358 752.317 669.674ZM722.192 706.796L721.865 706.496C715.099 713.936 708.071 721.133 700.794 728.073L701.089 728.406C708.376 721.456 715.416 714.248 722.192 706.796ZM686.737 741.482L686.441 741.15C680.707 746.141 674.835 750.978 668.834 755.658L669.129 755.991C675.13 751.311 681.001 746.473 686.737 741.482ZM641.843 775.582L641.546 775.247C634.305 780.021 626.908 784.578 619.366 788.909L619.567 789.304C627.143 784.956 634.572 780.378 641.843 775.582ZM612.562 793.238L612.361 792.842C606.392 796.119 600.335 799.258 594.194 802.25L594.395 802.646C600.535 799.653 606.593 796.516 612.562 793.238ZM587.144 806.095L586.942 805.699C578.368 809.677 569.637 813.376 560.762 816.781L560.965 817.184C569.839 813.773 578.569 810.073 587.144 806.095ZM542.42 823.81L542.217 823.408C532.756 826.54 523.145 829.344 513.401 831.81L513.49 832.246C523.274 829.771 532.922 826.951 542.42 823.81ZM494.443 836.604L494.353 836.168C486.787 837.714 479.147 839.054 471.439 840.188L471.455 840.632C479.188 839.498 486.852 838.149 494.443 836.604ZM452.489 842.984L452.471 842.54C444.541 843.337 436.547 843.921 428.494 844.283L428.511 844.727C436.564 844.365 444.559 843.781 452.489 842.984ZM404.371 845.113L404.355 844.669C393.014 844.538 381.779 843.954 370.669 842.943L370.609 843.378C381.744 844.398 393.004 844.982 404.371 845.113ZM358.789 842.137L358.85 841.693C353.123 841.01 347.431 840.213 341.778 839.3L341.717 839.736C347.371 840.649 353.062 841.446 358.789 842.137ZM334.132 838.445L334.192 838.001C326.896 836.694 319.665 835.189 312.504 833.504L312.393 833.94C319.571 835.625 326.818 837.13 334.132 838.445ZM292.747 828.809L292.858 828.382C285.018 826.137 277.271 823.662 269.624 820.982L269.469 821.393C277.13 824.082 284.891 826.557 292.747 828.809ZM242.091 810.693L242.247 810.276C232.478 806.056 222.901 801.479 213.531 796.559L213.321 796.951C222.708 801.879 232.304 806.466 242.091 810.693ZM196.067 787.37L196.278 786.978C187.546 781.859 179.014 776.434 170.698 770.719L170.487 771.112C178.804 776.826 187.336 782.25 196.067 787.37ZM151.227 757.068L151.44 756.671C141.469 748.958 131.851 740.808 122.618 732.251L122.33 732.59C131.587 741.168 141.229 749.337 151.227 757.068ZM113.462 724.13L113.75 723.791C107.077 717.239 100.62 710.466 94.3923 703.485L94.07 703.79C100.309 710.784 106.777 717.568 113.462 724.13ZM79.1853 686.168L79.5092 685.861C73.86 678.791 68.4344 671.535 63.2407 664.105L62.874 664.354C68.0801 671.805 73.5213 679.08 79.1853 686.168ZM50.1983 645.124L50.5658 644.874C46.5906 638.47 42.7821 631.951 39.1463 625.324L38.7385 625.503C42.3867 632.154 46.2087 638.697 50.1983 645.124ZM28.2009 604.979L28.6073 604.8C23.2779 593.681 18.421 582.293 14.0627 570.66L13.6558 570.84C18.0148 582.471 22.8719 593.86 28.2009 604.979ZM1.7319 533.901L2.14266 533.72C-0.0563407 525.642 -2.02152 517.468 -3.74505 509.204L-4.17966 509.295C-2.44971 517.589 -0.47656 525.793 1.7319 533.901ZM-10.3267 471.136L-9.89035 471.046C-10.7553 463.481 -11.4202 455.855 -11.8798 448.173H1.48895V447.729H-11.9061C-12.2281 442.252 -12.4455 436.745 -12.5566 431.213L-13 431.239C-12.8888 436.763 -12.6717 442.26 -12.3506 447.729H-12.8652V448.173H-12.3243C-11.8634 455.885 -11.1957 463.541 -10.3267 471.136ZM-12.8606 408.606L-12.4158 408.581C-12.2733 404.203 -12.064 399.842 -11.7892 395.499H-3.30058V395.055H-11.7608C-11.3481 388.64 -10.792 382.263 -10.0956 375.929L-10.539 375.9C-11.236 382.244 -11.7925 388.63 -12.2055 395.055H-12.8652V395.499H-12.2338C-12.509 399.851 -12.7182 404.22 -12.8606 408.606ZM-7.46418 353.466L-7.01914 353.495C-4.95407 340.949 -2.336 328.59 0.809414 316.444L0.375547 316.349C-2.77488 328.517 -5.39681 340.898 -7.46418 353.466ZM13.6704 274.266L14.1083 274.362C18.285 263.225 22.9188 252.312 27.9868 241.644L27.5821 241.461C22.5011 252.156 17.8562 263.099 13.6704 274.266ZM36.9507 222.934L37.3563 223.118C41.7893 214.864 46.489 206.774 51.4436 198.862L51.0353 198.678C46.0818 206.591 41.3832 214.68 36.9507 222.934ZM58.1973 187.622L58.6076 187.807C62.5739 181.891 66.6848 176.082 70.9371 170.382L70.5392 170.173C66.2828 175.88 62.167 181.698 58.1973 187.622ZM84.0485 153.002L84.4505 153.214C89.2257 147.457 94.1514 141.83 99.221 136.337L98.8551 136.079C93.7724 141.587 88.8352 147.231 84.0485 153.002ZM102.794 131.868L103.162 132.125C108.105 126.914 113.18 121.828 118.382 116.873L118.077 116.551C112.854 121.526 107.758 126.633 102.794 131.868ZM132.242 103.653L132.547 103.976C143.186 94.7204 154.293 85.9888 165.828 77.8221L165.52 77.4957C153.987 85.6649 142.881 94.3972 132.242 103.653ZM181.617 66.6409L181.926 66.9692C192.806 59.9921 204.028 53.5009 215.56 47.5258L215.328 47.1463C203.769 53.1366 192.521 59.645 181.617 66.6409ZM249.61 31.2904L249.845 31.674C264.093 25.8488 278.732 20.7802 293.71 16.5178L293.469 16.1247C278.494 20.3913 263.858 25.4631 249.61 31.2904ZM6.2765 395.055V395.499H15.8508V395.055H6.2765ZM44.582 395.055V395.499H58.3259C58.1474 397.847 57.992 400.201 57.8598 402.562L58.304 402.566C58.4364 400.204 58.5922 397.848 58.7709 395.499H58.963V395.055H58.8051C59.2093 389.83 59.7278 384.637 60.358 379.479L59.9157 379.44C59.2841 384.611 58.7648 389.817 58.3599 395.055H44.582ZM61.2075 369.939L61.6498 369.979C62.8551 361.944 64.3318 353.996 66.0698 346.149L65.6448 346.017C63.8985 353.895 62.4161 361.872 61.2075 369.939ZM70.5293 326.622L70.9536 326.753C72.875 319.952 74.9962 313.234 77.3099 306.606L76.9095 306.405C74.5868 313.055 72.4582 319.796 70.5293 326.622ZM84.0682 287.656L84.4661 287.854C90.052 274.395 96.4494 261.356 103.597 248.801L103.215 248.574C96.0621 261.139 89.659 274.186 84.0682 287.656ZM113.586 231.505L113.968 231.732C116.585 227.687 119.284 223.699 122.06 219.771L121.718 219.485C118.928 223.433 116.216 227.44 113.586 231.505ZM125.465 214.287L125.806 214.573C127.879 211.751 129.993 208.961 132.147 206.204L131.806 205.919C129.651 208.676 127.538 211.466 125.465 214.287ZM144.542 190.534L144.882 190.819C151.615 183.138 158.677 175.754 166.045 168.686L165.702 168.4C158.335 175.468 151.274 182.853 144.542 190.534ZM180.646 154.859L180.992 155.147C190.443 147.064 200.328 139.474 210.607 132.416L210.371 132.038C200.053 139.123 190.131 146.744 180.646 154.859ZM227.151 121.203L227.386 121.579C234.987 116.971 242.776 112.643 250.739 108.609L250.533 108.216C242.56 112.255 234.761 116.589 227.151 121.203ZM256.261 105.378L256.467 105.772C260.974 103.592 265.535 101.504 270.146 99.512L269.94 99.1174C265.328 101.11 260.768 103.198 256.261 105.378ZM275.85 96.6286L276.056 97.0241C286.099 92.9033 296.376 89.2339 306.86 86.0406L306.742 85.6122C296.228 88.8146 285.922 92.4947 275.85 96.6286ZM326.006 80.3429L326.124 80.7713C335.308 78.539 344.634 76.6678 354.085 75.1725L354.051 74.7286C344.572 76.2271 335.218 78.1041 326.006 80.3429ZM373.884 72.1682L373.919 72.6108C379.292 72.0713 384.7 71.6527 390.141 71.3579L390.115 70.9149C384.671 71.2099 379.259 71.6286 373.884 72.1682ZM396.5 70.6262L396.525 71.0694C400.825 70.9136 405.144 70.8352 409.481 70.8352C415.781 70.8352 422.042 71.0008 428.261 71.3279L428.287 70.885C422.06 70.5573 415.79 70.3914 409.481 70.3914C405.135 70.3914 400.807 70.4702 396.5 70.6262ZM448.198 72.4954L448.173 72.939C457.76 73.9879 467.229 75.4221 476.569 77.2252L476.673 76.7936C467.308 74.9847 457.811 73.5466 448.198 72.4954ZM496.17 81.1404L496.065 81.5721C506.598 84.2384 516.941 87.3791 527.071 90.972L527.235 90.5593C517.086 86.959 506.723 83.8117 496.17 81.1404ZM545.861 97.7707L545.697 98.1826C554.91 102.056 563.923 106.311 572.717 110.926L572.942 110.543C564.128 105.917 555.095 101.652 545.861 97.7707ZM578.974 113.785L578.75 114.168C583.707 116.895 588.591 119.737 593.4 122.693L593.624 122.309C588.816 119.355 583.932 116.512 578.974 113.785ZM599.422 125.951L599.198 126.334C607.208 131.475 614.997 136.932 622.545 142.687L622.813 142.334C615.251 136.568 607.448 131.101 599.422 125.951ZM636.119 152.995L635.85 153.348C642.774 159.176 649.47 165.266 655.922 171.603L656.193 171.247C649.739 164.911 643.043 158.822 636.119 152.995ZM668.198 183.62L667.925 183.979C673.014 189.488 677.928 195.159 682.659 200.985L683.064 200.781C678.291 194.901 673.333 189.177 668.198 183.62ZM692.353 212.739L691.951 212.942C697.404 220.278 702.578 227.834 707.458 235.593L707.856 235.393C702.977 227.632 697.805 220.076 692.353 212.739ZM715.518 248.172L715.121 248.373C718.327 253.986 721.384 259.698 724.286 265.501L724.681 265.301C721.78 259.498 718.724 253.787 715.518 248.172ZM731.046 278.736L730.648 278.935C735.217 289.135 739.313 299.59 742.911 310.276L743.336 310.146C739.73 299.437 735.624 288.957 731.046 278.736ZM752.321 341.655L751.896 341.785C753.721 349.553 755.29 357.421 756.591 365.378L757.034 365.338C755.729 357.35 754.155 349.452 752.321 341.655ZM759.391 382.362L758.949 382.403C759.426 386.598 759.829 390.816 760.157 395.055H758.091V395.499H760.191C760.389 398.102 760.559 400.713 760.7 403.331L761.144 403.313C761.003 400.7 760.834 398.096 760.637 395.499H773.161V395.055H760.602C760.273 390.803 759.869 386.571 759.391 382.362ZM799.536 395.055V395.499H829.922V395.055H799.536ZM761.407 436.09L760.962 436.109C760.814 439.999 760.605 443.873 760.332 447.729H758.091V448.173H760.3C760.076 451.289 759.811 454.393 759.507 457.486L759.946 457.55C760.253 454.436 760.52 451.31 760.745 448.173H772.442V447.729H760.776C761.049 443.866 761.26 439.987 761.407 436.09ZM786.807 447.729V448.173H801.17V447.729H786.807ZM815.534 447.729V448.173H829.922V447.729H815.534ZM755.388 489.095L754.948 489.031C753.874 494.645 752.667 500.212 751.33 505.728L751.771 505.792C753.108 500.276 754.314 494.709 755.388 489.095ZM745.076 529.686L744.631 529.621C742.492 536.325 740.157 542.941 737.634 549.462L738.038 549.646C740.577 543.086 742.925 536.431 745.076 529.686ZM728.35 572.278L727.947 572.094C721.483 585.838 714.155 599.096 706.033 611.797L706.397 612.051C714.534 599.328 721.875 586.047 728.35 572.278ZM699.559 622.344L699.194 622.09C695.259 627.793 691.16 633.375 686.904 638.827L687.241 639.115C691.507 633.652 695.615 628.059 699.559 622.344ZM679.468 648.721L679.13 648.435C674.176 654.342 669.033 660.084 663.707 665.652L664.012 665.975C669.349 660.396 674.504 654.642 679.468 648.721ZM647.531 682.118L647.226 681.796C639.371 689.004 631.186 695.861 622.698 702.339L622.955 702.702C631.46 696.211 639.66 689.341 647.531 682.118ZM607.21 714.048L606.953 713.686C597.043 720.421 586.772 726.663 576.174 732.378L576.36 732.782C586.983 727.056 597.279 720.799 607.21 714.048ZM559.018 741.521L558.832 741.117C550.175 745.183 541.326 748.907 532.301 752.27L532.391 752.71C541.448 749.337 550.33 745.601 559.018 741.521ZM525.146 755.318L525.056 754.88C520.238 756.555 515.372 758.128 510.461 759.597L510.551 760.034C515.462 758.566 520.327 756.993 525.146 755.318ZM503.204 762.145L503.114 761.709C496.142 763.629 489.084 765.34 481.945 766.836L482.025 767.272C489.167 765.777 496.229 764.065 503.204 762.145ZM458.143 771.417L458.063 770.98C453.622 771.594 449.155 772.124 444.663 772.571V771.179H444.219V772.614C441.467 772.884 438.706 773.122 435.936 773.329L435.932 773.773C438.704 773.568 441.466 773.33 444.219 773.061V785.612L444.663 785.615V773.016C449.182 772.568 453.676 772.035 458.143 771.417ZM444.663 795.288L444.219 795.285V804.767L444.663 804.77V795.288ZM444.663 826.54H444.219V843.008H444.663V826.54ZM418.166 774.647L418.168 774.203C415.833 774.259 413.491 774.293 411.144 774.305V728.306C557.389 730.115 630.981 642.658 650.097 597.575H708.765H709.151L708.957 597.242L647.406 491.236C653.212 470.134 656.314 447.912 656.314 424.966C656.314 424.241 656.31 423.517 656.304 422.794H744.741L744.722 422.35H656.3C655.115 307.112 575.72 210.614 468.668 183.406L407.283 77.6848L407.089 77.3518L406.899 77.6864L346.651 183.118C239.02 209.927 159.063 306.702 157.874 422.35H57.7447C57.7454 421.152 57.7521 419.957 57.7648 418.762L57.321 418.758C57.3076 420.027 57.3008 421.298 57.3008 422.572C57.3008 425.374 57.3336 428.169 57.3986 430.956L57.8427 430.961C57.7791 428.246 57.7463 425.524 57.7447 422.794H157.87C157.864 423.517 157.86 424.241 157.86 424.966C157.86 449.532 161.415 473.268 168.037 495.688L110.004 597.244L109.815 597.575H110.197H167.015C187.761 641.072 264.489 726.317 410.7 728.3V774.306C410.294 774.308 409.887 774.308 409.481 774.308C406.937 774.308 404.399 774.282 401.869 774.227L401.856 774.671C404.391 774.725 406.933 774.752 409.481 774.752C409.887 774.752 410.294 774.751 410.7 774.75V775.967H411.144V774.748C413.489 774.737 415.83 774.703 418.166 774.647ZM382.412 779.972L381.969 779.959V785.612L382.412 785.615V779.972ZM382.412 826.696H381.969V843.008H382.412V826.696ZM360.849 771.421L360.862 770.975C354.102 770.041 347.405 768.914 340.774 767.601L340.697 768.038C347.349 769.355 354.068 770.485 360.849 771.421ZM332.001 766.202L332.079 765.764C328.976 765.067 325.889 764.33 322.818 763.551L322.741 763.989C325.812 764.767 328.899 765.505 332.001 766.202ZM314.126 761.691L314.204 761.252C309.353 759.889 304.545 758.427 299.781 756.864L299.631 757.282C304.418 758.852 309.251 760.323 314.126 761.691ZM272.297 747.034L272.448 746.616C261.238 741.869 250.324 736.557 239.745 730.718L239.513 731.097C250.119 736.952 261.059 742.277 272.297 747.034ZM225.426 722.888L225.657 722.509C220.478 719.329 215.389 716.018 210.392 712.581L210.161 712.96C215.157 716.397 220.247 719.708 225.426 722.888ZM204.747 709.162L204.979 708.783C201.23 706.099 197.536 703.343 193.897 700.517L193.665 700.899C197.303 703.724 200.998 706.479 204.747 709.162ZM188.452 696.771L188.686 696.39C182.608 691.483 176.697 686.378 170.963 681.084L170.626 681.378C176.393 686.702 182.338 691.837 188.452 696.771ZM160.505 671.654L160.841 671.362C155.331 665.855 150.002 660.166 144.866 654.306L144.531 654.597C149.667 660.457 154.996 666.147 160.505 671.654ZM138.173 647.136L138.507 646.844C134.721 642.275 131.048 637.608 127.493 632.849L127.158 633.14C130.713 637.9 134.386 642.567 138.173 647.136ZM123.54 628.211L123.876 627.918C120.327 622.991 116.903 617.967 113.607 612.853L113.223 613.076C116.534 618.214 119.974 623.26 123.54 628.211ZM109.964 607.922L110.348 607.699C105.678 600.168 101.284 592.447 97.1803 584.552L96.7955 584.776C100.9 592.67 105.294 600.391 109.964 607.922ZM91.4431 574.034L91.8287 573.81C88.8196 567.502 85.9929 561.089 83.3554 554.579L82.9311 554.714C85.5802 561.254 88.42 567.696 91.4431 574.034ZM78.6171 543.517L79.0414 543.383C77.0879 538.04 75.2602 532.639 73.5615 527.179L73.1381 527.314C74.8367 532.773 76.6645 538.175 78.6171 543.517ZM68.2963 510.229L68.7206 510.095C67.3023 504.557 66.0156 498.967 64.8637 493.328L64.4247 493.395C65.5806 499.058 66.8723 504.67 68.2963 510.229ZM62.7819 484.803L63.2202 484.735C62.8855 482.858 62.5657 480.976 62.2615 479.09L61.8225 479.158C62.1275 481.045 62.4473 482.927 62.7819 484.803ZM60.5358 470.51L60.9748 470.442C59.9742 463.089 59.2009 455.664 58.6621 448.173H58.963V447.729H58.6304C58.5826 447.052 58.5366 446.374 58.4926 445.696L58.0476 445.692C58.0917 446.372 58.1376 447.051 58.1856 447.729H44.586V448.173H58.2171C58.7569 455.686 59.5324 463.134 60.5358 470.51ZM649.615 597.575C630.446 642.563 557.005 729.668 411.144 727.862V674.16C480.171 673.059 542.382 643.894 586.864 597.575H649.615ZM586.248 597.575C541.867 643.631 479.893 672.617 411.144 673.716V597.575H586.248ZM410.7 673.723V597.575H227.925C273.179 644.535 336.721 673.749 407.087 673.749C408.293 673.749 409.498 673.74 410.7 673.723ZM586.675 597.132H411.144V530.459C467.568 528.328 512.657 481.912 512.657 424.966C512.657 368.019 467.568 321.604 411.144 319.472V177.398H410.7V319.457C409.5 319.416 408.296 319.396 407.087 319.396C348.782 319.396 301.517 366.661 301.517 424.966C301.517 483.271 348.782 530.536 407.087 530.536C408.296 530.536 409.5 530.516 410.7 530.476V597.132H227.498C200.414 568.886 179.927 534.264 168.517 495.743L210.202 422.794H210.756V422.35H210.456L346.942 183.503C366.202 178.721 386.348 176.184 407.087 176.184C428.238 176.184 448.772 178.823 468.379 183.79L646.929 491.298C635.807 531.602 614.798 567.804 586.675 597.132ZM512.213 424.966C512.213 481.667 467.323 527.884 411.144 530.015V479.077H410.7V530.031C409.5 530.072 408.296 530.093 407.087 530.093C349.027 530.093 301.961 483.025 301.961 424.966C301.961 366.906 349.027 319.84 407.087 319.84C408.296 319.84 409.5 319.86 410.7 319.901V321.055H411.144V319.916C467.323 322.048 512.213 368.264 512.213 424.966ZM168.212 496.276C179.624 534.564 199.992 568.992 226.884 597.132H167.295C167.237 597.008 167.178 596.885 167.121 596.762C167.048 596.608 166.978 596.456 166.907 596.303L166.504 596.489C166.603 596.702 166.703 596.917 166.804 597.132H110.579L168.212 496.276ZM410.7 727.856C264.89 725.876 188.321 640.991 167.506 597.575H227.309C272.662 644.8 336.442 674.193 407.087 674.193C408.293 674.193 409.498 674.184 410.7 674.166V727.856ZM209.691 422.794L168.342 495.153C161.809 472.893 158.304 449.339 158.304 424.966C158.304 424.241 158.307 423.517 158.313 422.794H209.691ZM209.945 422.35H158.318C159.506 307.058 239.117 210.556 346.346 183.651L209.945 422.35ZM407.087 175.74C386.458 175.74 366.416 178.246 347.246 182.97L407.093 78.2406L468.067 183.253C448.553 178.346 428.124 175.74 407.087 175.74ZM647.094 490.698L468.981 183.943C575.626 211.249 654.672 307.472 655.856 422.35H608.206V422.794H655.86C655.866 423.517 655.87 424.241 655.87 424.966C655.87 447.719 652.815 469.759 647.094 490.698ZM587.289 597.132C615.218 567.909 636.108 531.902 647.241 491.835L708.38 597.132H650.284C650.375 596.914 650.465 596.696 650.554 596.48L650.144 596.312C650.073 596.483 650.002 596.655 649.93 596.827C649.888 596.928 649.845 597.03 649.803 597.132H587.289ZM158.304 243.001C158.304 235.19 164.637 228.857 172.448 228.857C180.259 228.857 186.592 235.19 186.592 243.001C186.592 250.813 180.259 257.145 172.448 257.145C164.637 257.145 158.304 250.813 158.304 243.001ZM172.448 228.413C164.391 228.413 157.86 234.945 157.86 243.001C157.86 251.058 164.391 257.588 172.448 257.588C180.504 257.588 187.036 251.058 187.036 243.001C187.036 234.945 180.504 228.413 172.448 228.413ZM622.793 243.001C622.793 235.19 629.126 228.857 636.937 228.857C644.749 228.857 651.081 235.19 651.081 243.001C651.081 250.813 644.749 257.145 636.937 257.145C629.126 257.145 622.793 250.813 622.793 243.001ZM636.937 228.413C628.881 228.413 622.349 234.945 622.349 243.001C622.349 251.058 628.881 257.588 636.937 257.588C644.994 257.588 651.524 251.058 651.524 243.001C651.524 234.945 644.994 228.413 636.937 228.413ZM110.419 338.772C110.419 330.961 116.751 324.628 124.562 324.628C132.374 324.628 138.706 330.961 138.706 338.772C138.706 346.584 132.374 352.916 124.562 352.916C116.751 352.916 110.419 346.584 110.419 338.772ZM124.562 324.184C116.506 324.184 109.975 330.716 109.975 338.772C109.975 346.829 116.506 353.359 124.562 353.359C132.619 353.359 139.15 346.829 139.15 338.772C139.15 330.716 132.619 324.184 124.562 324.184ZM670.679 338.772C670.679 330.961 677.011 324.628 684.823 324.628C692.634 324.628 698.967 330.961 698.967 338.772C698.967 346.584 692.634 352.916 684.823 352.916C677.011 352.916 670.679 346.584 670.679 338.772ZM684.823 324.184C676.766 324.184 670.235 330.716 670.235 338.772C670.235 346.829 676.766 353.359 684.823 353.359C692.879 353.359 699.411 346.829 699.411 338.772C699.411 330.716 692.879 324.184 684.823 324.184ZM354.634 424.966C354.634 395.997 378.118 372.514 407.087 372.514C436.056 372.514 459.539 395.997 459.539 424.966C459.539 453.935 436.056 477.418 407.087 477.418C378.118 477.418 354.634 453.935 354.634 424.966ZM407.087 372.07C377.873 372.07 354.191 395.752 354.191 424.966C354.191 454.18 377.873 477.862 407.087 477.862C436.301 477.862 459.983 454.18 459.983 424.966C459.983 395.752 436.301 372.07 407.087 372.07Z" fill="#8F7E77"/>
</svg>
