<svg width="267" height="268" viewBox="-100 -100 467 468" fill="none" xmlns="http://www.w3.org/2000/svg">
<path fill-rule="evenodd" clip-rule="evenodd" d="M126.688 7.2887C126.688 3.33387 129.897 0.127824 133.856 0.127824C137.815 0.127824 141.024 3.33384 141.024 7.2887C141.024 11.2436 137.815 14.4496 133.856 14.4496C129.897 14.4496 126.688 11.2436 126.688 7.2887ZM133.856 0C129.827 0 126.56 3.26326 126.56 7.2887C126.56 11.2929 129.793 14.5429 133.793 14.5772V22.0063C133.602 22.0074 133.412 22.009 133.222 22.0111V22.1389C133.412 22.1368 133.602 22.1352 133.793 22.1341V40.8197C133.311 40.8233 132.831 40.8302 132.352 40.8409L132.362 40.9685C132.837 40.958 133.314 40.9511 133.793 40.9475V54.7862C118.972 54.9107 105.11 59.0491 93.2416 66.1663C88.1829 63.4925 83.3651 61.15 78.8742 59.1082C79.2755 58.8139 79.6793 58.523 80.0854 58.2351L79.9851 58.1495C79.5677 58.4455 79.1529 58.7449 78.7409 59.0473C74.5879 57.1619 70.7161 55.5342 67.1944 54.1397C64.1832 52.9476 61.4279 51.926 58.971 51.0599C59.6606 50.4402 60.3577 49.8287 61.0625 49.2259L60.968 49.1385C60.2487 49.754 59.537 50.3783 58.8336 51.0116C56.0381 50.0284 53.6336 49.2479 51.6839 48.6474C49.8402 48.0796 48.4033 47.6728 47.427 47.408C46.939 47.2756 46.5662 47.1784 46.3151 47.1147C46.1897 47.0828 46.0948 47.059 46.0311 47.0434C45.9993 47.0355 45.9753 47.0296 45.9592 47.0258L45.941 47.0214L45.9364 47.0204C45.9364 47.0204 45.9356 47.0202 45.933 47.0294C45.9318 47.0342 45.9297 47.0421 45.9267 47.0542L45.9348 47.0199L45.8238 46.9936L45.8594 47.102C47.2558 51.369 48.7237 55.5353 50.2575 59.6026C49.4793 60.47 48.7144 61.3497 47.9629 62.2411L48.057 62.3281C48.7945 61.453 49.5451 60.5894 50.3082 59.7373C52.8677 66.5145 55.6105 73.0174 58.5106 79.2562C57.5036 80.6247 56.533 82.0216 55.5997 83.4453L55.7064 83.5158C56.6256 82.1136 57.5814 80.7372 58.5723 79.3884C60.857 84.2963 63.2389 89.0404 65.7063 93.6262C58.5882 105.425 54.4264 119.205 54.2455 133.943H40.3923C40.4056 132.668 40.4442 131.399 40.5079 130.136L40.38 130.132C40.3163 131.396 40.2776 132.667 40.2643 133.943H21.5589C21.5681 132.895 21.5915 131.851 21.629 130.81L21.501 130.811C21.4635 131.852 21.4401 132.896 21.431 133.943H14.5918L14.5919 133.925V133.907C14.5919 129.882 11.3254 126.619 7.29596 126.619C3.26651 126.619 0 129.882 0 133.907C0 137.933 3.26651 141.196 7.29596 141.196C11.2708 141.196 14.5032 138.021 14.5901 134.071H21.4299C21.4277 134.362 21.4266 134.654 21.4266 134.946C21.4266 135.394 21.4292 135.841 21.4344 136.289L21.5624 136.287C21.5572 135.841 21.5546 135.394 21.5546 134.946C21.5546 134.654 21.5557 134.362 21.5579 134.071H40.263C40.2602 134.362 40.259 134.654 40.259 134.946C40.259 135.411 40.2623 135.875 40.2692 136.338L40.3971 136.342C40.3902 135.877 40.3869 135.412 40.3869 134.946C40.3869 134.654 40.3882 134.362 40.391 134.071H54.244C54.2409 134.362 54.2394 134.654 54.2394 134.946C54.2394 149.554 58.1506 163.249 64.9836 175.043C62.5459 179.766 60.2126 184.655 57.9986 189.713C57.681 189.272 57.3672 188.827 57.0576 188.38L56.9627 188.468C57.2841 188.931 57.6093 189.392 57.9389 189.849C55.1322 196.272 52.5179 202.969 50.126 209.95C49.7176 209.492 49.3127 209.031 48.9117 208.566L48.8148 208.649C49.2319 209.133 49.6531 209.613 50.0784 210.089C48.9381 213.423 47.8482 216.823 46.8126 220.288L46.7811 220.394L46.8883 220.369L46.8737 220.306C46.8883 220.369 46.8899 220.368 46.8899 220.368L46.8942 220.367L46.9119 220.363C46.9272 220.359 46.9505 220.354 46.9812 220.347C47.0426 220.332 47.1343 220.31 47.2556 220.279C47.4979 220.219 47.8582 220.127 48.3298 220.002C49.2733 219.75 50.6629 219.363 52.4478 218.819C53.7918 218.409 55.36 217.911 57.1308 217.316C58.0277 218.157 58.9385 218.983 59.8628 219.795L59.9565 219.707C59.0472 218.909 58.1513 218.096 57.2685 217.269C60.1724 216.29 63.6133 215.051 67.4974 213.515C70.4218 212.358 73.5973 211.033 76.9841 209.523C78.1449 210.417 79.3274 211.285 80.5304 212.126L80.6264 212.037C79.4362 211.206 78.266 210.347 77.1167 209.463C81.5369 207.489 86.3146 205.201 91.3617 202.563C103.635 210.39 118.182 214.974 133.793 215.105V228.944C133.383 228.941 132.975 228.936 132.567 228.927V229.055C132.975 229.063 133.383 229.069 133.793 229.072V247.757C133.571 247.756 133.35 247.754 133.129 247.751L133.12 247.879C133.344 247.882 133.568 247.884 133.793 247.885V253.423C129.793 253.457 126.56 256.706 126.56 260.712C126.56 264.738 129.827 268 133.856 268C137.886 268 141.152 264.738 141.152 260.712C141.152 256.706 137.92 253.457 133.92 253.423V247.886C134.107 247.887 134.294 247.887 134.48 247.887C135.113 247.887 135.745 247.882 136.376 247.872V247.744C135.745 247.754 135.113 247.759 134.48 247.759C134.294 247.759 134.107 247.759 133.92 247.758V229.073C134.032 229.073 134.144 229.074 134.255 229.074C134.331 229.074 134.406 229.074 134.481 229.074C135.156 229.074 135.829 229.067 136.5 229.053L136.49 228.925C135.822 228.939 135.152 228.946 134.481 228.946C134.294 228.946 134.107 228.946 133.92 228.945V215.106C134.107 215.108 134.294 215.108 134.482 215.108C150.16 215.108 164.789 210.616 177.148 202.85C182.277 205.483 187.111 207.749 191.552 209.688C190.985 210.12 190.414 210.547 189.837 210.966L189.913 211.069C190.509 210.635 191.1 210.194 191.686 209.747C194.367 210.916 196.905 211.965 199.277 212.903C204.144 214.828 208.314 216.286 211.605 217.351C210.383 218.494 209.135 219.609 207.863 220.696L207.957 220.784C209.245 219.683 210.508 218.553 211.744 217.396C212.679 217.698 213.541 217.968 214.327 218.207C216.112 218.751 217.501 219.138 218.445 219.39C218.916 219.516 219.277 219.608 219.519 219.668C219.64 219.698 219.732 219.72 219.793 219.735C219.824 219.743 219.847 219.748 219.863 219.752L219.88 219.756L219.885 219.757C219.885 219.757 219.885 219.757 219.886 219.754C219.888 219.749 219.891 219.736 219.9 219.697L219.886 219.757L219.993 219.782L219.962 219.677C219.153 216.97 218.311 214.304 217.438 211.677C218.323 210.722 219.192 209.752 220.044 208.768L219.95 208.681C219.113 209.648 218.261 210.601 217.392 211.539C215.075 204.582 212.538 197.905 209.81 191.496C210.112 191.096 210.41 190.693 210.705 190.288L210.598 190.218C210.319 190.601 210.037 190.982 209.752 191.361C207.604 186.323 205.338 181.451 202.968 176.741C210.426 164.572 214.724 150.26 214.724 134.946C214.724 134.654 214.723 134.362 214.72 134.071H228.571C228.574 134.362 228.575 134.654 228.575 134.946C228.575 135.572 228.569 136.197 228.557 136.821L228.684 136.824C228.697 136.2 228.703 135.574 228.703 134.946C228.703 134.654 228.702 134.362 228.699 134.071H247.403C247.405 134.362 247.407 134.654 247.407 134.946C247.407 135.872 247.395 136.795 247.373 137.716L247.501 137.714C247.523 136.794 247.535 135.871 247.535 134.946C247.535 134.654 247.533 134.362 247.531 134.071H252.41C252.444 138.067 255.696 141.296 259.704 141.296C263.735 141.296 267 138.033 267 134.007C267 129.982 263.735 126.718 259.704 126.718C255.697 126.718 252.444 129.947 252.41 133.943H247.53C247.526 133.496 247.52 133.049 247.511 132.603L247.383 132.606C247.392 133.052 247.398 133.497 247.402 133.943H228.698C228.696 133.756 228.693 133.569 228.69 133.382L228.562 133.378C228.565 133.566 228.568 133.755 228.57 133.943H214.718C214.529 118.526 209.984 104.158 202.255 92.0082C204.661 87.4336 206.983 82.7042 209.208 77.8146C210.098 78.975 210.962 80.1564 211.798 81.3582L211.905 81.2886C211.054 80.0654 210.175 78.8631 209.268 77.6827C212.098 71.4557 214.771 64.9694 217.263 58.2142C218.202 59.2245 219.123 60.2525 220.024 61.2968L220.122 61.2134C219.205 60.1515 218.268 59.1066 217.313 58.0795C218.56 54.6921 219.762 51.2373 220.915 47.7135L220.951 47.6048L220.84 47.6314L220.855 47.6935C220.84 47.6314 220.838 47.6317 220.838 47.6317L220.834 47.6329L220.815 47.6373C220.799 47.6411 220.775 47.647 220.744 47.6547C220.68 47.6705 220.585 47.694 220.459 47.726C220.208 47.7899 219.836 47.8868 219.348 48.0192C218.371 48.2841 216.934 48.6908 215.091 49.2589C213.64 49.7055 211.938 50.2518 210.011 50.907C209.365 50.327 208.712 49.7543 208.053 49.1891L207.954 49.2732C208.6 49.8264 209.239 50.3868 209.872 50.9543C206.929 51.9572 203.468 53.2119 199.58 54.7512C196.593 55.9338 193.355 57.2841 189.906 58.8175C189.653 58.6332 189.399 58.4499 189.144 58.2681L189.048 58.3568C189.29 58.5291 189.531 58.7027 189.771 58.8776C185.255 60.8885 180.381 63.2121 175.243 65.8815C163.297 58.8298 149.362 54.7834 134.482 54.7834C134.294 54.7834 134.107 54.7839 133.92 54.7852V40.9468C134.107 40.9457 134.294 40.945 134.481 40.945C135.114 40.945 135.746 40.9513 136.376 40.9639V40.8358C135.746 40.8235 135.114 40.8171 134.481 40.8171C134.294 40.8171 134.107 40.8179 133.92 40.8189V22.1334C134.107 22.1325 134.294 22.132 134.48 22.132C135.211 22.132 135.94 22.139 136.668 22.1528L136.678 22.0251C135.947 22.0112 135.215 22.0042 134.48 22.0042C134.294 22.0042 134.107 22.0046 133.92 22.0056V14.5772C137.92 14.5427 141.152 11.2928 141.152 7.2887C141.152 3.26326 137.886 0 133.856 0ZM139.428 22.1104L139.418 22.2379C140.872 22.3004 142.318 22.3903 143.757 22.5072L143.767 22.3798C142.328 22.2629 140.881 22.1729 139.428 22.1104ZM147.083 22.698L147.073 22.8256C148.402 22.9728 149.723 23.143 151.037 23.3359L151.07 23.2116C149.749 23.0174 148.419 22.8461 147.083 22.698ZM154.612 23.7896L154.579 23.9134C155.619 24.1001 156.654 24.3009 157.683 24.5158L157.714 24.3916C156.685 24.1769 155.651 23.9761 154.612 23.7896ZM161.878 25.3434L161.848 25.4675C162.543 25.6404 163.235 25.8196 163.925 26.0052L163.955 25.8809C163.266 25.6953 162.573 25.5161 161.878 25.3434ZM164.688 26.0806L164.657 26.2049C165.412 26.4137 166.164 26.63 166.913 26.8539L166.944 26.7297C166.195 26.5058 165.443 26.2895 164.688 26.0806ZM167.671 26.9498L167.64 27.0741C168.264 27.2653 168.886 27.4616 169.505 27.6631L169.555 27.545C168.93 27.3412 168.302 27.1428 167.671 26.9498ZM171.541 28.2125L171.491 28.3303C172.322 28.6182 173.147 28.9152 173.969 29.2215L174.024 29.1057C173.201 28.7984 172.373 28.5008 171.541 28.2125ZM175.98 29.8563L175.925 29.9718C178.265 30.8947 180.567 31.8935 182.828 32.9649L182.883 32.8494C180.622 31.778 178.32 30.7792 175.98 29.8563ZM187.121 34.9687L187.066 35.0842C187.547 35.3371 188.025 35.5935 188.501 35.8532L188.556 35.7374C188.08 35.4779 187.602 35.2215 187.121 34.9687ZM189.561 36.2917L189.506 36.4075C190.721 37.0862 191.923 37.7867 193.11 38.5086L193.196 38.4115C191.999 37.6832 190.787 36.9763 189.561 36.2917ZM194.186 39.0207L194.1 39.1178C195.228 39.8199 196.343 40.5413 197.445 41.2816L197.53 41.185C196.429 40.4447 195.314 39.723 194.186 39.0207ZM199.335 42.4241L199.25 42.5205C199.954 43.0142 200.653 43.5155 201.345 44.0247L201.437 43.9335C200.743 43.4224 200.042 42.9193 199.335 42.4241ZM204.177 46.0132L204.086 46.1042C204.579 46.4902 205.069 46.8803 205.555 47.2743L205.654 47.1897C205.165 46.7937 204.672 46.4012 204.177 46.0132ZM206.61 47.9737L206.512 48.0583C206.718 48.2286 206.923 48.3994 207.127 48.5712L207.225 48.4868C207.021 48.315 206.816 48.144 206.61 47.9737ZM138.754 40.9122V41.0403C139.949 41.0937 141.137 41.1692 142.32 41.2666V41.1385C141.137 41.0411 139.949 40.9657 138.754 40.9122ZM147.077 41.6511V41.7799C148.509 41.9714 149.93 42.1948 151.341 42.45L151.367 42.3247C149.948 42.068 148.517 41.8433 147.077 41.6511ZM157.182 43.5671L157.156 43.6924C158.744 44.0851 160.317 44.5181 161.872 44.9901L161.917 44.8702C160.356 44.3962 158.777 43.9613 157.182 43.5671ZM167.552 46.7786L167.507 46.8982C168.769 47.3709 170.018 47.8699 171.254 48.3945L171.32 48.2838C170.078 47.7559 168.821 47.2541 167.552 46.7786ZM173.583 49.2806L173.517 49.3908C174.719 49.9389 175.906 50.5115 177.081 51.108L177.15 50.9998C175.975 50.4026 174.786 49.8292 173.583 49.2806ZM181.388 53.2927L181.319 53.4003C182.357 53.9968 183.383 54.6126 184.396 55.2469L184.475 55.1459C183.459 54.5091 182.43 53.8912 181.388 53.2927ZM185.779 55.9775L185.7 56.0785C186.392 56.5282 187.078 56.9868 187.758 57.4539L187.854 57.3649C187.169 56.8935 186.477 56.431 185.779 55.9775ZM220.818 62.0284L220.721 62.1115C221.138 62.6039 221.551 63.0999 221.96 63.5994L222.057 63.516C221.648 63.0165 221.235 62.5206 220.818 62.0284ZM224.124 66.1198L224.027 66.2032C225.534 68.1589 226.978 70.1654 228.356 72.2198L228.463 72.1492C227.082 70.0905 225.635 68.0796 224.124 66.1198ZM231.593 77.0868L231.486 77.1574C232.145 78.2587 232.785 79.3723 233.407 80.4974L233.529 80.4527C232.902 79.3186 232.257 78.1966 231.593 77.0868ZM236.241 85.6801L236.12 85.7246C236.42 86.3423 236.715 86.9632 237.004 87.5873L237.125 87.5425C236.836 86.9185 236.541 86.2978 236.241 85.6801ZM238.327 90.2289L238.207 90.2734C238.776 91.5904 239.321 92.9203 239.841 94.263L239.968 94.2356C239.446 92.8874 238.899 91.5516 238.327 90.2289ZM240.807 96.4771L240.681 96.5042C241.081 97.6051 241.463 98.7141 241.829 99.8307L241.955 99.8039C241.589 98.6872 241.207 97.5782 240.807 96.4771ZM242.58 101.776L242.455 101.803C242.974 103.494 243.455 105.201 243.896 106.925L244.021 106.898C243.58 105.175 243.1 103.467 242.58 101.776ZM244.935 110.754L244.81 110.78C245.082 112.027 245.334 113.282 245.565 114.543L245.69 114.517C245.459 113.255 245.207 112 244.935 110.754ZM246.334 118.43L246.209 118.457C246.335 119.315 246.451 120.177 246.557 121.041L246.683 121.014C246.577 120.15 246.46 119.288 246.334 118.43ZM246.849 122.44L246.724 122.467C246.816 123.309 246.9 124.154 246.974 125.001L247.102 124.997C247.027 124.142 246.943 123.29 246.849 122.44ZM247.218 126.424L247.09 126.427C247.16 127.368 247.219 128.312 247.266 129.259L247.394 129.255C247.347 128.309 247.288 127.364 247.218 126.424ZM213.231 83.2461L213.124 83.3157C214.424 85.2875 215.651 87.3107 216.802 89.3822L216.92 89.3318C215.766 87.2536 214.535 85.2241 213.231 83.2461ZM218.047 91.421L217.929 91.4713C218.429 92.4274 218.913 93.3933 219.381 94.3686L219.499 94.3185C219.031 93.3432 218.547 92.3773 218.047 91.421ZM220.907 97.3957L220.789 97.4458C221.376 98.792 221.933 100.155 222.457 101.533L222.584 101.506C222.057 100.12 221.497 98.7496 220.907 97.3957ZM224.847 108.205L224.725 108.245C224.933 108.948 225.133 109.654 225.325 110.364L225.45 110.337C225.257 109.623 225.056 108.912 224.847 108.205ZM226.275 113.62L226.149 113.647C226.305 114.318 226.453 114.993 226.595 115.67L226.722 115.653C226.58 114.973 226.431 114.295 226.275 113.62ZM227.353 118.981L227.226 118.998C227.398 120.005 227.555 121.017 227.695 122.034L227.824 122.036C227.684 121.012 227.526 119.994 227.353 118.981ZM227.989 123.3L227.86 123.299C227.983 124.296 228.091 125.299 228.183 126.306L228.312 126.308C228.22 125.3 228.112 124.298 227.989 123.3ZM228.418 127.571L228.29 127.57C228.367 128.568 228.429 129.57 228.475 130.577L228.603 130.58C228.557 129.573 228.496 128.57 228.418 127.571ZM247.455 139.226L247.327 139.227C247.296 140.046 247.257 140.863 247.209 141.678L247.337 141.676C247.385 140.862 247.424 140.045 247.455 139.226ZM247.238 143.188L247.11 143.19C247.027 144.337 246.927 145.479 246.81 146.617L246.937 146.634C247.054 145.49 247.155 144.342 247.238 143.188ZM246.45 150.654L246.323 150.637C246.093 152.29 245.826 153.932 245.525 155.561L245.648 155.602C245.951 153.965 246.219 152.315 246.45 150.654ZM244.834 159.596L244.712 159.556C244.376 161.065 244.009 162.562 243.613 164.048L243.735 164.088C244.131 162.602 244.498 161.105 244.834 159.596ZM241.561 171.268L241.44 171.228C240.773 173.189 240.054 175.127 239.284 177.039L239.398 177.098C240.171 175.18 240.892 173.236 241.561 171.268ZM238.592 179.044L238.478 178.985C237.96 180.205 237.421 181.413 236.862 182.61L236.976 182.668C237.536 181.471 238.074 180.263 238.592 179.044ZM235.69 185.329L235.576 185.27C235.104 186.216 234.619 187.153 234.121 188.083L234.234 188.142C234.732 187.212 235.218 186.274 235.69 185.329ZM232.195 191.787L232.08 191.729C231.595 192.56 231.099 193.385 230.593 194.202L230.707 194.261C231.213 193.443 231.709 192.618 232.195 191.787ZM229.517 196.141L229.403 196.082C228.966 196.759 228.521 197.43 228.069 198.097L228.181 198.161C228.633 197.492 229.079 196.819 229.517 196.141ZM225.531 201.907L225.419 201.843C224.59 202.965 223.742 204.071 222.873 205.161L222.968 205.248C223.842 204.151 224.697 203.037 225.531 201.907ZM228.62 138.928L228.492 138.924C228.448 139.972 228.388 141.015 228.31 142.054L228.438 142.057C228.516 141.019 228.576 139.976 228.62 138.928ZM228.341 143.249L228.213 143.245C228.154 143.92 228.088 144.592 228.015 145.262L228.141 145.289C228.215 144.611 228.282 143.931 228.341 143.249ZM228.002 146.48L227.877 146.453C227.789 147.176 227.692 147.895 227.588 148.612L227.713 148.639C227.818 147.922 227.914 147.202 228.002 146.48ZM227.177 151.909L227.052 151.882C226.86 152.936 226.65 153.984 226.423 155.026L226.548 155.053C226.775 154.011 226.985 152.963 227.177 151.909ZM225.787 158.274L225.662 158.247C225.294 159.687 224.893 161.113 224.46 162.526L224.585 162.553C225.019 161.14 225.419 159.714 225.787 158.274ZM224.064 164.2L223.938 164.174C223.518 165.455 223.072 166.724 222.6 167.981L222.727 168.008C223.199 166.751 223.644 165.482 224.064 164.2ZM222.405 168.852L222.278 168.825C221.853 169.923 221.409 171.01 220.945 172.087L221.065 172.132C221.531 171.049 221.978 169.956 222.405 168.852ZM220.062 174.376L219.942 174.332C219.162 176.018 218.333 177.677 217.458 179.308L217.579 179.353C218.454 177.722 219.283 176.063 220.062 174.376ZM215.126 183.65L215.003 183.605C214.473 184.478 213.929 185.343 213.372 186.198L213.478 186.268C214.041 185.405 214.591 184.532 215.126 183.65ZM206.537 221.979L206.442 221.891C205.519 222.655 204.583 223.404 203.635 224.138L203.704 224.246C204.661 223.505 205.605 222.749 206.537 221.979ZM202.234 225.367L202.165 225.259C200.62 226.416 199.045 227.534 197.44 228.613L197.509 228.721C199.114 227.642 200.689 226.524 202.234 225.367ZM192.655 231.807L192.586 231.699C190.176 233.147 187.707 234.507 185.184 235.776L185.25 235.886C187.774 234.617 190.244 233.256 192.655 231.807ZM182.6 237.176L182.533 237.066C180.996 237.789 179.44 238.478 177.866 239.133L177.911 239.253C179.492 238.595 181.055 237.902 182.6 237.176ZM171.256 241.777L171.211 241.658C168.916 242.446 166.588 243.162 164.229 243.804L164.255 243.929C166.621 243.286 168.955 242.568 171.256 241.777ZM157.328 245.58L157.302 245.455C154.631 246.002 151.924 246.456 149.188 246.811V246.94C151.933 246.584 154.648 246.129 157.328 245.58ZM141.001 247.702V247.574C140.41 247.608 139.817 247.637 139.223 247.662V247.79C139.817 247.765 140.41 247.736 141.001 247.702ZM186.787 213.25L186.711 213.147C185.622 213.874 184.517 214.58 183.396 215.262L183.473 215.365C184.593 214.682 185.699 213.977 186.787 213.25ZM182.541 215.926L182.464 215.822C182.202 215.978 181.94 216.132 181.677 216.285L181.753 216.388C182.017 216.235 182.279 216.081 182.541 215.926ZM180.807 216.93L180.73 216.826C180.426 216.998 180.12 217.169 179.813 217.338L179.89 217.441C180.197 217.272 180.503 217.102 180.807 216.93ZM177.113 218.911L177.036 218.806C176.381 219.138 175.722 219.463 175.059 219.78L175.093 219.906C175.771 219.582 176.444 219.25 177.113 218.911ZM172.229 221.216L172.195 221.091C171.225 221.516 170.246 221.924 169.259 222.317L169.293 222.441C170.28 222.049 171.258 221.64 172.229 221.216ZM163.788 224.432L163.754 224.308C159.99 225.538 156.121 226.537 152.164 227.289L152.197 227.413C153.93 227.084 155.646 226.707 157.343 226.284L160.783 225.356L160.784 225.358C161.792 225.065 162.793 224.757 163.788 224.432ZM149.445 227.894L149.412 227.77C148.011 227.993 146.6 228.185 145.18 228.346L145.189 228.473C146.618 228.312 148.037 228.118 149.445 227.894ZM142.42 228.745L142.41 228.617C141.208 228.718 140.001 228.795 138.787 228.85L138.797 228.977C140.011 228.923 141.218 228.845 142.42 228.745ZM130.368 247.814L130.378 247.686C129.101 247.641 127.828 247.574 126.562 247.486L126.552 247.614C127.818 247.701 129.091 247.768 130.368 247.814ZM123.813 247.391L123.823 247.263C121.861 247.08 119.914 246.846 117.983 246.564L117.973 246.692C119.904 246.974 121.851 247.207 123.813 247.391ZM115.249 246.26L115.259 246.132C114.276 245.963 113.298 245.782 112.323 245.589L112.294 245.713C113.275 245.908 114.26 246.09 115.249 246.26ZM111.227 245.496L111.257 245.371C110.715 245.258 110.175 245.141 109.636 245.02L109.607 245.145C110.145 245.266 110.686 245.383 111.227 245.496ZM108.546 244.902L108.575 244.777C107.383 244.497 106.198 244.199 105.021 243.882L104.992 244.007C106.169 244.324 107.354 244.622 108.546 244.902ZM102.867 243.412L102.896 243.288C101.166 242.785 99.4523 242.242 97.7572 241.66L97.728 241.785C99.4231 242.367 101.137 242.91 102.867 243.412ZM95.6371 241.044L95.6662 240.919C94.507 240.495 93.3565 240.053 92.2154 239.592L92.186 239.718C93.327 240.178 94.4776 240.62 95.6371 241.044ZM89.3219 238.517L89.3514 238.39C88.0667 237.83 86.7947 237.247 85.5354 236.641L85.4732 236.753C86.743 237.364 88.026 237.952 89.3219 238.517ZM82.7299 235.386L82.7921 235.275C81.5597 234.64 80.3406 233.983 79.1353 233.305L79.0731 233.416C80.2786 234.095 81.4975 234.752 82.7299 235.386ZM77.5878 232.566L77.65 232.454C77.2267 232.207 76.8053 231.958 76.3856 231.706L76.3234 231.818C76.7431 232.069 77.1646 232.319 77.5878 232.566ZM74.8615 230.925L74.9236 230.813C73.6037 229.992 72.3017 229.146 71.0188 228.273L70.9564 228.385C72.2395 229.258 73.5415 230.104 74.8615 230.925ZM68.3838 226.584L68.4462 226.471C67.6893 225.926 66.9395 225.37 66.1966 224.806L66.1022 224.895C66.8553 225.467 67.6158 226.03 68.3838 226.584ZM63.6128 222.948L63.707 222.86C62.9789 222.274 62.258 221.679 61.5448 221.076L61.4509 221.164C62.1641 221.768 62.8847 222.362 63.6128 222.948ZM130.188 228.978V228.85C128.994 228.797 127.805 228.721 126.623 228.623V228.752C127.805 228.849 128.994 228.925 130.188 228.978ZM121.866 228.238V228.109C120.513 227.928 119.17 227.718 117.836 227.48L117.81 227.605C119.152 227.845 120.505 228.056 121.866 228.238ZM111.993 226.377L112.018 226.251C110.488 225.877 108.972 225.465 107.471 225.016L107.426 225.136C108.933 225.587 110.455 226 111.993 226.377ZM101.783 223.252L101.828 223.132C100.627 222.688 99.4367 222.22 98.259 221.729L98.1923 221.84C99.3771 222.334 100.574 222.805 101.783 223.252ZM95.9214 220.856L95.9877 220.746C94.7911 220.209 93.6078 219.649 92.4381 219.064L92.3687 219.172C93.5392 219.758 94.7235 220.319 95.9214 220.856ZM88.1131 216.906L88.1821 216.799C87.168 216.225 86.1654 215.633 85.1748 215.023L85.0955 215.124C86.0891 215.736 87.0953 216.33 88.1131 216.906ZM83.7845 214.302L83.8638 214.2C83.2128 213.785 82.5674 213.361 81.9274 212.93L81.8309 213.019C82.4766 213.454 83.1278 213.882 83.7845 214.302ZM46.3095 205.643L46.4067 205.559C44.3053 202.947 42.3179 200.239 40.4522 197.443L40.3454 197.514C42.214 200.314 44.2047 203.026 46.3095 205.643ZM38.6268 194.858L38.7335 194.788C37.9279 193.504 37.1474 192.203 36.3928 190.885L36.2784 190.943C37.0354 192.265 37.8184 193.57 38.6268 194.858ZM33.4607 185.706L33.5814 185.661C33.1124 184.732 32.6559 183.795 32.2119 182.851L32.0988 182.911C32.5402 183.85 32.9942 184.782 33.4607 185.706ZM30.8817 180.232L30.9948 180.172C30.6322 179.344 30.279 178.512 29.9356 177.675L29.8087 177.702C30.1562 178.55 30.514 179.394 30.8817 180.232ZM29.4018 176.695L29.5287 176.668C29.0597 175.491 28.6098 174.305 28.1794 173.109L28.0532 173.136C28.4834 174.332 28.933 175.518 29.4018 176.695ZM27.1972 170.665L27.3231 170.638C26.7622 168.957 26.2399 167.258 25.7573 165.543L25.6319 165.57C26.1145 167.285 26.6365 168.984 27.1972 170.665ZM24.6257 161.734L24.7509 161.707C24.4489 160.467 24.1674 159.219 23.9069 157.963L23.7817 157.99C24.0423 159.246 24.3238 160.494 24.6257 161.734ZM23.0452 154.097L23.1704 154.07C23.0245 153.216 22.8881 152.359 22.7615 151.498L22.6361 151.525C22.7628 152.385 22.8992 153.243 23.0452 154.097ZM22.4364 150.106L22.5619 150.079C22.4464 149.219 22.3407 148.356 22.2448 147.49L22.1164 147.493C22.2131 148.367 22.3198 149.238 22.4364 150.106ZM21.9678 146.068L22.0961 146.064C22.004 145.124 21.9235 144.181 21.8547 143.234L21.7267 143.238C21.7954 144.184 21.8759 145.128 21.9678 146.068ZM21.5331 139.892L21.661 139.889C21.6437 139.486 21.6284 139.084 21.6153 138.68L21.4873 138.681C21.5004 139.086 21.5157 139.489 21.5331 139.892ZM56.0627 187.145L56.1579 187.058C55.8631 186.616 55.5718 186.172 55.2842 185.726L55.1698 185.784C55.4636 186.241 55.7612 186.695 56.0627 187.145ZM54.1797 184.212L54.2939 184.153C53.9469 183.59 53.6058 183.023 53.2705 182.453L53.1566 182.511C53.4919 183.082 53.833 183.649 54.1797 184.212ZM51.4452 179.469L51.559 179.411C51.208 178.759 50.8645 178.102 50.5285 177.441L50.4147 177.5C50.7507 178.161 51.0943 178.818 51.4452 179.469ZM49.3255 175.285L49.4394 175.226C49.0632 174.435 48.6976 173.638 48.3431 172.835L48.2293 172.893C48.5837 173.696 48.9491 174.494 49.3255 175.285ZM47.5342 171.278L47.6484 171.219C47.187 170.118 46.7458 169.006 46.3254 167.884L46.2038 167.924C46.6263 169.053 47.07 170.171 47.5342 171.278ZM44.2047 161.986L44.3262 161.946C44.1016 161.196 43.8858 160.442 43.6796 159.685L43.5542 159.711C43.7617 160.473 43.9785 161.232 44.2047 161.986ZM42.7243 156.429L42.8494 156.403C42.6846 155.698 42.5278 154.989 42.3788 154.278L42.2516 154.295C42.4011 155.009 42.5587 155.721 42.7243 156.429ZM41.6183 150.967L41.7452 150.95C41.561 149.876 41.3949 148.797 41.2472 147.711L41.118 147.71C41.2662 148.801 41.433 149.887 41.6183 150.967ZM40.955 146.445L41.0842 146.447C40.9624 145.449 40.8562 144.447 40.7659 143.439L40.6372 143.438C40.7275 144.445 40.8335 145.448 40.955 146.445ZM40.5328 142.175L40.6612 142.176C40.5845 141.169 40.5238 140.159 40.479 139.143L40.3508 139.14C40.3953 140.155 40.456 141.167 40.5328 142.175ZM21.5654 129.299L21.6936 129.298C21.7523 128.109 21.8294 126.925 21.9246 125.747L21.7976 125.73C21.7018 126.914 21.6243 128.105 21.5654 129.299ZM22.1962 121.697L22.323 121.714C22.5245 119.991 22.765 118.28 23.0433 116.581L22.9203 116.54C22.6403 118.247 22.3987 119.966 22.1962 121.697ZM23.6553 112.52L23.7777 112.56C24.0836 111.042 24.42 109.535 24.7863 108.039L24.6644 107.999C24.298 109.494 23.9614 111.001 23.6553 112.52ZM26.6944 100.772L26.8159 100.812C27.4672 98.7601 28.1753 96.7338 28.9389 94.7349L28.8245 94.6761C28.0581 96.6811 27.3474 98.7135 26.6944 100.772ZM29.5963 92.712L29.7104 92.7705C30.2071 91.5406 30.7246 90.3217 31.263 89.1135L31.1489 89.0549C30.6107 90.2629 30.0927 91.4821 29.5963 92.712ZM32.3879 86.3701L32.5018 86.4287C32.9573 85.4751 33.4259 84.5287 33.907 83.59L33.7931 83.5317C33.312 84.4704 32.8434 85.4166 32.3879 86.3701ZM35.7666 79.8519L35.8805 79.9104C36.3508 79.0714 36.8314 78.239 37.3225 77.4135L37.2083 77.355C36.7175 78.1805 36.2369 79.0129 35.7666 79.8519ZM38.3625 75.4566L38.4766 75.5154C38.9167 74.807 39.3646 74.1039 39.8201 73.4063L39.7088 73.3429C39.2525 74.0421 38.8036 74.7466 38.3625 75.4566ZM42.2903 69.5572L42.4019 69.6209C43.3019 68.357 44.2275 67.1125 45.1776 65.8879L45.0832 65.8008C44.1272 67.033 43.1957 68.2851 42.2903 69.5572ZM40.4475 128.94L40.5758 128.943C40.6269 128.13 40.6886 127.319 40.7605 126.511L40.6346 126.484C40.5617 127.299 40.4995 128.118 40.4475 128.94ZM40.749 125.287L40.8749 125.314C40.9486 124.589 41.0307 123.866 41.1211 123.146L40.9954 123.119C40.9051 123.839 40.823 124.562 40.749 125.287ZM41.4665 119.836L41.5917 119.863C41.7526 118.867 41.929 117.876 42.1209 116.891L41.9955 116.866C41.8036 117.85 41.6273 118.84 41.4665 119.836ZM42.6877 113.619L42.8134 113.644C43.1501 112.192 43.5204 110.753 43.9237 109.327L43.7978 109.302C43.3948 110.728 43.0245 112.167 42.6877 113.619ZM44.2848 107.64L44.4107 107.665C44.6924 106.736 44.988 105.812 45.2974 104.896L45.1707 104.871C44.8616 105.787 44.5663 106.71 44.2848 107.64ZM45.8443 102.944L45.9712 102.969C46.4116 101.753 46.8761 100.549 47.3646 99.357L47.2433 99.3153C46.7527 100.513 46.2862 101.722 45.8443 102.944ZM48.2139 97.0327L48.3355 97.0746C48.6809 96.291 49.0371 95.5131 49.4033 94.741L49.2815 94.6991C48.9153 95.4714 48.5594 96.2494 48.2139 97.0327ZM51.1355 91.0019L51.2581 91.0441C51.8613 89.9052 52.4875 88.7799 53.1357 87.6693L53.0287 87.5988C52.3749 88.7185 51.7436 89.8533 51.1355 91.0019ZM62.3883 47.9428L62.483 48.0305C63.1962 47.4402 63.9168 46.8583 64.6446 46.2854L64.5752 46.1773C63.8387 46.7568 63.1097 47.3456 62.3883 47.9428ZM66.038 45.0453L66.1073 45.1532C67.6437 43.9838 69.2111 42.8529 70.808 41.7618L70.7389 41.6541C69.142 42.7452 67.5746 43.876 66.038 45.0453ZM75.5698 38.5306L75.6389 38.6383C78.0579 37.1601 80.5368 35.7704 83.0713 34.4735L83.0053 34.3636C80.4698 35.6612 77.9898 37.0517 75.5698 38.5306ZM85.6451 33.0559L85.7114 33.1659C87.3858 32.3637 89.0834 31.6016 90.8023 30.8806L90.7573 30.7607C89.031 31.4847 87.3264 32.2501 85.6451 33.0559ZM97.4046 28.2178L97.4499 28.3375C99.8738 27.4974 102.335 26.7374 104.831 26.0607L104.805 25.9351C102.303 26.6134 99.8349 27.3755 97.4046 28.2178ZM111.734 24.2911L111.759 24.4163C114.606 23.8355 117.49 23.3617 120.41 22.9992V22.8704C117.482 23.2336 114.588 23.7086 111.734 24.2911ZM126.104 22.3095V22.4377C127.521 22.3339 128.944 22.2563 130.375 22.2052V22.0773C128.944 22.1283 127.521 22.2059 126.104 22.3095ZM82.7076 56.2881L82.809 56.3748C83.8884 55.6649 84.9834 54.9764 86.0932 54.3104L86.0305 54.199C84.9076 54.8729 83.7998 55.5695 82.7076 56.2881ZM90.453 51.7044L90.5157 51.8161C91.7018 51.1887 92.9028 50.5859 94.1183 50.0084L94.0556 49.8967C92.8401 50.4742 91.6391 51.077 90.453 51.7044ZM96.1824 48.9183L96.2453 49.0303C97.4614 48.4894 98.691 47.9735 99.9334 47.4834L99.8937 47.3615C98.6434 47.8546 97.4061 48.3738 96.1824 48.9183ZM102.078 46.5314L102.118 46.6531C103.039 46.3159 103.967 45.9927 104.901 45.6839L104.853 45.5653C103.921 45.8733 102.996 46.1954 102.078 46.5314ZM109.087 44.2755L109.135 44.3947C110.163 44.1083 111.197 43.8389 112.239 43.5868L112.229 43.4577C111.174 43.7126 110.127 43.9854 109.087 44.2755ZM116.577 42.5144L116.587 42.6427C118.245 42.3239 119.919 42.0483 121.606 41.8177L121.596 41.6902C119.909 41.9205 118.235 42.1958 116.577 42.5144ZM126.432 41.1559L126.442 41.2834C127.643 41.1817 128.851 41.1029 130.065 41.0467L130.055 40.9194C128.841 40.9754 127.633 41.0544 126.432 41.1559ZM93.3736 66.2361C105.208 59.155 119.024 55.0383 133.793 54.914V92.4466L133.778 92.4579C128.172 88.0554 122.593 84.043 117.122 80.3921C108.867 74.8834 100.858 70.1976 93.3736 66.2361ZM133.92 54.913V92.3469C139.215 88.2269 144.482 84.4538 149.652 81.0036C158.539 75.0734 167.14 70.0969 175.109 65.9513C163.197 58.9359 149.31 54.9112 134.482 54.9112C134.294 54.9112 134.107 54.9117 133.92 54.913ZM133.92 92.509V92.5696C147.925 103.584 162.094 117.034 175.162 133.369C184.807 121.241 193.944 107.519 202.107 92.0141C195.33 81.3835 186.111 72.4586 175.239 66.0278C167.254 70.1787 158.632 75.1649 149.723 81.1097C144.53 84.5755 139.239 88.367 133.92 92.509ZM133.793 92.6317L133.778 92.6202C119.674 103.619 105.378 117.084 92.1842 133.473C92.3098 133.63 92.4357 133.787 92.5616 133.943H126.56C126.56 133.931 126.56 133.919 126.56 133.907C126.56 129.903 129.793 126.653 133.793 126.619V92.6317ZM117.051 80.4984C122.512 84.1422 128.08 88.1461 133.674 92.5389C119.578 103.535 105.29 116.993 92.1023 133.371C82.7417 121.674 73.8509 108.485 65.8535 93.6298C72.6146 82.4457 82.0374 73.0481 93.2454 66.3131C100.746 70.2802 108.775 74.9754 117.051 80.4984ZM65.7767 93.7571C73.7736 108.601 82.6623 121.783 92.0202 133.473C91.9334 133.581 91.8464 133.689 91.7597 133.797C91.7208 133.846 91.6819 133.894 91.6427 133.943H54.3735C54.5539 119.257 58.6941 105.523 65.7767 93.7571ZM54.3719 134.071H91.5406C81.9504 146.07 72.9545 159.623 65.0535 174.908C58.2565 163.149 54.3673 149.501 54.3673 134.946C54.3673 134.654 54.3689 134.362 54.3719 134.071ZM91.7044 134.071C82.0799 146.102 73.0532 159.699 65.1295 175.04C71.5644 186.124 80.5857 195.524 91.3681 202.415C99.1391 198.35 107.548 193.455 116.27 187.6C121.966 183.776 127.796 179.543 133.67 174.864C119.817 163.9 105.701 150.461 92.5005 134.071H91.7044ZM65.0599 175.175C62.6258 179.894 60.296 184.779 58.0853 189.834C63.4152 197.225 69.7931 203.811 77.0018 209.375C81.4182 207.404 86.193 205.118 91.2376 202.483C80.488 195.6 71.4899 186.225 65.0599 175.175ZM58.0257 189.97C55.223 196.389 52.6123 203.082 50.2238 210.06C52.4319 212.53 54.7473 214.903 57.1625 217.17C60.0783 216.188 63.5393 214.943 67.4503 213.396C70.355 212.247 73.5077 210.932 76.869 209.434C69.693 203.887 63.3405 197.327 58.0257 189.97ZM46.9669 220.219C47.9856 216.815 49.0563 213.475 50.1762 210.198C52.3572 212.635 54.6424 214.977 57.0251 217.216C55.2822 217.802 53.737 218.293 52.4104 218.697C50.6271 219.24 49.239 219.627 48.2968 219.878C47.8257 220.004 47.4664 220.095 47.2246 220.155C47.1668 220.17 47.1158 220.182 47.0716 220.193C47.0309 220.203 46.9961 220.212 46.9669 220.219ZM133.793 214.978C118.234 214.847 103.733 210.285 91.4925 202.494C99.2491 198.434 107.639 193.548 116.341 187.706C122.047 183.875 127.888 179.634 133.773 174.945L133.793 174.961V214.978ZM133.92 214.979V175.062C139.494 179.463 145.024 183.463 150.433 187.094C159.788 193.374 168.781 198.549 177.016 202.782C164.69 210.511 150.108 214.98 134.482 214.98C134.294 214.98 134.107 214.98 133.92 214.979ZM150.505 186.988C159.88 193.282 168.893 198.466 177.141 202.703C187.568 196.137 196.374 187.236 202.822 176.735C194.752 160.709 185.478 146.553 175.558 134.071H174.765C161.683 150.416 147.683 163.846 133.92 174.827V174.899C139.518 179.322 145.072 183.341 150.505 186.988ZM177.274 202.77C182.401 205.4 187.231 207.663 191.668 209.599C198.456 204.402 204.514 198.302 209.663 191.478C207.519 186.444 205.256 181.576 202.889 176.869C196.448 187.337 187.666 196.213 177.274 202.77ZM199.324 212.784C204.221 214.721 208.413 216.185 211.712 217.252C213.637 215.448 215.498 213.578 217.293 211.646C214.979 204.693 212.445 198.019 209.721 191.614C204.589 198.404 198.557 204.478 191.802 209.658C194.458 210.815 196.973 211.854 199.324 212.784ZM214.364 218.085C213.598 217.852 212.759 217.589 211.851 217.296C213.742 215.522 215.573 213.683 217.339 211.784C218.192 214.353 219.016 216.961 219.808 219.607C219.782 219.601 219.752 219.594 219.718 219.585C219.671 219.574 219.614 219.56 219.55 219.544C219.308 219.484 218.949 219.392 218.478 219.267C217.536 219.015 216.148 218.628 214.364 218.085ZM214.597 134.946C214.597 150.207 210.32 164.471 202.9 176.607C194.852 160.636 185.608 146.522 175.721 134.071H214.592C214.595 134.362 214.597 134.654 214.597 134.946ZM214.59 133.943H175.62C175.494 133.786 175.369 133.628 175.243 133.471C184.887 121.349 194.023 107.634 202.186 92.1386C209.878 104.255 214.402 118.578 214.59 133.943ZM133.92 92.7324C147.899 103.735 162.038 117.166 175.08 133.472C174.955 133.629 174.829 133.786 174.703 133.943H141.152C141.152 133.931 141.152 133.919 141.152 133.907C141.152 129.904 137.92 126.653 133.92 126.619V92.7324ZM175.162 133.574C175.064 133.697 174.966 133.82 174.867 133.943H175.456C175.358 133.82 175.26 133.697 175.162 133.574ZM141.15 134.071H174.601C161.569 150.34 147.628 163.717 133.92 174.664V141.196C137.866 141.162 141.063 138 141.15 134.071ZM133.793 141.196V174.766L133.772 174.782C119.942 163.838 105.848 150.426 92.6648 134.071H126.562C126.649 138 129.847 141.162 133.793 141.196ZM133.793 141.068C129.918 141.034 126.776 137.929 126.69 134.071H133.793V141.068ZM133.92 141.068V134.071H141.022C140.935 137.929 137.795 141.034 133.92 141.068ZM133.92 133.943H141.024C141.024 133.931 141.024 133.919 141.024 133.907C141.024 129.974 137.85 126.781 133.92 126.747V133.943ZM133.793 133.943V126.747C129.863 126.781 126.688 129.974 126.688 133.907C126.688 133.919 126.688 133.931 126.688 133.943H133.793ZM209.18 77.568C212.007 71.344 214.677 64.861 217.165 58.1091C214.877 55.6521 212.479 53.2973 209.981 51.0522C207.026 52.0582 203.543 53.3198 199.628 54.8701C196.661 56.0442 193.447 57.3844 190.026 58.9044C197.261 64.1884 203.715 70.4783 209.18 77.568ZM220.758 47.783C219.623 51.2463 218.441 54.6433 217.215 57.9746C214.953 55.5493 212.586 53.2237 210.12 51.0049C212.018 50.3602 213.696 49.822 215.128 49.3808C216.971 48.8135 218.406 48.407 219.381 48.1427C219.868 48.0105 220.241 47.9136 220.491 47.85C220.557 47.8331 220.615 47.8185 220.664 47.8063C220.7 47.7973 220.731 47.7894 220.758 47.783ZM209.12 77.6999C203.639 70.5783 197.159 64.2636 189.891 58.9642C185.379 60.9721 180.508 63.2924 175.373 65.9585C186.211 72.3837 195.406 81.2858 202.175 91.8839C204.579 87.3122 206.898 82.586 209.12 77.6999ZM58.5974 79.1386C55.7003 72.9032 52.9609 66.4036 50.4044 59.63C53.0727 56.6593 55.8963 53.8309 58.8627 51.1576C61.3347 52.028 64.1108 53.0565 67.147 54.2586C70.6488 55.6449 74.4965 57.2622 78.6227 59.1343C70.9853 64.7598 64.2287 71.5094 58.5974 79.1386ZM51.6463 48.7696C53.5791 49.3647 55.9595 50.1373 58.7253 51.1092C55.7911 53.757 52.9965 56.5566 50.3538 59.4952C48.8421 55.4841 47.3948 51.3769 46.0167 47.1715C46.0794 47.1871 46.1687 47.2093 46.2836 47.2385C46.5339 47.3021 46.9062 47.399 47.3935 47.5312C48.3685 47.7958 49.8041 48.202 51.6463 48.7696ZM58.6588 79.2711C64.305 71.6096 71.0869 64.8349 78.7563 59.1948C83.243 61.2336 88.0578 63.5728 93.1134 66.2433C81.9382 72.9735 72.5389 82.3478 65.7831 93.4991C63.3193 88.9164 60.9401 84.1754 58.6588 79.2711ZM91.8067 133.943H92.3976C92.3331 133.863 92.2684 133.782 92.2039 133.702C92.1701 133.66 92.1361 133.617 92.102 133.575C92.0585 133.629 92.0148 133.684 91.9713 133.738C91.9163 133.806 91.8615 133.875 91.8067 133.943ZM14.464 133.907C14.464 133.919 14.4639 133.931 14.4639 133.943H14.3558V134.071H14.4621C14.3752 137.95 11.2001 141.068 7.29596 141.068C3.33719 141.068 0.127951 137.862 0.127951 133.907C0.127951 129.953 3.33719 126.747 7.29596 126.747C11.2548 126.747 14.464 129.953 14.464 133.907ZM126.688 260.712C126.688 256.777 129.863 253.585 133.793 253.551V253.643H133.92V253.551C137.85 253.585 141.024 256.777 141.024 260.712C141.024 264.666 137.815 267.872 133.856 267.872C129.897 267.872 126.688 264.666 126.688 260.712ZM252.537 134.007C252.537 130.052 255.746 126.846 259.704 126.846C263.663 126.846 266.872 130.052 266.872 134.007C266.872 137.962 263.663 141.168 259.704 141.168C255.746 141.168 252.537 137.962 252.537 134.007Z" fill="#EAD4A6"/>
</svg>
