<svg width="650" height="54" viewBox="0 0 650 54" fill="none" xmlns="http://www.w3.org/2000/svg">
<line x1="452.177" x2="452.177" y2="53.8385" stroke="#8F7E77" stroke-width="1.96778"/>
<path d="M477.245 26.9189C477.245 30.3509 476.551 33.4214 475.464 35.6067C474.354 37.8371 472.958 38.9323 471.638 38.9323C470.318 38.9323 468.922 37.8371 467.812 35.6067C466.725 33.4214 466.031 30.3509 466.031 26.9189C466.031 23.487 466.725 20.4165 467.812 18.2312C468.922 16.0008 470.318 14.9056 471.638 14.9056C472.958 14.9056 474.354 16.0008 475.464 18.2312C476.551 20.4165 477.245 23.487 477.245 26.9189Z" stroke="#8F7E77" stroke-width="1.47584"/>
<line x1="476.573" y1="27.6798" x2="497.722" y2="27.6798" stroke="#8F7E77" stroke-width="1.31185"/>
<line x1="568.221" y1="27.6798" x2="589.371" y2="27.6798" stroke="#8F7E77" stroke-width="1.31185"/>
<line x1="506.182" y1="27.6798" x2="513.232" y2="27.6798" stroke="#8F7E77" stroke-width="1.31185"/>
<line x1="597.831" y1="27.6798" x2="604.881" y2="27.6798" stroke="#8F7E77" stroke-width="1.31185"/>
<line x1="521.692" y1="27.6798" x2="542.842" y2="27.6798" stroke="#8F7E77" stroke-width="1.31185"/>
<line x1="613.341" y1="27.6798" x2="634.49" y2="27.6798" stroke="#8F7E77" stroke-width="1.31185"/>
<line x1="545.662" y1="27.6798" x2="558.351" y2="27.6798" stroke="#8F7E77" stroke-width="1.31185"/>
<line x1="637.31" y1="27.6798" x2="650" y2="27.6798" stroke="#8F7E77" stroke-width="1.31185"/>
<line x1="197.823" y1="53.8386" x2="197.823" y2="0.000125885" stroke="#8F7E77" stroke-width="1.96778"/>
<path d="M172.755 26.9187C172.755 23.4868 173.449 20.4162 174.536 18.231C175.646 16.0005 177.042 14.9054 178.362 14.9054C179.682 14.9054 181.078 16.0005 182.188 18.231C183.275 20.4162 183.969 23.4868 183.969 26.9187C183.969 30.3506 183.275 33.4212 182.188 35.6064C181.078 37.8368 179.682 38.932 178.362 38.932C177.042 38.932 175.646 37.8368 174.536 35.6064C173.449 33.4212 172.755 30.3506 172.755 26.9187Z" stroke="#8F7E77" stroke-width="1.47584"/>
<line x1="173.427" y1="26.1584" x2="152.278" y2="26.1584" stroke="#8F7E77" stroke-width="1.31185"/>
<line x1="81.7786" y1="26.1584" x2="60.6289" y2="26.1584" stroke="#8F7E77" stroke-width="1.31185"/>
<line x1="143.818" y1="26.1584" x2="136.768" y2="26.1584" stroke="#8F7E77" stroke-width="1.31185"/>
<line x1="52.1692" y1="26.1584" x2="45.1193" y2="26.1584" stroke="#8F7E77" stroke-width="1.31185"/>
<line x1="128.308" y1="26.1584" x2="107.158" y2="26.1584" stroke="#8F7E77" stroke-width="1.31185"/>
<line x1="36.6594" y1="26.1584" x2="15.5098" y2="26.1584" stroke="#8F7E77" stroke-width="1.31185"/>
<line x1="104.338" y1="26.1584" x2="91.6486" y2="26.1584" stroke="#8F7E77" stroke-width="1.31185"/>
<line x1="12.6897" y1="26.1584" x2="-0.000105858" y2="26.1584" stroke="#8F7E77" stroke-width="1.31185"/>
<path d="M236.294 24.7436C236.294 24.6176 236.336 24.5127 236.42 24.4287L240.492 20.3567V19.3072H242.591V20.3567L246.662 24.4287C246.746 24.5127 246.788 24.6176 246.788 24.7436V34H244.689V29.8021H238.393V34H236.294V24.7436ZM244.689 27.7031V25.6041L241.541 22.4557L238.393 25.6041V27.7031H244.689ZM251.398 19.3072H253.497V31.901H261.893V34H251.398V19.3072ZM266.502 19.3072H268.601V31.901H276.997V34H266.502V19.3072ZM296.711 19.3072H304.708C304.834 19.3072 304.939 19.3492 305.023 19.4332L307.08 21.4902C307.164 21.5741 307.206 21.6791 307.206 21.805V25.835C307.206 25.961 307.164 26.0659 307.08 26.1499L305.044 28.1859C304.946 28.2838 304.834 28.3328 304.708 28.3328H303.533L307.08 31.88C307.164 31.964 307.206 32.069 307.206 32.1949V34H305.107V32.8875L301.434 29.2144V28.3328H298.81V34H296.711V19.3072ZM303.848 26.2338L305.107 24.9535V22.6656L303.848 21.4062H298.81V26.2338H303.848ZM311.815 24.7436C311.815 24.6176 311.857 24.5127 311.941 24.4287L316.013 20.3567V19.3072H318.112V20.3567L322.184 24.4287C322.268 24.5127 322.31 24.6176 322.31 24.7436V34H320.211V29.8021H313.914V34H311.815V24.7436ZM320.211 27.7031V25.6041L317.063 22.4557L313.914 25.6041V27.7031H320.211ZM326.92 19.3072H329.019V22.9804H330.068L335.316 28.2278V19.3072H337.415V34H335.316V30.3268H334.266L329.019 25.0794V34H326.92V19.3072ZM342.024 19.3072H344.123V25.6041H346.747V24.3448L350.42 20.6716V19.3072H352.519V21.3852C352.519 21.5111 352.477 21.6161 352.393 21.7001L348.846 25.2473V28.0389L352.393 31.5862C352.477 31.6701 352.519 31.7751 352.519 31.901V34H350.42V32.6357L346.747 28.9625V27.7031H344.123V34H342.024V19.3072ZM357.128 31.901H361.326V21.4062H357.128V19.3072H367.623V21.4062H363.425V31.901H367.623V34H357.128V31.901ZM372.233 19.3072H374.332V22.9804H375.381L380.629 28.2278V19.3072H382.728V34H380.629V30.3268H379.579L374.332 25.0794V34H372.233V19.3072ZM389.835 34C389.709 34 389.604 33.958 389.52 33.8741L387.463 31.8171C387.379 31.7331 387.337 31.6282 387.337 31.5022V21.805C387.337 21.6791 387.379 21.5741 387.463 21.4902L389.52 19.4332C389.604 19.3492 389.709 19.3072 389.835 19.3072H395.334C395.46 19.3072 395.565 19.3492 395.649 19.4332L397.706 21.4902C397.79 21.5741 397.832 21.6791 397.832 21.805V24.5546H395.733V22.6656L394.474 21.4062H390.696L389.436 22.6656V30.6417L390.696 31.901H394.474L395.733 30.6417V27.7031H392.585V25.6041H397.832V31.5022C397.832 31.6282 397.79 31.7331 397.706 31.8171L395.649 33.8741C395.565 33.958 395.46 34 395.334 34H389.835ZM404.939 34C404.813 34 404.708 33.958 404.624 33.8741L402.567 31.8171C402.484 31.7331 402.442 31.6282 402.442 31.5022V28.7526H404.541V30.6417L405.8 31.901H409.578L410.837 30.6417V28.9625L409.578 27.7031H404.939C404.813 27.7031 404.708 27.6611 404.624 27.5772L402.567 25.5202C402.484 25.4362 402.442 25.3313 402.442 25.2053V21.805C402.442 21.6791 402.484 21.5741 402.567 21.4902L404.624 19.4332C404.708 19.3492 404.813 19.3072 404.939 19.3072H410.439C410.565 19.3072 410.67 19.3492 410.753 19.4332L412.81 21.4902C412.894 21.5741 412.936 21.6791 412.936 21.805V24.5546H410.837V22.6656L409.578 21.4062H405.8L404.541 22.6656V24.3448L405.8 25.6041H410.439C410.565 25.6041 410.67 25.6461 410.753 25.7301L412.81 27.7871C412.894 27.871 412.936 27.976 412.936 28.1019V31.5022C412.936 31.6282 412.894 31.7331 412.81 31.8171L410.753 33.8741C410.67 33.958 410.565 34 410.439 34H404.939Z" fill="#8F7E77"/>
</svg>
