<svg width="771" height="771" viewBox="0 0 771 771" fill="none" xmlns="http://www.w3.org/2000/svg">
<path d="M385.871 718.859C569.836 718.859 718.97 569.726 718.97 385.76C718.97 201.794 569.836 52.6608 385.871 52.6608C201.905 52.6608 52.7715 201.794 52.7715 385.76C52.7715 569.726 201.905 718.859 385.871 718.859Z" stroke="#8F7E77" stroke-width="0.399703"/>
<path d="M385.869 752.183C588.239 752.183 752.292 588.13 752.292 385.76C752.292 183.39 588.239 19.3364 385.869 19.3364C183.499 19.3364 19.4453 183.39 19.4453 385.76C19.4453 588.13 183.499 752.183 385.869 752.183Z" stroke="#8F7E77" stroke-width="0.399703" stroke-dasharray="16.9 16.9"/>
<path d="M385.869 770.512C598.362 770.512 770.621 598.252 770.621 385.76C770.621 173.267 598.362 1.00781 385.869 1.00781C173.376 1.00781 1.11719 173.267 1.11719 385.76C1.11719 598.252 173.376 770.512 385.869 770.512Z" stroke="#8F7E77" stroke-width="0.399703" stroke-dasharray="17.75 17.75"/>
<path d="M385.869 637.419C525.066 637.419 637.908 524.577 637.908 385.38C637.908 246.182 525.066 133.341 385.869 133.341C246.672 133.341 133.83 246.182 133.83 385.38C133.83 524.577 246.672 637.419 385.869 637.419Z" stroke="#8F7E77" stroke-width="0.399703"/>
<path d="M385.869 650.547C532.026 650.547 650.51 532.064 650.51 385.907C650.51 239.75 532.026 121.266 385.869 121.266C239.712 121.266 121.229 239.75 121.229 385.907C121.229 532.064 239.712 650.547 385.869 650.547Z" stroke="#8F7E77" stroke-width="0.416666"/>
<path d="M386.299 52.9734V385.666" stroke="#8F7E77" stroke-width="0.399703"/>
<path d="M150.91 150.218L386.159 385.467" stroke="#8F7E77" stroke-width="0.399703"/>
<path d="M386.055 385.467L621.306 150.218" stroke="#8F7E77" stroke-width="0.399703"/>
</svg>
