<svg width="735" height="735" viewBox="0 0 735 735" fill="none" xmlns="http://www.w3.org/2000/svg">
<path d="M367.73 644.728C521.028 644.728 645.301 520.455 645.301 367.156C645.301 213.858 521.028 89.5846 367.73 89.5846C214.431 89.5846 90.1579 213.858 90.1579 367.156C90.1579 520.455 214.431 644.728 367.73 644.728Z" stroke="#8F7E77" stroke-width="0.399703"/>
<path d="M367.729 659.187C528.692 659.187 659.179 528.7 659.179 367.737C659.179 206.773 528.692 76.2867 367.729 76.2867C206.766 76.2867 76.2791 206.773 76.2791 367.737C76.2791 528.7 206.766 659.187 367.729 659.187Z" stroke="#8F7E77" stroke-width="0.416666"/>
<path d="M368.202 1.07591V367.472" stroke="#8F7E77" stroke-width="0.399703"/>
<path d="M108.967 108.171L368.048 367.252" stroke="#8F7E77" stroke-width="0.399703"/>
<path d="M367.933 367.252L627.017 108.171" stroke="#8F7E77" stroke-width="0.399703"/>
<path d="M367.73 734.419C570.332 734.419 734.574 570.177 734.574 367.575C734.574 164.973 570.332 0.731544 367.73 0.731544C165.128 0.731544 0.886536 164.973 0.886536 367.575C0.886536 570.177 165.128 734.419 367.73 734.419Z" stroke="#8F7E77" stroke-width="0.399703"/>
</svg>
