<svg width="553" height="19" viewBox="0 0 553 19" fill="none" xmlns="http://www.w3.org/2000/svg">
<circle cx="426.043" cy="9.5" r="3.9375" stroke="#A59188" stroke-width="1.125"/>
<line x1="429.543" y1="9.5" x2="444.543" y2="9.5" stroke="#A59188"/>
<line x1="494.543" y1="9.5" x2="509.543" y2="9.5" stroke="#A59188"/>
<line x1="450.543" y1="9.5" x2="455.543" y2="9.5" stroke="#A59188"/>
<line x1="515.543" y1="9.5" x2="520.543" y2="9.5" stroke="#A59188"/>
<line x1="461.543" y1="9.5" x2="476.543" y2="9.5" stroke="#A59188"/>
<line x1="526.543" y1="9.5" x2="541.543" y2="9.5" stroke="#A59188"/>
<line x1="478.543" y1="9.5" x2="487.543" y2="9.5" stroke="#A59188"/>
<line x1="543.543" y1="9.5" x2="552.543" y2="9.5" stroke="#A59188"/>
<line x1="412.293" x2="412.293" y2="19" stroke="#A59188" stroke-width="1.5"/>
<circle cx="4.5" cy="4.5" r="3.9375" transform="matrix(-1 0 0 1 131.543 5)" stroke="#A59188" stroke-width="1.125"/>
<line y1="-0.5" x2="15" y2="-0.5" transform="matrix(-1 0 0 1 123.543 10)" stroke="#A59188"/>
<line y1="-0.5" x2="15" y2="-0.5" transform="matrix(-1 0 0 1 58.543 10)" stroke="#A59188"/>
<line y1="-0.5" x2="5" y2="-0.5" transform="matrix(-1 0 0 1 102.543 10)" stroke="#A59188"/>
<line y1="-0.5" x2="5" y2="-0.5" transform="matrix(-1 0 0 1 37.543 10)" stroke="#A59188"/>
<line y1="-0.5" x2="15" y2="-0.5" transform="matrix(-1 0 0 1 91.543 10)" stroke="#A59188"/>
<line y1="-0.5" x2="15" y2="-0.5" transform="matrix(-1 0 0 1 26.543 10)" stroke="#A59188"/>
<line y1="-0.5" x2="9" y2="-0.5" transform="matrix(-1 0 0 1 74.543 10)" stroke="#A59188"/>
<line y1="-0.5" x2="9" y2="-0.5" transform="matrix(-1 0 0 1 9.54297 10)" stroke="#A59188"/>
<line y1="-0.75" x2="19" y2="-0.75" transform="matrix(0 1 1 0 141.543 0)" stroke="#A59188" stroke-width="1.5"/>
</svg>
