<svg width="287" height="2042" viewBox="0 0 287 2042" fill="none" xmlns="http://www.w3.org/2000/svg">
<path opacity="1" fill-rule="evenodd" clip-rule="evenodd" d="M286 1743.51L286 1717.82H287V1743.51H286ZM286 1747.47L286 1771.19H287L287 1747.47H286ZM286 1834.44L286 1781.07H287L287 1834.44H286ZM286 1846.31L286 1873.98H287L287 1846.31H286ZM286 1945.14L286 1891.77H287L287 1945.14H286ZM286 1957L286 1992.59H287L287 1957H286ZM286 2042L286 2004.44H287L287 2042H286ZM287 1707.93H286L286 1674.33H287V1707.93ZM287 1654.56H286L286 1609.09H287L287 1654.56ZM286 1557.7L286 1597.23H287L287 1557.7H286ZM287 814.43H286L286 802.57H287V814.43ZM286 751.174L286 792.686H287L287 751.174H286ZM287 743.266H286L286 705.708H287L287 743.266ZM286 658.264L286 697.8H287L287 658.264H286ZM287 636.52H286V591.054H287L287 636.52ZM286 541.636V583.148H287L287 541.636H286ZM286 181.863H287V177.909H286V181.863ZM287 168.025H286V140.351H287L287 168.025ZM286 63.2568V104.769H287L287 63.2568H286ZM287 43.489H286V0H287L287 43.489Z" fill="#8F7E77"/>
<path opacity="1" fill-rule="evenodd" clip-rule="evenodd" d="M7.62114e-05 1742.51L7.50882e-05 1716.82H1.00008V1742.51H7.62114e-05ZM7.63842e-05 1746.47L7.7421e-05 1770.19H1.00008L1.00008 1746.47H7.63842e-05ZM8.01862e-05 1833.44L7.78532e-05 1780.07H1.00008L1.00008 1833.44H8.01862e-05ZM8.07046e-05 1845.31L8.19142e-05 1872.98H1.00008L1.00008 1845.31H8.07046e-05ZM8.5025e-05 1944.14L8.2692e-05 1890.77H1.00008L1.00009 1944.14H8.5025e-05ZM8.55434e-05 1956L8.70986e-05 1991.59H1.00009L1.00009 1956H8.55434e-05ZM8.9259e-05 2041L8.76172e-05 2003.44H1.00009L1.00009 2041H8.9259e-05ZM1.00007 1706.93H7.4656e-05L7.24098e-05 1673.33H1.00007V1706.93ZM1.00007 1653.56H7.10884e-05L6.80494e-05 1608.09H1.00007L1.00007 1653.56ZM6.46138e-05 1556.7L6.72566e-05 1596.23H1.00007L1.00007 1556.7H6.46138e-05ZM1.00004 813.43H1.49312e-05L1.41384e-05 801.57H1.00004V813.43ZM1.07029e-05 750.174L1.34777e-05 791.686H1.00003L1.00003 750.174H1.07029e-05ZM1.00003 742.266H1.01743e-05L7.66382e-06 704.708H1.00003L1.00003 742.266ZM4.49256e-06 657.264L7.1353e-06 696.8H1.00003L1.00003 657.264H4.49256e-06ZM1.00003 635.52H0V590.054H1.00003L1.00003 635.52ZM0 540.636V582.148H1.00003L1.00002 540.636H0ZM0 180.863H1.00001V176.909H0V180.863ZM1.00001 167.025H0V139.351H1.00001L1.00001 167.025ZM0 62.2568V103.769H1L1 62.2568H0ZM1 42.489H0V-1H1L1 42.489Z" fill="#8F7E77"/>
</svg>
