<svg width="22" height="599" viewBox="0 0 22 599" fill="none" xmlns="http://www.w3.org/2000/svg">
<path fill-rule="evenodd" clip-rule="evenodd" d="M22.0004 18.7908V42.5124H21.0004L21.0004 18.7908H22.0004ZM22.0004 99.8386V58.3264H21.0004L21.0004 99.8386H22.0004ZM22.0004 113.676V151.235H21.0004L21.0004 113.676H22.0004ZM22.0004 204.608V157.165H21.0004L21.0004 204.608H22.0004ZM22.0004 208.562V222.398H21.0004V208.562H22.0004ZM22.0004 256.004V228.328H21.0004L21.0004 256.004H22.0004ZM22.0004 259.958V275.772H21.0004V259.958H22.0004ZM22.0004 293.562V281.702H21.0004V293.562H22.0004ZM22.0004 297.516V315.306H21.0004L21.0004 297.516H22.0004ZM22.0004 348.912V319.26H21.0004L21.0004 348.912H22.0004ZM22.0004 350.888V366.702H21.0004V350.888H22.0004ZM22.0004 372.634V370.656H21.0004V372.634H22.0004ZM22.0004 378.564V390.424H21.0003L21.0004 378.564H22.0004ZM22.0004 447.75V400.308H21.0003L21.0003 447.75H22.0004ZM22.0004 449.728V467.518H21.0003V449.728H22.0004ZM22.0004 479.378V471.472H21.0003V479.378H22.0004ZM22.0004 598.858H21.0003L21.0003 483.332H22.0004V598.858ZM22.0004 12.8605H21.0004V1H22.0004V12.8605Z" fill="#8F7E77"/>
<path d="M21.4847 13V1M22.0004 1.375H0.000366756" stroke="#8F7E77"/>
</svg>
