<svg width="436" height="900" viewBox="0 0 436 900" fill="none" xmlns="http://www.w3.org/2000/svg">
<rect width="436" height="900" fill="#0E1214"/>
<path fill-rule="evenodd" clip-rule="evenodd" d="M25 877.6L25 879H25.9589L25.9589 877.6H25ZM25 875.618V871.657H25.9589V875.618H25ZM25 855.816V863.738H25.9589V855.816H25ZM25 849.875V834.034H25.9589V849.875H25ZM25 756.806L25 830.073H25.9589V756.806H25ZM25 750.866L25 727.102H25.9589V750.866H25ZM25 689.479L25 719.182H25.9589V689.479H25ZM25 681.557V679.578H25.9589V681.557H25ZM25 606.311L25 653.835H25.9589L25.9588 606.311H25ZM25 592.449V570.667H25.9588V592.449H25ZM25 546.903L25 560.766H25.9588V546.903H25ZM25 540.963V531.062H25.9588V540.963H25ZM25 493.439L25 517.2H25.9588V493.439H25ZM25 465.714L25 447.894H25.9588V465.714H25ZM25 402.348L25 439.972H25.9588V402.348H25ZM25 392.447V388.486H25.9588V392.447H25ZM25 352.842L25 380.567H25.9588V352.842H25ZM25 338.982L25 303.339H25.9588V338.982H25ZM25 237.991L25 301.357H25.9588V237.991H25ZM25 234.03V228.09H25.9588V234.03H25ZM25 212.248V226.111H25.9588V212.248H25ZM25 208.288L25 174.623H25.9588V208.288H25ZM25 142.94L25 170.664H25.9588L25.9588 142.94H25ZM25 138.981V127.099H25.9588V138.981H25ZM25.0412 78.6104L25 61.7511H25.9588L26 78.6104H25.0412ZM25 20.9403V55.8108H25.9588L25.9588 20.9403H25Z" fill="#8F7E77"/>
<path fill-rule="evenodd" clip-rule="evenodd" d="M410 877.6L410 879H410.959L410.959 877.6H410ZM410 875.618V871.657H410.959V875.618H410ZM410 855.816V863.738H410.959V855.816H410ZM410 849.875V834.034H410.959V849.875H410ZM410 756.806L410 830.073H410.959V756.806H410ZM410 750.866L410 727.102H410.959V750.866H410ZM410 689.479L410 719.182H410.959V689.479H410ZM410 681.557V679.578H410.959V681.557H410ZM410 606.311L410 653.835H410.959L410.959 606.311H410ZM410 592.449V570.667H410.959V592.449H410ZM410 546.903L410 560.766H410.959V546.903H410ZM410 540.963V531.062H410.959V540.963H410ZM410 493.439L410 517.2H410.959V493.439H410ZM410 465.714L410 447.894H410.959V465.714H410ZM410 402.348L410 439.972H410.959V402.348H410ZM410 392.447V388.486H410.959V392.447H410ZM410 352.842L410 380.567H410.959V352.842H410ZM410 338.982L410 303.339H410.959V338.982H410ZM410 237.991L410 301.357H410.959V237.991H410ZM410 234.03V228.09H410.959V234.03H410ZM410 212.248V226.111H410.959V212.248H410ZM410 208.288L410 174.623H410.959V208.288H410ZM410 142.94L410 170.664H410.959L410.959 142.94H410ZM410 138.981V127.099H410.959V138.981H410ZM410.041 78.6104L410 61.7511H410.959L411 78.6104H410.041ZM410 20.9403V55.8108H410.959L410.959 20.9403H410Z" fill="#8F7E77"/>
<path fill-rule="evenodd" clip-rule="evenodd" d="M25.0007 21L30.8984 21V21.9589L25.0007 21.9588V21ZM68.5218 21L38.8182 21V21.9589H68.5218V21ZM76.4435 21H78.4229V21.9589H76.4435V21ZM151.69 21L104.166 21V21.9589L151.69 21.9588V21ZM165.552 21H187.334V21.9588H165.552V21ZM211.097 21L197.235 21V21.9588H211.097V21ZM217.038 21H226.939V21.9588H217.038V21ZM264.562 21L240.801 21V21.9588H264.562V21ZM292.286 21L310.107 21V21.9588H292.286V21ZM355.652 21L318.029 21V21.9588H355.652V21ZM365.553 21H369.514V21.9588H365.553V21ZM410 21L377.434 21V21.9588L410 21.9588V21Z" fill="#8F7E77"/>
<path fill-rule="evenodd" clip-rule="evenodd" d="M25.0007 879L30.8984 879V879.959L25.0007 879.959V879ZM68.5218 879L38.8182 879V879.959H68.5218V879ZM76.4435 879H78.4229V879.959H76.4435V879ZM151.69 879L104.166 879V879.959L151.69 879.959V879ZM165.552 879H187.334V879.959H165.552V879ZM211.097 879L197.235 879V879.959H211.097V879ZM217.038 879H226.939V879.959H217.038V879ZM264.562 879L240.801 879V879.959H264.562V879ZM292.286 879L310.107 879V879.959H292.286V879ZM355.652 879L318.029 879V879.959H355.652V879ZM365.553 879H369.514V879.959H365.553V879ZM410 879L377.434 879V879.959L410 879.959V879Z" fill="#8F7E77"/>
</svg>
