<svg width="344" height="200" viewBox="0 0 344 200" fill="none" xmlns="http://www.w3.org/2000/svg">
<rect x="4" width="338" height="200" fill="#D9D9D9" fill-opacity="0.22"/>
<path d="M4.30078 24.7422V2.06177H68.8008M288.101 2.06177H341.851V24.7422M83.8508 2.06177H105.351M116.101 2.06177H126.851M137.601 2.06177H156.951M182.751 2.06177H212.851M225.751 2.06177H242.951M251.551 2.06177H277.351M4.30078 175.258V198.969H55.9008M288.101 198.969H341.851V175.258M62.3508 198.969H75.2508M96.7508 198.969H109.651M122.551 198.969H135.451M139.751 198.969H169.851M178.451 198.969H195.651M199.951 198.969H221.451M234.351 198.969H251.551M255.851 198.969H273.051" stroke="#A59188" stroke-width="2"/>
</svg>
