<svg width="23" height="23" viewBox="0 0 23 23" fill="none" xmlns="http://www.w3.org/2000/svg">
<circle cx="11.5" cy="11.5" r="11" stroke="#8F7E77" stroke-dasharray="3 3"/>
<path d="M8.27338 6.87817C7.88752 6.49231 7.26404 6.49231 6.87817 6.87817C6.49231 7.26404 6.49231 7.88752 6.87817 8.27338L10.0174 11.4126L6.87817 14.5518C6.49231 14.9377 6.49231 15.5612 6.87817 15.947C7.26404 16.3329 7.88752 16.3329 8.27338 15.947L11.4126 12.8078L14.5518 15.947C14.9377 16.3329 15.5612 16.3329 15.947 15.947C16.3329 15.5612 16.3329 14.9377 15.947 14.5518L12.8078 11.4126L15.947 8.27338C16.3329 7.88752 16.3329 7.26404 15.947 6.87817C15.5612 6.49231 14.9377 6.49231 14.5518 6.87817L11.4126 10.0174L8.27338 6.87817Z" fill="#8F7E77"/>
</svg>
